<svg width="80" height="72" viewBox="0 0 80 72" fill="none" xmlns="http://www.w3.org/2000/svg">
<path d="M11.4476 35.3062C11.658 34.4295 11.9878 34.1255 12.9088 34.1467C15.7402 34.212 18.5738 34.1702 21.4663 34.1702C21.4663 36.6812 21.4663 39.0776 21.4663 41.6496C20.8747 41.6496 20.3088 41.6403 19.7406 41.6496C16.4721 41.7082 14.038 44.1467 14.0474 47.35C14.0544 50.394 16.5139 52.8538 19.6727 52.856C33.3807 52.8792 47.089 52.8792 60.7993 52.856C64.0025 52.8492 66.4154 50.3544 66.3896 47.2049C66.3661 44.0952 63.8713 41.6731 60.6754 41.6519C60.1375 41.6519 59.6 41.6519 58.9919 41.6519C58.9919 39.1573 58.9919 36.7584 58.9919 34.287C59.1673 34.2519 59.3847 34.1747 59.6 34.1747C62.3261 34.168 65.0523 34.177 67.7784 34.1609C68.3417 34.1561 68.7114 34.231 68.8726 34.8786C70.9392 43.2537 73.0274 51.6194 75.1105 59.9896C75.1269 60.0623 75.1012 60.1417 75.0896 60.2913C51.8655 60.2913 28.6368 60.2913 5.25378 60.2913C6.20057 56.4521 7.11712 52.7206 8.04525 48.9913C9.18184 44.4295 10.3535 39.8748 11.4476 35.3062Z" fill="#008575"/>
<path d="M55.0856 49.0726C45.1837 49.0726 35.3124 49.0726 25.3546 49.0726C25.3546 36.6759 25.3546 24.2844 25.3546 11.7802C35.3076 11.7802 45.1513 11.7802 55.0856 11.7802C55.0856 24.2142 55.0856 36.6061 55.0856 49.0726Z" fill="white"/>
<path d="M55.0854 11.7803C45.1511 11.7803 35.3074 11.7803 25.3544 11.7803C25.3544 24.2845 25.3544 36.676 25.3544 49.0727C35.3123 49.0727 45.1836 49.0727 55.0854 49.0727C55.0854 36.6062 55.0854 24.2143 55.0854 11.7803ZM12.9088 34.1464C11.9874 34.1255 11.658 34.4292 11.4476 35.3059C10.3535 39.8745 9.18215 44.4292 8.04556 48.9907C7.11743 52.7199 6.20088 56.4514 5.25409 60.2907C28.6371 60.2907 51.8658 60.2907 75.0899 60.2907C75.1015 60.1411 75.1272 60.0616 75.1108 59.9889C73.0274 51.6184 70.9395 43.253 68.8729 34.878C68.7117 34.2304 68.342 34.1554 67.7787 34.1603C65.0526 34.1767 62.3264 34.1674 59.6003 34.1741C59.3854 34.1741 59.1676 34.2513 58.9922 34.2864C58.9922 36.7577 58.9922 39.1567 58.9922 41.6513C59.6003 41.6513 60.1378 41.6513 60.6757 41.6513C63.8719 41.6722 66.3664 44.0946 66.3899 47.2043C66.4157 50.3538 64.0028 52.8486 60.7996 52.8554C47.089 52.8785 33.381 52.8785 19.6731 52.8554C16.5142 52.8531 14.0547 50.3933 14.0477 47.3493C14.0383 44.1461 16.4724 41.7076 19.7409 41.649C20.3091 41.6397 20.875 41.649 21.4666 41.649C21.4666 39.0769 21.4666 36.6805 21.4666 34.1696C18.5741 34.1699 15.7402 34.2117 12.9088 34.1464ZM3.5262 64.0949C1.30513 64.0949 0.638546 63.2932 1.17644 61.1095C3.30165 52.5076 5.46192 43.9177 7.61061 35.3226C7.86315 34.3057 8.11794 33.2884 8.37499 32.2693C8.72114 30.9036 9.27062 30.4478 10.6665 30.4433C14.094 30.4339 17.5218 30.4384 20.9493 30.4339C21.0966 30.4339 21.2462 30.394 21.5245 30.3567C21.5245 23.9013 21.5245 17.5537 21.5245 11.208C21.5245 10.8947 21.5197 10.5839 21.5267 10.2728C21.5525 8.63369 22.1557 8.01183 23.7993 8.00958C29.9529 7.998 36.1091 8.00025 42.2631 8.00025C46.9742 8.00025 51.6879 7.998 56.4012 8.00701C58.3604 8.00926 58.917 8.56356 58.917 10.4996C58.9218 16.6532 58.9192 22.8072 58.9192 28.9586C58.9192 29.3864 58.9192 29.8143 58.9192 30.4291C59.3867 30.4291 59.7959 30.4291 60.2051 30.4291C63.399 30.4339 66.5926 30.4291 69.7865 30.4429C71.138 30.45 71.7341 30.8943 72.0497 32.1589C74.4696 41.8481 76.8895 51.5345 79.2837 61.2282C79.7839 63.2552 79.0942 64.0946 77.0249 64.0946C59.5758 64.1013 42.1267 64.1013 24.6756 64.1013C17.627 64.1017 10.5777 64.1017 3.5262 64.0949Z" fill="#274B47"/>
<path d="M45.7627 24.1452C45.9989 23.9085 46.2385 23.6485 46.6091 23.6965C46.8112 23.7232 47.0415 23.7859 47.1914 23.9127C47.6032 24.2582 47.9886 24.6358 48.3657 25.0193C48.8218 25.4836 48.7926 26.0813 48.3032 26.5732C46.3849 28.5018 44.4659 30.4282 42.5443 32.3562C41.1275 33.7759 39.7072 35.1927 38.2891 36.6114C37.721 37.1802 37.1535 37.1776 36.5837 36.6085C35.0337 35.0573 33.4834 33.5082 31.9338 31.9573C31.3006 31.3242 31.308 30.8088 31.9585 30.1773C32.2317 29.9125 32.5119 29.6516 32.7863 29.3878C33.3319 28.8615 33.7984 28.8573 34.3318 29.3878C35.2818 30.3339 36.227 31.284 37.1696 32.2372C37.2448 32.3118 37.2863 32.4193 37.3922 32.5865C37.5347 32.3958 37.5949 32.2906 37.6763 32.2095C40.3706 29.52 43.0662 26.8315 45.7627 24.1452Z" fill="white"/>
<path d="M46.6091 23.6969C46.2385 23.649 45.9989 23.9089 45.7627 24.1457C43.0662 26.832 40.3702 29.5205 37.6766 32.2103C37.5952 32.2914 37.535 32.3966 37.3925 32.5873C37.2867 32.42 37.2452 32.3126 37.1699 32.238C36.2273 31.2847 35.2821 30.3347 34.3321 29.3886C33.7987 28.8581 33.3326 28.8623 32.7866 29.3886C32.5122 29.6524 32.232 29.913 31.9589 30.1781C31.3087 30.8096 31.301 31.3246 31.9341 31.9581C33.4834 33.5087 35.0338 35.0577 36.5841 36.6093C37.1538 37.1784 37.7213 37.1807 38.2894 36.6122C39.7075 35.1938 41.1279 33.777 42.5447 32.357C44.4662 30.429 46.3852 28.5026 48.3036 26.574C48.7929 26.0824 48.8222 25.4843 48.366 25.0201C47.9889 24.6366 47.6035 24.2589 47.1918 23.9134C47.0415 23.7864 46.8112 23.7236 46.6091 23.6969ZM40.0537 42.717C33.1669 42.6507 27.7152 37.1926 27.7188 30.3463C27.7229 23.4782 33.2315 17.985 40.1013 18.0049C46.9611 18.0249 52.4356 23.5068 52.4185 30.3811C52.4028 37.2727 46.9109 42.6677 40.0537 42.717Z" fill="#274B47"/>
</svg>