<svg width="24" height="24" viewBox="0 0 24 24" fill="none" xmlns="http://www.w3.org/2000/svg">
<path d="M13.3518 5.59686C12.9964 5.70229 12.4941 5.78371 11.8517 5.84143C11.8806 4.40874 12.2542 3.17297 12.9781 2.13583C13.6887 1.10537 14.889 0.393371 16.5812 0C16.5917 0.0275429 16.6053 0.0826856 16.6183 0.159257C16.6315 0.235829 16.6446 0.288343 16.6552 0.317257C16.6552 0.355314 16.6578 0.403943 16.663 0.461657C16.6657 0.519886 16.6683 0.567143 16.6683 0.606914C16.6683 1.19331 16.5287 1.84623 16.25 2.56737C15.963 3.28851 15.5153 3.95189 14.9101 4.55754C14.3915 5.07566 13.8703 5.42309 13.3518 5.59686ZM19.8133 15.7066C19.1503 14.7562 18.8186 13.6823 18.8186 12.4903C18.8186 11.4033 19.1294 10.4082 19.7555 9.50549C20.0925 9.0132 20.6399 8.44731 21.4004 7.8028C20.9003 7.18669 20.4005 6.70794 19.9004 6.36046C18.9949 5.73646 17.971 5.42314 16.8263 5.42314C16.1445 5.42314 15.3126 5.58634 14.3337 5.9128C13.3916 6.24189 12.7018 6.40337 12.2701 6.40337C11.9436 6.40337 11.2806 6.26029 10.2802 5.97103C9.26983 5.68223 8.4196 5.53909 7.72731 5.53909C6.07183 5.53909 4.70834 6.23091 3.6292 7.61549C2.54223 9.01846 2 10.8187 2 13.0085C2 15.3382 2.70806 17.7542 4.12149 20.2651C5.55337 22.755 7.00091 24 8.4616 24C8.95126 24 9.588 23.8367 10.3647 23.5103C11.1437 23.1922 11.828 23.0338 12.4148 23.0338C13.0389 23.0338 13.7653 23.1878 14.5915 23.4945C15.4654 23.8026 16.1393 23.9562 16.6106 23.9562C17.8424 23.9562 19.0764 23.0145 20.3187 21.1298C21.1243 19.9281 21.7164 18.7269 22.0927 17.5253C21.2346 17.2645 20.4767 16.6593 19.8133 15.7066Z" fill="white"/>
</svg>

