<svg width="24" height="24" viewBox="0 0 24 24" fill="none" xmlns="http://www.w3.org/2000/svg">
<path fill-rule="evenodd" clip-rule="evenodd" d="M9.36797 16.6821C9.4413 16.6821 9.47797 16.7774 9.47797 16.9681L9.67597 16.7481L9.85197 16.6381L10.05 16.7481C10.314 16.5427 10.556 16.3081 10.776 16.0441C10.8786 15.9267 11.0253 15.7141 11.216 15.4061C11.4066 15.0834 11.6486 14.6727 11.942 14.1741L13.306 11.8641C13.4526 11.6147 13.702 11.2407 14.054 10.7421C14.406 10.2287 14.8093 9.65674 15.264 9.02608C15.7186 8.39541 16.1733 7.77208 16.628 7.15608C16.865 6.83758 17.0889 6.53966 17.2998 6.26231C17.6214 6.26408 17.9468 6.27565 18.2761 6.29703C18.2351 7.09662 18.1825 8.02368 18.1182 9.07821C18.054 10.1327 17.9868 11.2191 17.9167 12.3374C17.8307 13.4542 17.7476 14.5391 17.6674 15.5922C17.5857 16.6612 17.5085 17.5941 17.4357 18.3907C17.0431 18.4673 16.6208 18.5171 16.1688 18.54C15.8568 18.5649 11.3968 18.7341 8.31812 18.843C8.31068 18.8329 8.30281 18.8233 8.29453 18.8141C8.20452 18.6972 8.09518 18.6434 7.96652 18.6527C7.4031 18.7033 6.83169 18.7534 6.2523 18.8032C5.6729 18.8529 5.0792 18.8699 4.47119 18.854C4.48111 18.0535 4.49772 17.1251 4.52103 16.0688C4.54434 15.0126 4.56932 13.9244 4.59598 12.8043C4.63862 11.685 4.67959 10.5976 4.71887 9.54224C4.759 8.47087 4.8 7.53574 4.84187 6.73683C5.2312 6.64508 5.65124 6.57898 6.10197 6.53851C6.51105 6.48986 12.3465 6.35765 14.0791 6.31852C13.7742 6.75634 13.5165 7.15286 13.306 7.50808C12.8953 8.15341 12.5946 8.65941 12.404 9.02608C12.228 9.39274 12.1033 9.57608 12.03 9.57608C12.0006 9.57608 11.9713 9.48808 11.942 9.31208C11.7513 9.76674 11.5606 10.1774 11.37 10.5441C11.194 10.9107 11.018 11.2334 10.842 11.5121C10.49 12.0694 10.182 12.3481 9.91797 12.3481C9.65397 12.3481 9.38997 11.7907 9.12597 10.6761C9.0233 10.2067 8.78864 9.88408 8.42197 9.70808L8.35597 9.68608C8.29731 9.68608 8.2093 9.72274 8.09197 9.79608C8.0333 9.82541 7.9893 9.85474 7.95997 9.88408C7.93064 9.91341 7.90131 9.92808 7.87197 9.92808H7.84997L7.45397 9.79608L7.10197 10.3241C7.05797 10.3827 6.99197 10.4121 6.90397 10.4121C6.78664 10.4121 6.70597 10.3827 6.66197 10.3241C6.57397 10.6321 6.47864 10.7861 6.37597 10.7861C6.28797 10.7861 6.1633 10.7347 6.00197 10.6321C6.0753 11.2187 6.14864 11.7027 6.22197 12.0841C6.2953 12.4654 6.3613 12.7514 6.41997 12.9421C6.50797 13.1767 6.62531 13.4994 6.77197 13.9101C6.9333 14.3207 7.10197 14.7534 7.27797 15.2081C7.46864 15.6481 7.65931 16.0514 7.84997 16.4181C7.8793 16.4767 7.91597 16.5427 7.95997 16.6161C8.00397 16.6894 8.04064 16.7627 8.06997 16.8361C8.24597 16.7334 8.39264 16.6821 8.50997 16.6821L8.68597 16.7041C8.8033 16.7481 8.86197 16.8214 8.86197 16.9241L9.36797 16.6821ZM15.0887 4.9665C15.0408 4.97475 14.9929 4.98327 14.9448 4.99205C14.6688 4.91244 14.3673 4.87766 14.0404 4.88773C13.7679 4.88947 6.31692 5.0357 5.91495 5.0627C5.51383 5.07373 5.11901 5.11712 4.73052 5.19289C4.34202 5.26866 4.00735 5.38731 3.72651 5.54883C3.44568 5.71036 3.29772 5.93492 3.28265 6.22252C3.21133 6.97182 3.14679 7.89771 3.08901 9.0002C3.03123 10.1027 2.97893 11.2535 2.9321 12.4527C2.90209 13.6368 2.88133 14.7973 2.86981 15.9342C2.85829 17.0712 2.87112 18.0492 2.90831 18.8683C2.9067 19.2046 2.96478 19.4721 3.08256 19.6705C3.20034 19.8689 3.3366 20.0203 3.49136 20.1245C3.64611 20.2288 3.80254 20.3011 3.96065 20.3414C4.11959 20.3657 4.23901 20.38 4.3189 20.3842C4.69535 20.3824 5.07956 20.3702 5.47153 20.3476C5.59958 20.3642 5.73244 20.3731 5.87012 20.3742C6.06645 20.3806 11.1904 20.2006 14.1859 20.0954C15.3455 20.0547 16.1861 20.0252 16.2984 20.022C16.6997 20.0265 17.0959 19.9985 17.487 19.9378C17.8782 19.8772 18.2172 19.7716 18.5041 19.6211C18.791 19.4706 18.9475 19.2519 18.9738 18.9651C19.0741 18.2192 19.1745 17.2965 19.275 16.1971C19.3755 15.0977 19.4724 13.9497 19.5657 12.7532C19.6416 11.5712 19.7074 10.4124 19.763 9.27676C19.8186 8.14111 19.8437 7.16334 19.8383 6.34344C19.853 6.00738 19.8053 5.73791 19.6953 5.53505C19.5853 5.3322 19.455 5.17567 19.3045 5.0655C19.1539 4.95534 19.0003 4.87704 18.8439 4.8306C18.686 4.80011 18.5673 4.78121 18.4876 4.77393C18.477 4.77357 18.4664 4.77322 18.4558 4.77287C18.5494 4.65902 18.6295 4.56609 18.696 4.49408C19.356 3.73141 19.884 3.13741 20.28 2.71208C20.676 2.27208 20.9693 1.94208 21.16 1.72208C21.3653 1.48741 21.512 1.31141 21.6 1.19408C21.7173 1.03274 21.8126 0.893409 21.886 0.776075C21.9593 0.658742 21.996 0.556076 21.996 0.468076C21.996 0.409409 21.9813 0.350742 21.952 0.292075C21.9226 0.218742 21.8786 0.182076 21.82 0.182076C21.7173 0.182076 21.5486 0.262742 21.314 0.424076L21.49 0.0280762L20.742 0.468076L20.786 0.160076C20.7713 0.218742 20.698 0.314076 20.566 0.446076C20.434 0.578076 20.346 0.644076 20.302 0.644076C20.2433 0.644076 20.214 0.585409 20.214 0.468076V0.380075L19.598 0.688076C19.5393 0.688076 19.51 0.658742 19.51 0.600075C19.51 0.570742 19.5173 0.519409 19.532 0.446076C19.5613 0.358075 19.5833 0.262742 19.598 0.160076C19.2753 0.512076 18.8353 0.878742 18.278 1.26008C18.1313 1.36274 17.904 1.58274 17.596 1.92008C17.288 2.25741 16.936 2.66074 16.54 3.13008C16.1586 3.59941 15.7626 4.09808 15.352 4.62608C15.2632 4.74023 15.1754 4.85371 15.0887 4.9665Z" fill="black"/>
</svg>
