<svg width="23" height="17" viewBox="0 0 23 17" fill="none" xmlns="http://www.w3.org/2000/svg">
<path fill-rule="evenodd" clip-rule="evenodd" d="M7.54243 16.2377L7.95858 16.2311C8.23451 16.324 8.53841 16.3718 8.87026 16.3745C9.06659 16.3808 14.1905 16.2009 17.186 16.0956C18.3456 16.0549 19.1862 16.0254 19.2986 16.0222C19.6998 16.0268 20.096 15.9987 20.4872 15.9381C20.8783 15.8774 21.2173 15.7719 21.5042 15.6213C21.7911 15.4708 21.9477 15.2522 21.9739 14.9654C22.0742 14.2194 22.1746 13.2967 22.2751 12.1973C22.3756 11.0979 22.4725 9.94995 22.5658 8.75347C22.6418 7.57147 22.7075 6.41265 22.7631 5.277C22.8187 4.14135 22.8439 3.16357 22.8385 2.34368C22.8531 2.00762 22.8055 1.73814 22.6955 1.53529C22.5855 1.33243 22.4552 1.17591 22.3046 1.06574C22.154 0.955572 22.0005 0.877273 21.8441 0.830841C21.6862 0.800342 21.5674 0.781451 21.4877 0.774168C20.9272 0.755057 20.3484 0.758389 19.7516 0.784165C19.5768 0.791718 18.5416 0.803249 17.1493 0.81876C14.5071 0.848195 10.5785 0.891959 8.80224 0.950052C6.63578 0.993947 4.14281 1.04757 3.91495 1.06287C3.51383 1.07389 3.11902 1.11729 2.73052 1.19306C2.34202 1.26883 2.00735 1.38748 1.72651 1.549C1.44568 1.71052 1.29772 1.93509 1.28265 2.22269C1.21133 2.97199 1.14679 3.89788 1.08901 5.00037C1.03123 6.10285 0.978928 7.25369 0.932103 8.45288C0.902093 9.63694 0.881329 10.7974 0.86981 11.9344C0.85829 13.0713 0.871122 14.0494 0.908306 14.8684C0.906699 15.2048 0.964783 15.4722 1.08256 15.6707C1.20034 15.8691 1.3366 16.0205 1.49136 16.1247C1.64611 16.2289 1.80254 16.3012 1.96065 16.3416C2.11959 16.3659 2.23901 16.3802 2.3189 16.3844C2.87981 16.3817 3.45795 16.3559 4.05333 16.307C4.26323 16.2898 5.71834 16.2667 7.54229 16.2377L7.54243 16.2377ZM19.1689 14.5403C19.0068 14.5532 17.7244 14.6051 16.0977 14.6673C16.0564 14.6543 16.0127 14.6495 15.9665 14.6529C15.6833 14.6783 12.8707 14.7036 10.0699 14.7288C7.29939 14.7538 4.54042 14.7786 4.2523 14.8034C3.6729 14.8531 3.0792 14.87 2.47119 14.8542C2.48111 14.0536 2.49772 13.1252 2.52103 12.069C2.54434 11.0128 2.56932 9.92458 2.59598 8.80444C2.63862 7.68514 2.67959 6.5978 2.71887 5.54241C2.74285 4.90216 2.76714 4.31056 2.79175 3.76762C3.18202 4.1566 3.58076 4.56093 3.86068 4.86196C4.61248 5.67043 5.40282 6.50859 6.2317 7.37647C7.06141 8.22173 7.88063 9.04397 8.68937 9.84318C9.49811 10.6424 10.2096 11.3135 10.8239 11.8566C11.0644 12.0918 11.2969 12.2361 11.5214 12.2895C11.7459 12.343 11.9494 12.3504 12.1319 12.3117C12.3145 12.2731 12.4752 12.211 12.6142 12.1255C12.7423 12.0282 12.8356 11.9524 12.8942 11.8979C13.2825 11.4931 13.6661 11.0599 14.0452 10.5981C14.3291 10.2523 18.9309 5.60096 21.2231 3.28781C21.1926 3.83708 21.1577 4.43396 21.1184 5.07845C21.0541 6.13298 20.9869 7.21937 20.9168 8.33764C20.8308 9.45444 20.7477 10.5394 20.6675 11.5924C20.5859 12.6615 20.5086 13.5943 20.4358 14.391C20.0432 14.4676 19.6209 14.5173 19.1689 14.5403ZM20.2838 2.26246C17.9845 4.52695 13.3784 9.07169 13.1034 9.40915C12.7361 9.85997 12.3352 10.2983 11.9009 10.724C11.3327 10.16 10.6773 9.50216 9.93476 8.75064C9.19221 7.99911 8.42788 7.22415 7.64176 6.42576C6.86735 5.61647 6.11473 4.83062 5.38391 4.0682C5.00096 3.66852 4.36578 3.06028 3.8409 2.56538C3.92675 2.5555 4.01377 2.5466 4.10197 2.53868C4.47473 2.49435 9.35306 2.38064 11.5272 2.33119C12.2397 2.32736 12.9998 2.32355 13.7571 2.31975H13.7571C16.5004 2.30599 19.2085 2.2924 19.4945 2.279C19.755 2.26678 20.0181 2.26127 20.2838 2.26246Z" fill="#141414"/>
</svg>
