<svg width="18" height="17" viewBox="0 0 18 17" fill="none" xmlns="http://www.w3.org/2000/svg">
<path fill-rule="evenodd" clip-rule="evenodd" d="M3.47151 16.3474C3.07954 16.37 2.69533 16.3822 2.31888 16.384C2.23899 16.3798 2.11958 16.3655 1.96063 16.3411C1.80253 16.3008 1.6461 16.2285 1.49134 16.1243C1.33658 16.02 1.20032 15.8687 1.08254 15.6703C0.964765 15.4718 0.906681 15.2044 0.908288 14.868C0.871104 14.0489 0.858272 13.0709 0.869791 11.934C0.881311 10.797 0.902075 9.63652 0.932085 8.45247C0.97891 7.25328 1.03121 6.10244 1.08899 4.99995C1.14677 3.89747 1.21132 2.97157 1.28263 2.22228C1.2977 1.93467 1.44566 1.71011 1.7265 1.54859C2.00733 1.38707 2.342 1.26842 2.7305 1.19265C3.119 1.11688 3.51381 1.07348 3.91494 1.06246C4.3169 1.03546 11.7679 0.889225 12.0404 0.887483C12.3673 0.877416 12.6688 0.912192 12.9448 0.991807C13.5664 0.878234 14.1686 0.808858 14.7515 0.783685C15.3483 0.757909 15.927 0.754577 16.4876 0.773688C16.5673 0.780971 16.686 0.799862 16.8439 0.830361C17.0003 0.876793 17.1538 0.955092 17.3044 1.06526C17.455 1.17543 17.5853 1.33195 17.6953 1.53481C17.8053 1.73766 17.853 2.00714 17.8383 2.3432C17.8437 3.16309 17.8186 4.14087 17.763 5.27652C17.7074 6.41217 17.6416 7.57099 17.5657 8.75299C17.4724 9.94946 17.3755 11.0974 17.275 12.1968C17.1745 13.2962 17.0741 14.2189 16.9737 14.9649C16.9475 15.2517 16.791 15.4704 16.5041 15.6209C16.2172 15.7714 15.8782 15.8769 15.487 15.9376C15.0959 15.9982 14.6997 16.0263 14.2984 16.0217C14.186 16.0249 13.3454 16.0544 12.1859 16.0952C9.1904 16.2004 4.06643 16.3803 3.8701 16.374C3.73242 16.3729 3.59956 16.364 3.47151 16.3474ZM6.3181 14.8428C9.39679 14.7339 13.8568 14.5647 14.1688 14.5398C14.6208 14.5168 15.043 14.4671 15.4356 14.3905C15.5085 13.5938 15.5857 12.661 15.6674 11.592C15.7476 10.5389 15.8307 9.45396 15.9167 8.33716C15.9868 7.21889 16.054 6.1325 16.1182 5.07797C16.1825 4.02344 16.2351 3.09638 16.2761 2.29679C15.6691 2.25737 15.0752 2.25128 14.4943 2.27852C13.9134 2.30575 13.3405 2.33371 12.7755 2.3624C12.7006 2.36489 12.633 2.34634 12.5728 2.30676C12.5628 2.30721 12.5528 2.30753 12.5427 2.30772C12.4946 2.30889 12.3515 2.31212 12.1353 2.31701C10.4767 2.35446 4.51557 2.48907 4.10195 2.53827C3.65122 2.57873 3.23118 2.64484 2.84185 2.73659C2.79998 3.53549 2.75898 4.47063 2.71886 5.542C2.67957 6.59739 2.6386 7.68473 2.59597 8.80403C2.56931 9.92417 2.54432 11.0124 2.52101 12.0686C2.4977 13.1248 2.48109 14.0532 2.47117 14.8538C3.07918 14.8696 3.67288 14.8527 4.25228 14.8029C4.83167 14.7532 5.40308 14.703 5.9665 14.6524C6.09517 14.6432 6.2045 14.697 6.29451 14.8138C6.30279 14.823 6.31066 14.8327 6.3181 14.8428Z" fill="black"/>
</svg>
