<svg width="24" height="24" viewBox="0 0 24 24" fill="none" xmlns="http://www.w3.org/2000/svg">
<path fill-rule="evenodd" clip-rule="evenodd" d="M12 0C18.6269 0 24 5.37308 24 12C24 17.9907 19.6125 22.9553 13.875 23.8549V15.4696H16.6711L16.6712 15.4695L17.2028 12H13.875V9.74883C13.875 9.03736 14.1362 8.33824 14.8965 8.03334C15.1259 7.94132 15.4008 7.88523 15.7275 7.87551C15.7613 7.87451 15.7957 7.874 15.8307 7.874H17.3444L17.3445 7.87399V4.92081C17.3445 4.92081 15.9709 4.68625 14.658 4.68625C12.4071 4.68625 10.796 5.80641 10.2921 7.87377C10.1824 8.32354 10.1252 8.81811 10.1252 9.35565V12H7.07764V12H7.07749V15.4696H10.1252V23.8549C4.38757 22.9537 0 17.989 0 12C0 5.37308 5.37308 0 12 0Z" fill="#FEFEFE"/>
</svg>

