<svg width="24" height="24" viewBox="0 0 24 24" fill="none" xmlns="http://www.w3.org/2000/svg">
<g clip-path="url(#clip0)">
<path d="M23.9873 12.2245C23.9873 11.2412 23.9057 10.5237 23.729 9.7796H12.239V14.2176H18.9833C18.8474 15.3205 18.1132 16.9814 16.4814 18.0975L16.4585 18.2461L20.0915 20.9963L20.3431 21.0209C22.6547 18.9347 23.9873 15.8653 23.9873 12.2245Z" fill="#4285F4"/>
<path d="M12.239 23.9176C15.5432 23.9176 18.3171 22.8545 20.3432 21.0209L16.4814 18.0976C15.448 18.8018 14.0611 19.2935 12.239 19.2935C9.00281 19.2935 6.25612 17.2074 5.277 14.324L5.13348 14.3359L1.35592 17.1927L1.30652 17.3269C3.31894 21.2334 7.45262 23.9176 12.239 23.9176Z" fill="#34A853"/>
<path d="M5.27702 14.324C5.01867 13.5799 4.86916 12.7826 4.86916 11.9588C4.86916 11.1349 5.01867 10.3377 5.26343 9.59359L5.25659 9.43511L1.4317 6.53239L1.30655 6.59056C0.47714 8.21166 0.0012207 10.0321 0.0012207 11.9588C0.0012207 13.8855 0.47714 15.7058 1.30655 17.3269L5.27702 14.324Z" fill="#FBBC05"/>
<path d="M12.239 4.62402C14.5369 4.62402 16.087 5.59401 16.9709 6.4046L20.4247 3.10928C18.3035 1.18259 15.5431 0 12.239 0C7.4526 0 3.31894 2.68406 1.30652 6.59055L5.26339 9.59357C6.2561 6.71019 9.00279 4.62402 12.239 4.62402Z" fill="#EB4335"/>
</g>
<defs>
<clipPath id="clip0">
<rect width="24" height="24" fill="white"/>
</clipPath>
</defs>
</svg>

