<svg width="20" height="5" viewBox="0 0 20 5" fill="none" xmlns="http://www.w3.org/2000/svg">
<path d="M0.941895 2.48831C0.941895 1.79764 1.1099 1.3123 1.4459 1.0323C1.7819 0.752305 2.18323 0.612305 2.64989 0.612305C3.13523 0.612305 3.5459 0.752305 3.8819 1.0323C4.23656 1.3123 4.41389 1.79764 4.41389 2.48831C4.41389 3.16031 4.23656 3.64564 3.8819 3.94431C3.5459 4.24297 3.13523 4.39231 2.64989 4.39231C2.18323 4.39231 1.7819 4.24297 1.4459 3.94431C1.1099 3.64564 0.941895 3.16031 0.941895 2.48831ZM8.2779 2.48831C8.2779 1.79764 8.4459 1.3123 8.7819 1.0323C9.1179 0.752305 9.51923 0.612305 9.98589 0.612305C10.4712 0.612305 10.8819 0.752305 11.2179 1.0323C11.5726 1.3123 11.7499 1.79764 11.7499 2.48831C11.7499 3.16031 11.5726 3.64564 11.2179 3.94431C10.8819 4.24297 10.4712 4.39231 9.98589 4.39231C9.51923 4.39231 9.1179 4.24297 8.7819 3.94431C8.4459 3.64564 8.2779 3.16031 8.2779 2.48831ZM15.5859 2.48831C15.5859 1.79764 15.7539 1.3123 16.0899 1.0323C16.4259 0.752305 16.8272 0.612305 17.2939 0.612305C17.7792 0.612305 18.1899 0.752305 18.5259 1.0323C18.8806 1.3123 19.0579 1.79764 19.0579 2.48831C19.0579 3.16031 18.8806 3.64564 18.5259 3.94431C18.1899 4.24297 17.7792 4.39231 17.2939 4.39231C16.8272 4.39231 16.4259 4.24297 16.0899 3.94431C15.7539 3.64564 15.5859 3.16031 15.5859 2.48831Z" fill="black"/>
</svg>
