<svg width="16" height="17" viewBox="0 0 16 17" fill="none" xmlns="http://www.w3.org/2000/svg">
<path d="M3.47795 16.9681C3.47795 16.7774 3.44129 16.6821 3.36795 16.6821L2.86195 16.9241C2.86195 16.8214 2.80329 16.7481 2.68595 16.7041L2.50995 16.6821C2.39262 16.6821 2.24595 16.7334 2.06995 16.8361C2.04062 16.7627 2.00395 16.6894 1.95995 16.6161C1.91595 16.5427 1.87929 16.4767 1.84995 16.4181C1.65929 16.0514 1.46862 15.6481 1.27795 15.2081C1.10195 14.7534 0.933287 14.3207 0.771954 13.9101C0.625287 13.4994 0.507953 13.1767 0.419953 12.9421C0.361287 12.7514 0.295287 12.4654 0.221953 12.0841C0.14862 11.7027 0.0752864 11.2187 0.00195312 10.6321C0.163286 10.7347 0.287954 10.7861 0.375954 10.7861C0.47862 10.7861 0.573953 10.6321 0.661953 10.3241C0.705953 10.3827 0.78662 10.4121 0.903954 10.4121C0.991953 10.4121 1.05795 10.3827 1.10195 10.3241L1.45395 9.79608L1.84995 9.92808H1.87195C1.90129 9.92808 1.93062 9.91341 1.95995 9.88408C1.98929 9.85474 2.03329 9.82541 2.09195 9.79608C2.20929 9.72274 2.29729 9.68608 2.35595 9.68608L2.42195 9.70808C2.78862 9.88408 3.02329 10.2067 3.12595 10.6761C3.38995 11.7907 3.65395 12.3481 3.91795 12.3481C4.18195 12.3481 4.48995 12.0694 4.84195 11.5121C5.01795 11.2334 5.19395 10.9107 5.36995 10.5441C5.56062 10.1774 5.75129 9.76674 5.94195 9.31208C5.97129 9.48808 6.00062 9.57608 6.02995 9.57608C6.10329 9.57608 6.22795 9.39274 6.40395 9.02608C6.59462 8.65941 6.89529 8.15341 7.30595 7.50808C7.54062 7.11208 7.83395 6.66474 8.18595 6.16608C8.55262 5.66741 8.94129 5.15408 9.35195 4.62608C9.76262 4.09808 10.1586 3.59941 10.54 3.13008C10.936 2.66074 11.288 2.25741 11.596 1.92008C11.904 1.58274 12.1313 1.36274 12.278 1.26008C12.8353 0.878742 13.2753 0.512076 13.598 0.160076C13.5833 0.262742 13.5613 0.358075 13.532 0.446076C13.5173 0.519409 13.51 0.570742 13.51 0.600075C13.51 0.658742 13.5393 0.688076 13.598 0.688076L14.214 0.380075V0.468076C14.214 0.585409 14.2433 0.644076 14.302 0.644076C14.346 0.644076 14.434 0.578076 14.566 0.446076C14.698 0.314076 14.7713 0.218742 14.786 0.160076L14.742 0.468076L15.49 0.0280762L15.314 0.424076C15.5486 0.262742 15.7173 0.182076 15.82 0.182076C15.8786 0.182076 15.9226 0.218742 15.952 0.292075C15.9813 0.350742 15.996 0.409409 15.996 0.468076C15.996 0.556076 15.9593 0.658742 15.886 0.776075C15.8126 0.893409 15.7173 1.03274 15.6 1.19408C15.512 1.31141 15.3653 1.48741 15.16 1.72208C14.9693 1.94208 14.676 2.27208 14.28 2.71208C13.884 3.13741 13.356 3.73141 12.696 4.49408C12.52 4.68474 12.2486 5.02208 11.882 5.50608C11.5153 5.97541 11.0973 6.52541 10.628 7.15608C10.1733 7.77208 9.71862 8.39541 9.26395 9.02608C8.80929 9.65674 8.40595 10.2287 8.05395 10.7421C7.70195 11.2407 7.45262 11.6147 7.30595 11.8641L5.94195 14.1741C5.64862 14.6727 5.40662 15.0834 5.21595 15.4061C5.02529 15.7141 4.87862 15.9267 4.77595 16.0441C4.55595 16.3081 4.31395 16.5427 4.04995 16.7481L3.85195 16.6381L3.67595 16.7481L3.47795 16.9681Z" fill="black"/>
</svg>
