<?xml version="1.0" encoding="utf-8"?>
<!-- Generator: Adobe Illustrator 25.4.1, SVG Export Plug-In . SVG Version: 6.00 Build 0)  -->
<svg version="1.1" id="Calque_1" xmlns="http://www.w3.org/2000/svg" xmlns:xlink="http://www.w3.org/1999/xlink" x="0px" y="0px"
	 viewBox="0 0 1534.17 1113.69" style="enable-background:new 0 0 1534.17 1113.69;" xml:space="preserve">
<style type="text/css">
	.st0{fill:#FFFFFF;}
	.st1{filter:url(#Adobe_OpacityMaskFilter);}
	.st2{mask:url(#SVGID_1_);fill:#FFFFFF;}
	.st3{fill:#EDEDED;}
</style>
<g>
	<g>
		<path class="st0" d="M121.37,123.19c0-3.23,1.38-5.39,3.45-5.39h41.47c2.42,0,4.49,1.62,5.87,5.39l82.93,230.53h1.73V123.19
			c0-3.23,1.38-5.39,3.45-5.39h39.05c2.07,0,3.45,2.15,3.45,5.39v355.5c0,3.23-1.38,5.39-3.45,5.39h-41.12
			c-2.77,0-4.49-1.62-5.88-5.39l-83.28-229.99h-1.73v229.99c0,3.23-1.38,5.39-3.46,5.39h-39.05c-2.07,0-3.45-2.16-3.45-5.39V123.19z
			"/>
		<path class="st0" d="M350.49,123.19c0-3.23,1.36-5.39,3.41-5.39h148.8c2.05,0,3.41,2.15,3.41,5.39v57.64
			c0,3.23-1.37,5.39-3.41,5.39h-100c-1.37,0-2.05,1.08-2.05,3.23v72.72c0,2.15,0.68,3.23,2.05,3.23h83.28
			c2.05,0,3.41,2.15,3.41,5.39v57.1c0,3.23-1.37,5.39-3.41,5.39H402.7c-1.37,0-2.05,1.08-2.05,3.23v75.95
			c0,2.15,0.68,3.23,2.05,3.23h100c2.05,0,3.41,2.15,3.41,5.39v57.63c0,3.23-1.37,5.39-3.41,5.39H353.9c-2.05,0-3.41-2.16-3.41-5.39
			V123.19z"/>
		<path class="st0" d="M548.71,349.42V123.19c0-3.23,1.47-5.39,3.67-5.39h46.59c2.2,0,3.67,2.15,3.67,5.39v228.38
			c0,43.63,16.51,68.41,41.82,68.41c24.95,0,41.45-24.78,41.45-68.41V123.19c0-3.23,1.47-5.39,3.67-5.39h46.59
			c2.2,0,3.67,2.15,3.67,5.39v226.23c0,91.03-39.62,140.58-95.38,140.58C588.33,490,548.71,440.45,548.71,349.42z"/>
		<path class="st0" d="M786.57,123.19c0-3.23,1.38-5.39,3.45-5.39h43.89c2.07,0,3.45,2.15,3.45,5.39v355.5
			c0,3.23-1.38,5.39-3.45,5.39h-43.89c-2.07,0-3.45-2.16-3.45-5.39V123.19z"/>
		<path class="st0" d="M885.51,123.19c0-3.23,1.38-5.39,3.45-5.39h43.89c2.07,0,3.46,2.15,3.46,5.39v287.09
			c0,2.16,0.69,3.23,2.07,3.23h103.67c2.07,0,3.45,2.16,3.45,5.39v59.79c0,3.23-1.38,5.39-3.45,5.39H888.96
			c-2.07,0-3.45-2.16-3.45-5.39V123.19z"/>
		<path class="st0" d="M1080.66,123.19c0-3.23,1.38-5.39,3.45-5.39H1128c2.07,0,3.46,2.15,3.46,5.39v287.09
			c0,2.16,0.69,3.23,2.07,3.23h103.67c2.07,0,3.45,2.16,3.45,5.39v59.79c0,3.23-1.38,5.39-3.45,5.39h-153.08
			c-2.07,0-3.45-2.16-3.45-5.39V123.19z"/>
		<path class="st0" d="M1283.56,484.08c-2.07,0-3.45-2.16-3.45-5.39V338.11l-69.46-214.91c-0.69-2.69,0-5.39,2.42-5.39h44.92
			c2.42,0,4.15,1.62,5.18,5.39l42.5,133.58h1.04l42.5-133.58c1.04-3.77,2.76-5.39,5.18-5.39h43.54c2.42,0,3.46,2.69,2.42,5.39
			l-69.46,214.91v140.58c0,3.23-1.38,5.39-3.46,5.39H1283.56z"/>
	</g>
	<g>
		<path class="st0" d="M552.19,1048.77H116.46V577.04h435.73V1048.77z M143.26,1021.96h382.11V603.85H143.26V1021.96z"/>
		<defs>
			<filter id="Adobe_OpacityMaskFilter" filterUnits="userSpaceOnUse" x="315.47" y="942.95" width="0" height="0">
				<feFlood  style="flood-color:white;flood-opacity:1" result="back"/>
				<feBlend  in="SourceGraphic" in2="back" mode="normal"/>
			</filter>
		</defs>
		<mask maskUnits="userSpaceOnUse" x="315.47" y="942.95" width="0" height="0" id="SVGID_1_">
			<g class="st1">
			</g>
		</mask>
		<path class="st2" d="M315.47,942.95"/>
		<path class="st0" d="M601.08,894.34c-7.19-29.84-9.1-53.97-9.1-118.1c0-64.13,1.92-88.26,9.1-118.1
			c16.77-69.84,61.81-104.76,118.83-104.76c57.02,0,102.07,34.92,118.84,104.76c7.19,29.84,9.1,53.97,9.1,118.1
			c0,64.13-1.92,88.25-9.1,118.1c-16.77,69.84-61.81,104.76-118.84,104.76C662.89,999.1,617.85,964.18,601.08,894.34z
			 M771.18,868.94c3.83-15.24,5.27-36.19,5.27-92.7c0-56.51-1.44-77.46-5.27-92.7c-7.19-29.84-24.44-47.62-51.27-47.62
			c-26.83,0-44.08,17.78-51.27,47.62c-3.83,15.24-5.27,36.19-5.27,92.7c0,56.51,1.44,77.46,5.27,92.7
			c7.19,29.84,24.44,47.62,51.27,47.62C746.74,916.56,764,898.78,771.18,868.94z"/>
		<path class="st0" d="M974.82,997.11c-2.87,0-4.79-2.54-4.79-6.35V652.35c0-2.54-0.96-3.81-2.88-3.81h-82.42
			c-2.88,0-4.79-2.54-4.79-6.35v-70.48c0-3.81,1.92-6.35,4.79-6.35h241.03c2.87,0,4.79,2.54,4.79,6.35v70.48
			c0,3.81-1.92,6.35-4.79,6.35h-82.42c-1.92,0-2.87,1.27-2.87,3.81v338.42c0,3.81-1.92,6.35-4.79,6.35H974.82z"/>
		<path class="st0" d="M1178.62,571.71c0-3.81,1.92-6.35,4.79-6.35h208.92c2.87,0,4.79,2.54,4.79,6.35v67.94
			c0,3.81-1.92,6.35-4.79,6.35h-140.4c-1.92,0-2.87,1.27-2.87,3.81v85.71c0,2.54,0.96,3.81,2.87,3.81h116.92
			c2.88,0,4.79,2.54,4.79,6.35v67.3c0,3.81-1.92,6.35-4.79,6.35h-116.92c-1.92,0-2.87,1.27-2.87,3.81v89.52
			c0,2.54,0.96,3.81,2.87,3.81h140.4c2.87,0,4.79,2.54,4.79,6.35v67.94c0,3.81-1.92,6.35-4.79,6.35h-208.92
			c-2.87,0-4.79-2.54-4.79-6.35V571.71z"/>
		<g>
			<path class="st3" d="M298.44,994.22c-3.55,0-5.57-2.03-6.59-5.07L180.38,653.16c-1.01-3.55,1.01-5.57,4.56-5.57h70.3
				c3.55,0,5.57,1.52,6.59,5.07l70.93,228.04h1.52l142.01-431.84c1.01-3.55,3.04-5.07,6.59-5.07h70.9c3.04,0,5.07,2.03,4.05,5.57
				L380.97,989.15c-1.01,3.04-3.04,5.07-6.08,5.07H298.44z"/>
		</g>
	</g>
</g>
</svg>
