<svg width="154" height="40" viewBox="0 0 154 40" fill="none" xmlns="http://www.w3.org/2000/svg">
<path d="M2.448 28C2.288 28 2.152 27.944 2.04 27.832C1.928 27.72 1.872 27.584 1.872 27.424V11.8C1.872 11.624 1.92 11.48 2.016 11.368C2.128 11.256 2.272 11.2 2.448 11.2H13.008C13.184 11.2 13.328 11.256 13.44 11.368C13.552 11.48 13.608 11.624 13.608 11.8V13.384C13.608 13.56 13.552 13.704 13.44 13.816C13.328 13.912 13.184 13.96 13.008 13.96H5.112V18.208H12.48C12.656 18.208 12.8 18.264 12.912 18.376C13.024 18.472 13.08 18.608 13.08 18.784V20.272C13.08 20.448 13.024 20.592 12.912 20.704C12.8 20.8 12.656 20.848 12.48 20.848H5.112V25.24H13.2C13.376 25.24 13.52 25.296 13.632 25.408C13.744 25.52 13.8 25.664 13.8 25.84V27.424C13.8 27.6 13.744 27.744 13.632 27.856C13.52 27.952 13.376 28 13.2 28H2.448ZM18.3377 28C18.1777 28 18.0417 27.944 17.9297 27.832C17.8177 27.72 17.7617 27.584 17.7617 27.424V11.776C17.7617 11.6 17.8177 11.464 17.9297 11.368C18.0417 11.256 18.1777 11.2 18.3377 11.2H20.5697C20.7457 11.2 20.8817 11.256 20.9777 11.368C21.0897 11.464 21.1457 11.6 21.1457 11.776V25.144H28.7537C28.9297 25.144 29.0737 25.2 29.1857 25.312C29.2977 25.424 29.3537 25.568 29.3537 25.744V27.424C29.3537 27.6 29.2977 27.744 29.1857 27.856C29.0737 27.952 28.9297 28 28.7537 28H18.3377ZM33.2196 28C33.0596 28 32.9236 27.944 32.8116 27.832C32.6996 27.72 32.6436 27.584 32.6436 27.424V11.8C32.6436 11.624 32.6916 11.48 32.7876 11.368C32.8996 11.256 33.0436 11.2 33.2196 11.2H43.7796C43.9556 11.2 44.0996 11.256 44.2116 11.368C44.3236 11.48 44.3796 11.624 44.3796 11.8V13.384C44.3796 13.56 44.3236 13.704 44.2116 13.816C44.0996 13.912 43.9556 13.96 43.7796 13.96H35.8836V18.208H43.2516C43.4276 18.208 43.5716 18.264 43.6836 18.376C43.7956 18.472 43.8516 18.608 43.8516 18.784V20.272C43.8516 20.448 43.7956 20.592 43.6836 20.704C43.5716 20.8 43.4276 20.848 43.2516 20.848H35.8836V25.24H43.9716C44.1476 25.24 44.2916 25.296 44.4036 25.408C44.5156 25.52 44.5716 25.664 44.5716 25.84V27.424C44.5716 27.6 44.5156 27.744 44.4036 27.856C44.2916 27.952 44.1476 28 43.9716 28H33.2196ZM54.8726 28.24C52.6646 28.24 50.9526 27.672 49.7366 26.536C48.5366 25.4 47.8966 23.8 47.8166 21.736C47.8006 21.304 47.7926 20.6 47.7926 19.624C47.7926 18.632 47.8006 17.912 47.8166 17.464C47.8966 15.416 48.5446 13.824 49.7606 12.688C50.9926 11.536 52.6966 10.96 54.8726 10.96C56.2966 10.96 57.5366 11.208 58.5926 11.704C59.6486 12.184 60.4646 12.848 61.0406 13.696C61.6166 14.528 61.9206 15.472 61.9526 16.528V16.576C61.9526 16.704 61.8966 16.816 61.7846 16.912C61.6886 16.992 61.5766 17.032 61.4486 17.032H59.1686C58.9766 17.032 58.8326 16.992 58.7366 16.912C58.6406 16.832 58.5606 16.68 58.4966 16.456C58.2406 15.448 57.8166 14.744 57.2246 14.344C56.6326 13.928 55.8406 13.72 54.8486 13.72C52.5446 13.72 51.3446 15.008 51.2486 17.584C51.2326 18.016 51.2246 18.68 51.2246 19.576C51.2246 20.472 51.2326 21.152 51.2486 21.616C51.3446 24.192 52.5446 25.48 54.8486 25.48C55.8406 25.48 56.6326 25.272 57.2246 24.856C57.8326 24.44 58.2566 23.736 58.4966 22.744C58.5446 22.52 58.6166 22.368 58.7126 22.288C58.8246 22.208 58.9766 22.168 59.1686 22.168H61.4486C61.5926 22.168 61.7126 22.216 61.8086 22.312C61.9206 22.408 61.9686 22.528 61.9526 22.672C61.9206 23.728 61.6166 24.68 61.0406 25.528C60.4646 26.36 59.6486 27.024 58.5926 27.52C57.5366 28 56.2966 28.24 54.8726 28.24ZM70.0309 28C69.8709 28 69.7349 27.944 69.6229 27.832C69.5109 27.72 69.4549 27.584 69.4549 27.424V14.152H65.0149C64.8549 14.152 64.7189 14.096 64.6069 13.984C64.4949 13.872 64.4389 13.736 64.4389 13.576V11.8C64.4389 11.624 64.4869 11.48 64.5829 11.368C64.6949 11.256 64.8389 11.2 65.0149 11.2H77.2549C77.4309 11.2 77.5749 11.256 77.6869 11.368C77.7989 11.48 77.8549 11.624 77.8549 11.8V13.576C77.8549 13.736 77.7989 13.872 77.6869 13.984C77.5749 14.096 77.4309 14.152 77.2549 14.152H72.8389V27.424C72.8389 27.584 72.7829 27.72 72.6709 27.832C72.5589 27.944 72.4149 28 72.2389 28H70.0309ZM81.8261 28C81.6661 28 81.5301 27.944 81.4181 27.832C81.3061 27.72 81.2501 27.584 81.2501 27.424V11.776C81.2501 11.6 81.3061 11.464 81.4181 11.368C81.5301 11.256 81.6661 11.2 81.8261 11.2H84.0821C84.2581 11.2 84.3941 11.256 84.4901 11.368C84.6021 11.464 84.6581 11.6 84.6581 11.776V27.424C84.6581 27.584 84.6021 27.72 84.4901 27.832C84.3941 27.944 84.2581 28 84.0821 28H81.8261ZM95.214 28.24C93.79 28.24 92.566 28.024 91.542 27.592C90.518 27.16 89.742 26.592 89.214 25.888C88.686 25.184 88.406 24.424 88.374 23.608C88.374 23.464 88.422 23.344 88.518 23.248C88.614 23.152 88.734 23.104 88.878 23.104H91.014C91.206 23.104 91.35 23.144 91.446 23.224C91.558 23.288 91.662 23.4 91.758 23.56C91.918 24.104 92.286 24.56 92.862 24.928C93.438 25.296 94.222 25.48 95.214 25.48C96.35 25.48 97.206 25.296 97.782 24.928C98.358 24.544 98.646 24.016 98.646 23.344C98.646 22.896 98.494 22.528 98.19 22.24C97.902 21.952 97.462 21.704 96.87 21.496C96.294 21.288 95.43 21.032 94.278 20.728C92.39 20.28 91.006 19.688 90.126 18.952C89.262 18.2 88.83 17.136 88.83 15.76C88.83 14.832 89.078 14.008 89.574 13.288C90.086 12.568 90.814 12 91.758 11.584C92.718 11.168 93.83 10.96 95.094 10.96C96.406 10.96 97.542 11.192 98.502 11.656C99.462 12.12 100.19 12.704 100.686 13.408C101.198 14.096 101.47 14.784 101.502 15.472C101.502 15.616 101.454 15.736 101.358 15.832C101.262 15.928 101.142 15.976 100.998 15.976H98.766C98.43 15.976 98.198 15.824 98.07 15.52C97.974 15.008 97.654 14.584 97.11 14.248C96.566 13.896 95.894 13.72 95.094 13.72C94.198 13.72 93.494 13.888 92.982 14.224C92.47 14.56 92.214 15.048 92.214 15.688C92.214 16.136 92.342 16.504 92.598 16.792C92.854 17.08 93.254 17.336 93.798 17.56C94.358 17.784 95.158 18.032 96.198 18.304C97.606 18.624 98.726 18.984 99.558 19.384C100.406 19.784 101.03 20.288 101.43 20.896C101.83 21.504 102.03 22.28 102.03 23.224C102.03 24.248 101.742 25.144 101.166 25.912C100.606 26.664 99.806 27.24 98.766 27.64C97.742 28.04 96.558 28.24 95.214 28.24Z" fill="#2E2E2E"/>
<g opacity="0.4">
<path d="M110.89 27.784C110.777 28.1693 110.629 28.5207 110.448 28.838C110.267 29.1327 110.074 29.3027 109.87 29.348C109.439 29.4613 109.111 29.3933 108.884 29.144C108.657 28.8947 108.567 28.5773 108.612 28.192C108.793 26.832 109.088 25.404 109.496 23.908C109.904 22.3893 110.38 20.882 110.924 19.386C111.468 17.8673 112.057 16.4053 112.692 15C113.349 13.572 114.018 12.28 114.698 11.124C114.811 10.9427 114.936 10.8407 115.072 10.818C115.231 10.7727 115.367 10.7727 115.48 10.818C115.593 10.7273 115.729 10.648 115.888 10.58C116.047 10.512 116.205 10.478 116.364 10.478C116.432 10.478 116.5 10.4893 116.568 10.512C116.659 10.5347 116.749 10.6027 116.84 10.716C116.931 10.8293 117.033 10.9993 117.146 11.226C117.282 11.43 117.441 11.736 117.622 12.144C117.939 13.3 118.302 14.49 118.71 15.714C119.141 16.938 119.583 18.162 120.036 19.386C120.104 19.3633 120.161 19.352 120.206 19.352C120.274 19.3293 120.342 19.3067 120.41 19.284C120.659 19.2613 120.943 19.2727 121.26 19.318C121.577 19.3633 121.793 19.522 121.906 19.794C122.042 20.134 122.019 20.4287 121.838 20.678C121.657 20.9273 121.328 21.1767 120.852 21.426C121.147 22.1513 121.441 22.8653 121.736 23.568C122.031 24.248 122.337 24.9167 122.654 25.574C122.677 25.6873 122.711 25.8687 122.756 26.118C122.801 26.3447 122.824 26.5827 122.824 26.832C122.847 27.0587 122.835 27.274 122.79 27.478C122.745 27.682 122.654 27.818 122.518 27.886C122.359 27.954 122.189 27.9427 122.008 27.852C121.849 27.7613 121.691 27.648 121.532 27.512C121.373 27.3533 121.226 27.1947 121.09 27.036C120.977 26.8547 120.886 26.696 120.818 26.56C120.433 25.812 120.059 25.064 119.696 24.316C119.356 23.5453 119.027 22.7747 118.71 22.004C117.758 22.1853 116.715 22.344 115.582 22.48C114.471 22.616 113.372 22.7067 112.284 22.752C112.035 23.6133 111.785 24.4633 111.536 25.302C111.309 26.118 111.094 26.9453 110.89 27.784ZM115.718 13.504C114.675 15.8387 113.769 18.1733 112.998 20.508C114.517 20.4627 116.137 20.27 117.86 19.93C117.044 17.8673 116.33 15.7253 115.718 13.504ZM132.003 27.818C131.98 28.0673 131.901 28.3053 131.765 28.532C131.651 28.736 131.47 28.8267 131.221 28.804C130.835 28.7813 130.495 28.634 130.201 28.362C129.929 28.09 129.793 27.8633 129.793 27.682C129.815 25.71 129.747 23.704 129.589 21.664C129.453 19.6013 129.226 17.55 128.909 15.51C128.909 15.4193 128.931 15.3173 128.977 15.204C129.022 15.1133 129.079 15.0113 129.147 14.898C129.215 14.762 129.328 14.6373 129.487 14.524C129.645 14.456 129.815 14.4673 129.997 14.558C130.201 14.6487 130.393 14.7847 130.575 14.966C130.756 15.1473 130.915 15.3513 131.051 15.578C131.187 15.8047 131.289 16.02 131.357 16.224C131.425 16.6773 131.493 17.176 131.561 17.72C131.629 18.264 131.685 18.8307 131.731 19.42C132.275 19.1253 132.796 18.7967 133.295 18.434C133.793 18.0713 134.224 17.6747 134.587 17.244C134.972 16.8133 135.267 16.3713 135.471 15.918C135.675 15.442 135.743 14.9547 135.675 14.456C135.629 14.0707 135.459 13.7193 135.165 13.402C134.87 13.0847 134.417 12.8467 133.805 12.688C132.399 12.3707 131.141 12.3593 130.031 12.654C128.92 12.926 127.855 13.3907 126.835 14.048C126.54 14.2747 126.268 14.4107 126.019 14.456C125.769 14.5013 125.554 14.49 125.373 14.422C125.191 14.354 125.055 14.252 124.965 14.116C124.874 13.98 124.829 13.844 124.829 13.708C124.874 13.1867 125.123 12.722 125.577 12.314C126.053 11.8833 126.551 11.5207 127.073 11.226C127.753 10.886 128.591 10.6027 129.589 10.376C130.586 10.1493 131.583 10.07 132.581 10.138C133.601 10.1833 134.553 10.4213 135.437 10.852C136.321 11.2827 137.001 11.974 137.477 12.926C137.907 14.0593 137.998 15.0793 137.749 15.986C137.522 16.8927 137.103 17.72 136.491 18.468C135.879 19.216 135.153 19.9073 134.315 20.542C133.476 21.154 132.683 21.7207 131.935 22.242C131.98 23.2393 132.003 24.214 132.003 25.166C132.025 26.118 132.025 27.002 132.003 27.818ZM147.175 27.818C147.153 28.0673 147.073 28.3053 146.937 28.532C146.824 28.736 146.643 28.8267 146.393 28.804C146.008 28.7813 145.668 28.634 145.373 28.362C145.101 28.09 144.965 27.8633 144.965 27.682C144.988 25.71 144.92 23.704 144.761 21.664C144.625 19.6013 144.399 17.55 144.081 15.51C144.081 15.4193 144.104 15.3173 144.149 15.204C144.195 15.1133 144.251 15.0113 144.319 14.898C144.387 14.762 144.501 14.6373 144.659 14.524C144.818 14.456 144.988 14.4673 145.169 14.558C145.373 14.6487 145.566 14.7847 145.747 14.966C145.929 15.1473 146.087 15.3513 146.223 15.578C146.359 15.8047 146.461 16.02 146.529 16.224C146.597 16.6773 146.665 17.176 146.733 17.72C146.801 18.264 146.858 18.8307 146.903 19.42C147.447 19.1253 147.969 18.7967 148.467 18.434C148.966 18.0713 149.397 17.6747 149.759 17.244C150.145 16.8133 150.439 16.3713 150.643 15.918C150.847 15.442 150.915 14.9547 150.847 14.456C150.802 14.0707 150.632 13.7193 150.337 13.402C150.043 13.0847 149.589 12.8467 148.977 12.688C147.572 12.3707 146.314 12.3593 145.203 12.654C144.093 12.926 143.027 13.3907 142.007 14.048C141.713 14.2747 141.441 14.4107 141.191 14.456C140.942 14.5013 140.727 14.49 140.545 14.422C140.364 14.354 140.228 14.252 140.137 14.116C140.047 13.98 140.001 13.844 140.001 13.708C140.047 13.1867 140.296 12.722 140.749 12.314C141.225 11.8833 141.724 11.5207 142.245 11.226C142.925 10.886 143.764 10.6027 144.761 10.376C145.759 10.1493 146.756 10.07 147.753 10.138C148.773 10.1833 149.725 10.4213 150.609 10.852C151.493 11.2827 152.173 11.974 152.649 12.926C153.08 14.0593 153.171 15.0793 152.921 15.986C152.695 16.8927 152.275 17.72 151.663 18.468C151.051 19.216 150.326 19.9073 149.487 20.542C148.649 21.154 147.855 21.7207 147.107 22.242C147.153 23.2393 147.175 24.214 147.175 25.166C147.198 26.118 147.198 27.002 147.175 27.818Z" fill="black"/>
<path d="M110.89 27.784L111.13 27.8546L111.133 27.8431L110.89 27.784ZM110.448 28.838L110.661 28.9691L110.665 28.962L110.448 28.838ZM109.87 29.348L109.816 29.1038L109.806 29.1062L109.87 29.348ZM108.884 29.144L108.699 29.3122L108.884 29.144ZM108.612 28.192L108.364 28.159L108.364 28.1628L108.612 28.192ZM109.496 23.908L109.737 23.9738L109.737 23.9729L109.496 23.908ZM110.924 19.386L111.159 19.4714L111.159 19.4703L110.924 19.386ZM112.692 15L112.465 14.8955L112.464 14.8971L112.692 15ZM114.698 11.124L114.486 10.9915L114.483 10.9972L114.698 11.124ZM115.072 10.818L115.113 11.0646L115.127 11.0623L115.141 11.0584L115.072 10.818ZM115.48 10.818L115.387 11.0501L115.522 11.1042L115.636 11.0132L115.48 10.818ZM115.888 10.58L115.79 10.3502L115.79 10.3502L115.888 10.58ZM116.568 10.512L116.489 10.7492L116.498 10.7522L116.507 10.7545L116.568 10.512ZM116.84 10.716L117.035 10.5598L117.035 10.5598L116.84 10.716ZM117.146 11.226L116.922 11.3378L116.929 11.3517L116.938 11.3647L117.146 11.226ZM117.622 12.144L117.863 12.0778L117.858 12.0597L117.85 12.0425L117.622 12.144ZM118.71 15.714L118.473 15.7931L118.474 15.797L118.71 15.714ZM120.036 19.386L119.802 19.4728L119.886 19.6997L120.115 19.6232L120.036 19.386ZM120.206 19.352V19.602H120.247L120.285 19.5892L120.206 19.352ZM120.41 19.284L120.387 19.035L120.358 19.0377L120.331 19.0468L120.41 19.284ZM121.906 19.794L122.138 19.7011L122.137 19.6978L121.906 19.794ZM121.838 20.678L121.636 20.531L121.838 20.678ZM120.852 21.426L120.736 21.2045L120.535 21.3098L120.62 21.5201L120.852 21.426ZM121.736 23.568L121.505 23.6647L121.507 23.6674L121.736 23.568ZM122.654 25.574L122.899 25.525L122.893 25.4939L122.879 25.4653L122.654 25.574ZM122.756 26.118L122.51 26.1627L122.511 26.167L122.756 26.118ZM122.824 26.832H122.574V26.8445L122.575 26.8569L122.824 26.832ZM122.79 27.478L123.034 27.5322L122.79 27.478ZM122.518 27.886L122.616 28.1158L122.623 28.1129L122.63 28.1096L122.518 27.886ZM122.008 27.852L121.884 28.0694L121.896 28.0756L122.008 27.852ZM121.532 27.512L121.355 27.6888L121.362 27.6956L121.369 27.7018L121.532 27.512ZM121.09 27.036L120.878 27.1685L120.888 27.1844L120.9 27.1987L121.09 27.036ZM120.818 26.56L121.042 26.4482L121.04 26.4455L120.818 26.56ZM119.696 24.316L119.467 24.417L119.471 24.4251L119.696 24.316ZM118.71 22.004L118.941 21.9088L118.864 21.7203L118.663 21.7584L118.71 22.004ZM115.582 22.48L115.552 22.2318L115.552 22.2319L115.582 22.48ZM112.284 22.752L112.274 22.5022L112.094 22.5097L112.044 22.6825L112.284 22.752ZM111.536 25.302L111.296 25.2307L111.295 25.2351L111.536 25.302ZM115.718 13.504L115.959 13.4376L115.774 12.7657L115.49 13.4021L115.718 13.504ZM112.998 20.508L112.761 20.4296L112.649 20.7685L113.005 20.7579L112.998 20.508ZM117.86 19.93L117.908 20.1753L118.203 20.1171L118.092 19.838L117.86 19.93ZM110.65 27.7135C110.542 28.082 110.402 28.4151 110.231 28.714L110.665 28.962C110.857 28.6262 111.012 28.2567 111.13 27.8545L110.65 27.7135ZM110.235 28.707C110.067 28.98 109.922 29.0804 109.816 29.104L109.924 29.592C110.226 29.5249 110.466 29.2853 110.661 28.969L110.235 28.707ZM109.806 29.1062C109.432 29.2047 109.213 29.1337 109.069 28.9758L108.699 29.3122C109.009 29.6529 109.447 29.7179 109.934 29.5898L109.806 29.1062ZM109.069 28.9758C108.899 28.7884 108.822 28.5468 108.86 28.2212L108.364 28.1628C108.311 28.6079 108.416 29.0009 108.699 29.3122L109.069 28.9758ZM108.86 28.225C109.039 26.8774 109.332 25.4604 109.737 23.9738L109.255 23.8422C108.844 25.3476 108.547 26.7866 108.364 28.159L108.86 28.225ZM109.737 23.9729C110.144 22.4612 110.617 20.9608 111.159 19.4714L110.689 19.3006C110.143 20.8032 109.664 22.3174 109.255 23.8431L109.737 23.9729ZM111.159 19.4703C111.701 17.9576 112.288 16.5019 112.92 15.1029L112.464 14.8971C111.827 16.3088 111.235 17.777 110.689 19.3017L111.159 19.4703ZM112.919 15.1045C113.574 13.6829 114.238 12.3984 114.913 11.2508L114.483 10.9972C113.798 12.1616 113.125 13.4611 112.465 14.8955L112.919 15.1045ZM114.91 11.2565C115.006 11.1027 115.079 11.0703 115.113 11.0646L115.031 10.5714C114.793 10.611 114.617 10.7827 114.486 10.9915L114.91 11.2565ZM115.141 11.0584C115.265 11.023 115.341 11.0315 115.387 11.0501L115.573 10.5859C115.393 10.5138 115.197 10.5224 115.003 10.5776L115.141 11.0584ZM115.636 11.0132C115.729 10.939 115.845 10.8705 115.986 10.8098L115.79 10.3502C115.614 10.4255 115.458 10.5157 115.324 10.6228L115.636 11.0132ZM115.986 10.8098C116.117 10.7539 116.242 10.728 116.364 10.728V10.228C116.169 10.228 115.977 10.2701 115.79 10.3502L115.986 10.8098ZM116.364 10.728C116.404 10.728 116.445 10.7345 116.489 10.7492L116.647 10.2748C116.555 10.2441 116.46 10.228 116.364 10.228V10.728ZM116.507 10.7545C116.523 10.7584 116.571 10.7794 116.645 10.8722L117.035 10.5598C116.928 10.4259 116.795 10.311 116.629 10.2695L116.507 10.7545ZM116.645 10.8722C116.719 10.9652 116.812 11.1171 116.922 11.3378L117.37 11.1142C117.253 10.8816 117.142 10.6934 117.035 10.5598L116.645 10.8722ZM116.938 11.3647C117.062 11.551 117.214 11.8418 117.394 12.2455L117.85 12.0425C117.667 11.6302 117.502 11.309 117.354 11.0873L116.938 11.3647ZM117.381 12.2102C117.7 13.3708 118.064 14.5651 118.473 15.7931L118.947 15.6349C118.54 14.4149 118.179 13.2292 117.863 12.0778L117.381 12.2102ZM118.474 15.797C118.905 17.0223 119.348 18.2476 119.802 19.4728L120.27 19.2992C119.818 18.0764 119.376 16.8537 118.946 15.631L118.474 15.797ZM120.115 19.6232C120.171 19.6047 120.198 19.602 120.206 19.602V19.102C120.123 19.102 120.037 19.122 119.957 19.1488L120.115 19.6232ZM120.285 19.5892C120.353 19.5665 120.421 19.5438 120.489 19.5212L120.331 19.0468C120.263 19.0695 120.195 19.0922 120.127 19.1148L120.285 19.5892ZM120.433 19.533C120.658 19.5125 120.921 19.5222 121.225 19.5655L121.295 19.0705C120.964 19.0232 120.661 19.0102 120.387 19.035L120.433 19.533ZM121.225 19.5655C121.464 19.5997 121.599 19.7078 121.675 19.8902L122.137 19.6978C121.986 19.3362 121.691 19.127 121.295 19.0705L121.225 19.5655ZM121.674 19.8868C121.785 20.1645 121.756 20.3651 121.636 20.531L122.04 20.825C122.282 20.4922 122.299 20.1035 122.138 19.7012L121.674 19.8868ZM121.636 20.531C121.488 20.7341 121.2 20.9617 120.736 21.2045L120.968 21.6475C121.456 21.3917 121.825 21.1206 122.04 20.825L121.636 20.531ZM120.62 21.5201C120.915 22.2463 121.21 22.9611 121.505 23.6647L121.967 23.4713C121.672 22.7695 121.378 22.0564 121.084 21.3319L120.62 21.5201ZM121.507 23.6674C121.803 24.3505 122.11 25.0222 122.429 25.6827L122.879 25.4653C122.563 24.8111 122.259 24.1455 121.965 23.4686L121.507 23.6674ZM122.409 25.623C122.431 25.7341 122.465 25.9136 122.51 26.1627L123.002 26.0733C122.957 25.8238 122.922 25.6406 122.899 25.525L122.409 25.623ZM122.511 26.167C122.553 26.3763 122.574 26.5979 122.574 26.832H123.074C123.074 26.5675 123.05 26.313 123.001 26.069L122.511 26.167ZM122.575 26.8569C122.595 27.0595 122.585 27.2479 122.546 27.4238L123.034 27.5322C123.086 27.3001 123.098 27.0579 123.073 26.8071L122.575 26.8569ZM122.546 27.4238C122.51 27.5834 122.452 27.6394 122.406 27.6624L122.63 28.1096C122.856 27.9966 122.979 27.7806 123.034 27.5322L122.546 27.4238ZM122.42 27.6562C122.34 27.6901 122.248 27.6925 122.12 27.6284L121.896 28.0756C122.131 28.1928 122.378 28.2179 122.616 28.1158L122.42 27.6562ZM122.132 27.6349C121.989 27.5531 121.843 27.4493 121.695 27.3222L121.369 27.7018C121.538 27.8467 121.71 27.9695 121.884 28.0691L122.132 27.6349ZM121.709 27.3352C121.554 27.1808 121.411 27.0268 121.28 26.8733L120.9 27.1987C121.041 27.3626 121.192 27.5259 121.355 27.6888L121.709 27.3352ZM121.302 26.9035C121.191 26.7264 121.105 26.5749 121.042 26.4482L120.594 26.6718C120.667 26.8171 120.762 26.9829 120.878 27.1685L121.302 26.9035ZM121.04 26.4455C120.656 25.6993 120.283 24.9531 119.921 24.2069L119.471 24.4251C119.835 25.1749 120.21 25.9247 120.596 26.6745L121.04 26.4455ZM119.925 24.2151C119.586 23.4463 119.258 22.6775 118.941 21.9088L118.479 22.0992C118.797 22.8718 119.126 23.6444 119.467 24.4169L119.925 24.2151ZM118.663 21.7584C117.718 21.9385 116.681 22.0963 115.552 22.2318L115.612 22.7282C116.75 22.5917 117.798 22.4322 118.757 22.2496L118.663 21.7584ZM115.552 22.2319C114.447 22.3671 113.355 22.4572 112.274 22.5022L112.294 23.0018C113.389 22.9562 114.495 22.8649 115.612 22.7281L115.552 22.2319ZM112.044 22.6825C111.795 23.5433 111.546 24.3927 111.296 25.2308L111.776 25.3732C112.025 24.534 112.275 23.6834 112.524 22.8215L112.044 22.6825ZM111.295 25.2351C111.068 26.0537 110.852 26.8837 110.647 27.7249L111.133 27.8431C111.336 27.007 111.551 26.1823 111.777 25.3689L111.295 25.2351ZM115.49 13.4021C114.444 15.7441 113.534 18.0866 112.761 20.4296L113.235 20.5864C114.003 18.26 114.907 15.9332 115.946 13.6059L115.49 13.4021ZM113.005 20.7579C114.54 20.7121 116.174 20.5175 117.908 20.1753L117.812 19.6847C116.1 20.0225 114.494 20.2132 112.991 20.2581L113.005 20.7579ZM118.092 19.838C117.28 17.784 116.569 15.6506 115.959 13.4376L115.477 13.5704C116.091 15.8001 116.808 17.9506 117.628 20.022L118.092 19.838ZM132.003 27.818L132.252 27.8406L132.252 27.8328L132.253 27.8249L132.003 27.818ZM131.765 28.532L131.55 28.4033L131.546 28.4106L131.765 28.532ZM131.221 28.804L131.243 28.5549L131.235 28.5544L131.221 28.804ZM130.201 28.362L130.024 28.5389L130.031 28.5457L130.201 28.362ZM129.793 27.682L129.543 27.6791V27.682H129.793ZM129.589 21.664L129.339 21.6804L129.339 21.6834L129.589 21.664ZM128.909 15.51H128.659V15.5293L128.662 15.5484L128.909 15.51ZM128.977 15.204L128.753 15.0922L128.748 15.1015L128.745 15.1112L128.977 15.204ZM129.147 14.898L129.361 15.0266L129.366 15.0184L129.37 15.0098L129.147 14.898ZM129.487 14.524L129.388 14.2942L129.363 14.3049L129.341 14.3206L129.487 14.524ZM129.997 14.558L129.885 14.7818L129.895 14.7865L129.997 14.558ZM130.575 14.966L130.751 14.7892V14.7892L130.575 14.966ZM131.051 15.578L130.836 15.7066V15.7066L131.051 15.578ZM131.357 16.224L131.604 16.1869L131.601 16.1655L131.594 16.1449L131.357 16.224ZM131.561 17.72L131.313 17.751V17.751L131.561 17.72ZM131.731 19.42L131.481 19.4392L131.511 19.8233L131.85 19.6398L131.731 19.42ZM133.295 18.434L133.442 18.6362L133.295 18.434ZM134.587 17.244L134.4 17.0772L134.395 17.083L134.587 17.244ZM135.471 15.918L135.699 16.0206L135.7 16.0165L135.471 15.918ZM135.675 14.456L135.426 14.4852L135.427 14.4898L135.675 14.456ZM135.165 13.402L135.348 13.2319V13.2319L135.165 13.402ZM133.805 12.688L133.867 12.4459L133.86 12.4441L133.805 12.688ZM130.031 12.654L130.09 12.8969L130.095 12.8956L130.031 12.654ZM126.835 14.048L126.699 13.8379L126.69 13.8435L126.682 13.8498L126.835 14.048ZM126.019 14.456L125.974 14.21L126.019 14.456ZM125.373 14.422L125.46 14.1879L125.373 14.422ZM124.965 14.116L125.173 13.9773L124.965 14.116ZM124.829 13.708L124.58 13.6863L124.579 13.6971V13.708H124.829ZM125.577 12.314L125.744 12.4998L125.744 12.4994L125.577 12.314ZM127.073 11.226L126.961 11.0021L126.95 11.0084L127.073 11.226ZM132.581 10.138L132.564 10.3875L132.57 10.3878L132.581 10.138ZM137.477 12.926L137.71 12.8372L137.706 12.8254L137.7 12.8142L137.477 12.926ZM137.749 15.986L137.508 15.9197L137.506 15.9254L137.749 15.986ZM136.491 18.468L136.684 18.6263L136.491 18.468ZM134.315 20.542L134.462 20.744L134.466 20.7414L134.315 20.542ZM131.935 22.242L131.792 22.0369L131.679 22.1157L131.685 22.2534L131.935 22.242ZM132.003 25.166H131.753L131.753 25.172L132.003 25.166ZM131.754 27.7954C131.735 28.0051 131.668 28.2071 131.55 28.4034L131.979 28.6606C132.133 28.4035 132.225 28.1295 132.252 27.8406L131.754 27.7954ZM131.546 28.4106C131.51 28.4754 131.471 28.5099 131.432 28.5294C131.392 28.5495 131.333 28.5631 131.243 28.555L131.198 29.053C131.358 29.0675 131.514 29.0471 131.655 28.9766C131.798 28.9055 131.906 28.7926 131.983 28.6534L131.546 28.4106ZM131.235 28.5544C130.91 28.5353 130.624 28.4128 130.37 28.1783L130.031 28.5457C130.366 28.8552 130.761 29.0274 131.206 29.0536L131.235 28.5544ZM130.377 28.1852C130.25 28.0578 130.163 27.9492 130.109 27.8594C130.054 27.7682 130.043 27.7112 130.043 27.682H129.543C129.543 27.8341 129.599 27.9811 129.68 28.1166C129.762 28.2534 129.879 28.3942 130.024 28.5388L130.377 28.1852ZM130.043 27.6849C130.065 25.7052 129.997 23.6917 129.838 21.6446L129.339 21.6834C129.498 23.7163 129.565 25.7148 129.543 27.6791L130.043 27.6849ZM129.838 21.6476C129.702 19.5775 129.474 17.5189 129.156 15.4716L128.662 15.5484C128.978 17.5811 129.204 19.6251 129.339 21.6804L129.838 21.6476ZM129.159 15.51C129.159 15.4601 129.171 15.3903 129.209 15.2968L128.745 15.1112C128.691 15.2444 128.659 15.3786 128.659 15.51H129.159ZM129.2 15.3158C129.242 15.2323 129.295 15.136 129.361 15.0266L128.932 14.7694C128.862 14.8867 128.802 14.9944 128.753 15.0922L129.2 15.3158ZM129.37 15.0098C129.416 14.9191 129.497 14.8236 129.632 14.7274L129.341 14.3206C129.159 14.4511 129.014 14.6049 128.923 14.7862L129.37 15.0098ZM129.585 14.7538C129.664 14.7199 129.757 14.7175 129.885 14.7816L130.108 14.3344C129.874 14.2172 129.627 14.1921 129.388 14.2942L129.585 14.7538ZM129.895 14.7865C130.067 14.8629 130.235 14.98 130.398 15.1428L130.751 14.7892C130.552 14.5894 130.334 14.4344 130.098 14.3295L129.895 14.7865ZM130.398 15.1428C130.564 15.3092 130.71 15.4969 130.836 15.7066L131.265 15.4494C131.119 15.2057 130.948 14.9854 130.751 14.7892L130.398 15.1428ZM130.836 15.7066C130.965 15.9211 131.058 16.1198 131.12 16.3031L131.594 16.1449C131.519 15.9202 131.408 15.6883 131.265 15.4494L130.836 15.7066ZM131.109 16.2611C131.177 16.7121 131.245 17.2087 131.313 17.751L131.809 17.689C131.741 17.1433 131.672 16.6426 131.604 16.1869L131.109 16.2611ZM131.313 17.751C131.38 18.2908 131.436 18.8535 131.481 19.4392L131.98 19.4008C131.934 18.8078 131.877 18.2372 131.809 17.689L131.313 17.751ZM131.85 19.6398C132.403 19.3399 132.934 19.0054 133.442 18.6362L133.148 18.2318C132.658 18.588 132.146 18.9107 131.612 19.2002L131.85 19.6398ZM133.442 18.6362C133.955 18.2628 134.401 17.8525 134.778 17.405L134.395 17.083C134.047 17.4968 133.631 17.8799 133.148 18.2318L133.442 18.6362ZM134.773 17.4107C135.173 16.964 135.483 16.5007 135.699 16.0206L135.243 15.8154C135.051 16.2419 134.771 16.6627 134.4 17.0773L134.773 17.4107ZM135.7 16.0165C135.922 15.5001 135.997 14.9671 135.922 14.4222L135.427 14.4898C135.489 14.9422 135.428 15.3839 135.241 15.8195L135.7 16.0165ZM135.923 14.4268C135.871 13.9827 135.674 13.5834 135.348 13.2319L134.981 13.5721C135.244 13.8553 135.388 14.1586 135.426 14.4852L135.923 14.4268ZM135.348 13.2319C135.009 12.867 134.506 12.6114 133.867 12.446L133.742 12.93C134.328 13.0819 134.731 13.3023 134.981 13.5721L135.348 13.2319ZM133.86 12.4441C132.425 12.1201 131.125 12.1051 129.967 12.4124L130.095 12.8956C131.158 12.6136 132.374 12.6212 133.75 12.9319L133.86 12.4441ZM129.971 12.4112C128.832 12.6902 127.741 13.1664 126.699 13.8379L126.97 14.2581C127.968 13.6149 129.008 13.1618 130.09 12.8968L129.971 12.4112ZM126.682 13.8498C126.406 14.0627 126.17 14.1744 125.974 14.21L126.063 14.702C126.366 14.647 126.674 14.4866 126.987 14.2462L126.682 13.8498ZM125.974 14.21C125.756 14.2497 125.588 14.2359 125.46 14.1879L125.285 14.6561C125.52 14.7441 125.783 14.7529 126.063 14.702L125.974 14.21ZM125.46 14.1879C125.319 14.1348 125.229 14.0621 125.173 13.9773L124.757 14.2547C124.881 14.4419 125.064 14.5732 125.285 14.6561L125.46 14.1879ZM125.173 13.9773C125.104 13.874 125.079 13.7854 125.079 13.708H124.579C124.579 13.9026 124.644 14.086 124.757 14.2547L125.173 13.9773ZM125.078 13.7297C125.117 13.2818 125.329 12.8729 125.744 12.4998L125.409 12.1282C124.917 12.5711 124.631 13.0916 124.58 13.6863L125.078 13.7297ZM125.744 12.4994C126.208 12.0802 126.692 11.7286 127.196 11.4436L126.95 11.0084C126.411 11.3127 125.898 11.6865 125.409 12.1286L125.744 12.4994ZM127.184 11.4496C127.842 11.121 128.66 10.8434 129.644 10.6198L129.533 10.1322C128.523 10.3619 127.664 10.651 126.961 11.0024L127.184 11.4496ZM129.644 10.6198C130.618 10.3984 131.591 10.3211 132.564 10.3874L132.598 9.88858C131.576 9.81888 130.554 9.90028 129.533 10.1322L129.644 10.6198ZM132.57 10.3878C133.557 10.4316 134.475 10.6616 135.327 11.0767L135.546 10.6273C134.63 10.181 133.645 9.93504 132.592 9.88825L132.57 10.3878ZM135.327 11.0767C136.158 11.4813 136.799 12.1307 137.253 13.0378L137.7 12.8142C137.202 11.8173 136.484 11.084 135.546 10.6273L135.327 11.0767ZM137.243 13.0148C137.66 14.1129 137.739 15.0773 137.508 15.9197L137.99 16.0523C138.257 15.0814 138.154 14.0058 137.71 12.8372L137.243 13.0148ZM137.506 15.9254C137.289 16.795 136.887 17.5892 136.297 18.3097L136.684 18.6263C137.319 17.8508 137.755 16.9903 137.991 16.0466L137.506 15.9254ZM136.297 18.3097C135.699 19.0411 134.988 19.7189 134.164 20.3426L134.466 20.7414C135.319 20.0958 136.059 19.3909 136.684 18.6263L136.297 18.3097ZM134.167 20.3401C133.33 20.9511 132.538 21.5167 131.792 22.0369L132.078 22.4471C132.827 21.9246 133.622 21.3569 134.462 20.7439L134.167 20.3401ZM131.685 22.2534C131.73 23.2471 131.753 24.218 131.753 25.166H132.253C132.253 24.21 132.23 23.2316 132.184 22.2306L131.685 22.2534ZM131.753 25.172C131.775 26.1203 131.775 27 131.753 27.8111L132.253 27.8249C132.275 27.004 132.275 26.1157 132.253 25.16L131.753 25.172ZM147.175 27.818L147.424 27.8406L147.425 27.8328L147.425 27.8249L147.175 27.818ZM146.937 28.532L146.723 28.4033L146.719 28.4106L146.937 28.532ZM146.393 28.804L146.416 28.5549L146.408 28.5544L146.393 28.804ZM145.373 28.362L145.196 28.5389L145.204 28.5457L145.373 28.362ZM144.965 27.682L144.715 27.6791V27.682H144.965ZM144.761 21.664L144.512 21.6804L144.512 21.6834L144.761 21.664ZM144.081 15.51H143.831V15.5293L143.834 15.5484L144.081 15.51ZM144.149 15.204L143.926 15.0922L143.921 15.1015L143.917 15.1112L144.149 15.204ZM144.319 14.898L144.534 15.0266L144.538 15.0184L144.543 15.0098L144.319 14.898ZM144.659 14.524L144.561 14.2942L144.536 14.3049L144.514 14.3206L144.659 14.524ZM145.169 14.558L145.057 14.7818L145.068 14.7865L145.169 14.558ZM145.747 14.966L145.924 14.7892V14.7892L145.747 14.966ZM146.223 15.578L146.009 15.7066V15.7066L146.223 15.578ZM146.529 16.224L146.776 16.1869L146.773 16.1655L146.766 16.1449L146.529 16.224ZM146.733 17.72L146.485 17.751V17.751L146.733 17.72ZM146.903 19.42L146.654 19.4392L146.683 19.8233L147.022 19.6398L146.903 19.42ZM148.467 18.434L148.614 18.6362L148.467 18.434ZM149.759 17.244L149.573 17.0772L149.568 17.083L149.759 17.244ZM150.643 15.918L150.871 16.0206L150.873 16.0165L150.643 15.918ZM150.847 14.456L150.599 14.4852L150.599 14.4898L150.847 14.456ZM150.337 13.402L150.52 13.2319L150.52 13.2319L150.337 13.402ZM148.977 12.688L149.04 12.4459L149.032 12.4441L148.977 12.688ZM145.203 12.654L145.263 12.8969L145.267 12.8956L145.203 12.654ZM142.007 14.048L141.872 13.8379L141.863 13.8435L141.855 13.8498L142.007 14.048ZM141.191 14.456L141.146 14.21H141.146L141.191 14.456ZM140.545 14.422L140.633 14.1879L140.545 14.422ZM140.137 14.116L140.345 13.9773L140.137 14.116ZM140.001 13.708L139.752 13.6863L139.751 13.6971V13.708H140.001ZM140.749 12.314L140.916 12.4998L140.917 12.4994L140.749 12.314ZM142.245 11.226L142.133 11.0021L142.122 11.0084L142.245 11.226ZM147.753 10.138L147.736 10.3875L147.742 10.3878L147.753 10.138ZM152.649 12.926L152.883 12.8372L152.878 12.8254L152.873 12.8142L152.649 12.926ZM152.921 15.986L152.68 15.9197L152.679 15.9254L152.921 15.986ZM151.663 18.468L151.857 18.6263L151.663 18.468ZM149.487 20.542L149.635 20.744L149.638 20.7414L149.487 20.542ZM147.107 22.242L146.964 22.0369L146.851 22.1157L146.857 22.2534L147.107 22.242ZM147.175 25.166H146.925L146.925 25.172L147.175 25.166ZM146.926 27.7954C146.907 28.0051 146.841 28.2071 146.723 28.4034L147.152 28.6606C147.306 28.4035 147.398 28.1295 147.424 27.8406L146.926 27.7954ZM146.719 28.4106C146.683 28.4754 146.643 28.5099 146.604 28.5294C146.564 28.5495 146.505 28.5631 146.416 28.555L146.371 29.053C146.531 29.0675 146.687 29.0471 146.828 28.9766C146.97 28.9055 147.078 28.7926 147.156 28.6534L146.719 28.4106ZM146.408 28.5544C146.083 28.5353 145.797 28.4128 145.543 28.1783L145.204 28.5457C145.539 28.8552 145.933 29.0274 146.378 29.0536L146.408 28.5544ZM145.55 28.1852C145.422 28.0578 145.335 27.9492 145.282 27.8594C145.227 27.7682 145.215 27.7112 145.215 27.682H144.715C144.715 27.8341 144.772 27.9811 144.853 28.1166C144.935 28.2534 145.052 28.3942 145.196 28.5388L145.55 28.1852ZM145.215 27.6849C145.238 25.7052 145.17 23.6917 145.01 21.6446L144.512 21.6834C144.67 23.7163 144.738 25.7148 144.715 27.6791L145.215 27.6849ZM145.011 21.6476C144.874 19.5775 144.647 17.5189 144.328 15.4716L143.834 15.5484C144.15 17.5811 144.376 19.6251 144.512 21.6804L145.011 21.6476ZM144.331 15.51C144.331 15.4601 144.344 15.3903 144.381 15.2968L143.917 15.1112C143.864 15.2444 143.831 15.3786 143.831 15.51H144.331ZM144.373 15.3158C144.415 15.2323 144.468 15.136 144.534 15.0266L144.105 14.7694C144.034 14.8867 143.974 14.9944 143.926 15.0922L144.373 15.3158ZM144.543 15.0098C144.588 14.9191 144.67 14.8236 144.804 14.7274L144.514 14.3206C144.331 14.4511 144.186 14.6049 144.096 14.7862L144.543 15.0098ZM144.758 14.7538C144.837 14.7199 144.929 14.7175 145.057 14.7816L145.281 14.3344C145.047 14.2172 144.799 14.1921 144.561 14.2942L144.758 14.7538ZM145.068 14.7865C145.24 14.8629 145.408 14.98 145.57 15.1428L145.924 14.7892C145.724 14.5894 145.507 14.4344 145.271 14.3295L145.068 14.7865ZM145.57 15.1428C145.737 15.3092 145.883 15.4969 146.009 15.7066L146.438 15.4494C146.291 15.2057 146.12 14.9854 145.924 14.7892L145.57 15.1428ZM146.009 15.7066C146.137 15.9211 146.231 16.1198 146.292 16.3031L146.766 16.1449C146.691 15.9202 146.581 15.6883 146.438 15.4494L146.009 15.7066ZM146.282 16.2611C146.35 16.7121 146.417 17.2087 146.485 17.751L146.981 17.689C146.913 17.1433 146.845 16.6426 146.776 16.1869L146.282 16.2611ZM146.485 17.751C146.553 18.2908 146.609 18.8535 146.654 19.4392L147.152 19.4008C147.107 18.8078 147.05 18.2372 146.981 17.689L146.485 17.751ZM147.022 19.6398C147.576 19.3399 148.107 19.0054 148.614 18.6362L148.32 18.2318C147.83 18.588 147.318 18.9107 146.784 19.2002L147.022 19.6398ZM148.614 18.6362C149.128 18.2628 149.574 17.8525 149.95 17.405L149.568 17.083C149.219 17.4968 148.804 17.8799 148.32 18.2318L148.614 18.6362ZM149.945 17.4107C150.345 16.964 150.655 16.5007 150.871 16.0206L150.415 15.8154C150.223 16.2419 149.944 16.6627 149.573 17.0773L149.945 17.4107ZM150.873 16.0165C151.094 15.5001 151.169 14.9671 151.095 14.4222L150.599 14.4898C150.661 14.9422 150.6 15.3839 150.413 15.8195L150.873 16.0165ZM151.095 14.4268C151.043 13.9827 150.847 13.5834 150.52 13.2319L150.154 13.5721C150.417 13.8553 150.56 14.1586 150.599 14.4852L151.095 14.4268ZM150.52 13.2319C150.182 12.867 149.678 12.6114 149.04 12.446L148.914 12.93C149.5 13.0819 149.903 13.3023 150.154 13.5721L150.52 13.2319ZM149.032 12.4441C147.597 12.1201 146.297 12.1051 145.139 12.4124L145.267 12.8956C146.33 12.6136 147.546 12.6212 148.922 12.9319L149.032 12.4441ZM145.144 12.4112C144.004 12.6902 142.914 13.1664 141.872 13.8379L142.143 14.2581C143.141 13.6149 144.181 13.1618 145.263 12.8968L145.144 12.4112ZM141.855 13.8498C141.578 14.0627 141.343 14.1744 141.146 14.21L141.236 14.702C141.538 14.647 141.847 14.4866 142.16 14.2462L141.855 13.8498ZM141.146 14.21C140.928 14.2497 140.761 14.2359 140.633 14.1879L140.457 14.6561C140.692 14.7441 140.956 14.7529 141.236 14.702L141.146 14.21ZM140.633 14.1879C140.491 14.1348 140.402 14.0621 140.345 13.9773L139.929 14.2547C140.054 14.4419 140.236 14.5732 140.457 14.6561L140.633 14.1879ZM140.345 13.9773C140.276 13.874 140.251 13.7854 140.251 13.708H139.751C139.751 13.9026 139.817 14.086 139.929 14.2547L140.345 13.9773ZM140.25 13.7297C140.289 13.2818 140.502 12.8729 140.916 12.4998L140.582 12.1282C140.09 12.5711 139.804 13.0916 139.752 13.6863L140.25 13.7297ZM140.917 12.4994C141.38 12.0802 141.864 11.7286 142.368 11.4436L142.122 11.0084C141.584 11.3127 141.07 11.6865 140.581 12.1286L140.917 12.4994ZM142.357 11.4496C143.014 11.121 143.833 10.8434 144.817 10.6198L144.706 10.1322C143.695 10.3619 142.836 10.651 142.133 11.0024L142.357 11.4496ZM144.817 10.6198C145.791 10.3984 146.764 10.3211 147.736 10.3874L147.77 9.88858C146.748 9.81888 145.726 9.90028 144.706 10.1322L144.817 10.6198ZM147.742 10.3878C148.729 10.4316 149.648 10.6616 150.5 11.0767L150.719 10.6273C149.803 10.181 148.817 9.93504 147.764 9.88825L147.742 10.3878ZM150.5 11.0767C151.33 11.4813 151.972 12.1307 152.426 13.0378L152.873 12.8142C152.374 11.8173 151.656 11.084 150.719 10.6273L150.5 11.0767ZM152.415 13.0148C152.833 14.1129 152.912 15.0773 152.68 15.9197L153.162 16.0523C153.429 15.0814 153.327 14.0058 152.883 12.8372L152.415 13.0148ZM152.679 15.9254C152.461 16.795 152.059 17.5892 151.47 18.3097L151.857 18.6263C152.491 17.8508 152.928 16.9903 153.164 16.0466L152.679 15.9254ZM151.47 18.3097C150.871 19.0411 150.161 19.7189 149.336 20.3426L149.638 20.7414C150.491 20.0958 151.231 19.3909 151.857 18.6263L151.47 18.3097ZM149.34 20.3401C148.502 20.9511 147.711 21.5167 146.964 22.0369L147.25 22.4471C148 21.9246 148.795 21.3569 149.635 20.7439L149.34 20.3401ZM146.857 22.2534C146.903 23.2471 146.925 24.218 146.925 25.166H147.425C147.425 24.21 147.402 23.2316 147.357 22.2306L146.857 22.2534ZM146.925 25.172C146.948 26.1203 146.948 27 146.925 27.8111L147.425 27.8249C147.448 27.004 147.448 26.1157 147.425 25.16L146.925 25.172Z" fill="black"/>
</g>
</svg>
