<?xml version="1.0" encoding="UTF-8" standalone="no"?>
<svg
   xmlns:dc="http://purl.org/dc/elements/1.1/"
   xmlns:cc="http://creativecommons.org/ns#"
   xmlns:rdf="http://www.w3.org/1999/02/22-rdf-syntax-ns#"
   xmlns:svg="http://www.w3.org/2000/svg"
   xmlns="http://www.w3.org/2000/svg"
   xmlns:sodipodi="http://sodipodi.sourceforge.net/DTD/sodipodi-0.dtd"
   xmlns:inkscape="http://www.inkscape.org/namespaces/inkscape"
   version="1.0"
   width="1200.000000pt"
   height="630.000000pt"
   viewBox="0 0 1200.000000 630.000000"
   preserveAspectRatio="xMidYMid meet"
   id="svg3813"
   sodipodi:docname="en-ritsumei_ogp_1_brownred.svg"
   inkscape:version="0.92.1 r15371">
  <defs
     id="defs3817" />
  <sodipodi:namedview
     pagecolor="#ffffff"
     bordercolor="#666666"
     borderopacity="1"
     objecttolerance="10"
     gridtolerance="10"
     guidetolerance="10"
     inkscape:pageopacity="0"
     inkscape:pageshadow="2"
     inkscape:window-width="1586"
     inkscape:window-height="877"
     id="namedview3815"
     showgrid="false"
     inkscape:zoom="0.824375"
     inkscape:cx="800"
     inkscape:cy="420"
     inkscape:window-x="54"
     inkscape:window-y="54"
     inkscape:window-maximized="0"
     inkscape:current-layer="svg3813" />
  <metadata
     id="metadata3765">
Created by potrace 1.14, written by Peter Selinger 2001-2017
<rdf:RDF>
  <cc:Work
     rdf:about="">
    <dc:format>image/svg+xml</dc:format>
    <dc:type
       rdf:resource="http://purl.org/dc/dcmitype/StillImage" />
    <dc:title></dc:title>
  </cc:Work>
</rdf:RDF>
</metadata>
  <g
     transform="translate(0.000000,630.000000) scale(0.100000,-0.100000)"
     fill="#000000"
     stroke="none"
     id="g3811">
    <path
       d="M3110 3140 l0 -720 90 0 90 0 2 358 3 357 249 -357 248 -358 110 0 110 0 -18 27 c-9 15 -120 175 -246 356 -125 180 -228 329 -228 331 0 2 51 5 114 8 103 4 120 7 179 36 230 114 272 417 82 591 -96 87 -115 91 -475 91 l-310 0 0 -720z m641 511 c97 -61 111 -200 27 -278 -50 -47 -84 -53 -293 -53 l-195 0 0 180 0 180 208 0 208 0 45 -29z"
       id="path3767" />
    <path
       d="M4380 3575 l0 -285 35 0 35 0 0 138 1 137 24 -30 c13 -16 57 -78 97 -137 l73 -107 43 -1 c23 0 42 2 42 5 0 3 -43 67 -96 143 l-95 137 60 5 c49 4 65 10 91 35 65 62 63 154 -5 214 l-36 31 -134 0 -135 0 0 -285z m269 189 c12 -15 21 -34 21 -44 0 -10 -9 -29 -21 -44 -19 -25 -25 -26 -110 -26 l-89 0 0 70 0 70 89 0 c85 0 91 -1 110 -26z"
       id="path3769" />
    <path
       d="M4860 3575 l0 -285 35 0 35 0 0 285 0 285 -35 0 -35 0 0 -285z"
       id="path3771" />
    <path
       d="M5040 3825 l0 -35 75 0 75 0 0 -250 0 -250 35 0 35 0 0 250 0 250 70 0 70 0 0 35 0 35 -180 0 -180 0 0 -35z"
       id="path3773" />
    <path
       d="M5539 3833 c-83 -70 -78 -211 10 -270 27 -18 48 -23 103 -23 60 0 72 -3 93 -25 34 -33 35 -102 2 -133 -21 -20 -34 -22 -145 -22 l-122 0 0 -35 0 -35 131 0 c115 0 136 3 164 20 43 26 65 75 65 142 0 102 -60 158 -168 158 -35 0 -71 4 -81 10 -43 22 -51 111 -14 152 14 16 33 18 140 18 l123 0 0 35 0 35 -134 0 c-132 0 -135 -1 -167 -27z"
       id="path3775" />
    <path
       d="M5960 3630 c0 -249 2 -261 55 -310 23 -22 37 -25 116 -28 76 -3 93 -1 123 17 61 38 66 61 66 320 l0 231 -35 0 -35 0 0 -224 c0 -211 -1 -225 -21 -250 -19 -24 -27 -26 -89 -26 -62 0 -70 2 -89 26 -20 25 -21 39 -21 250 l0 224 -35 0 -35 0 0 -230z"
       id="path3777" />
    <path
       d="M6440 3576 l0 -286 35 0 35 0 0 197 c0 108 3 193 7 189 4 -4 19 -35 33 -69 l27 -62 42 0 43 0 31 73 32 74 3 -201 2 -201 35 0 35 0 0 286 0 285 -41 -3 -42 -3 -46 -107 c-25 -59 -48 -108 -51 -108 -3 0 -26 48 -52 108 l-46 107 -41 3 -41 3 0 -285z"
       id="path3779" />
    <path
       d="M6985 3840 c-58 -38 -65 -65 -65 -263 0 -201 7 -231 65 -267 28 -17 49 -20 164 -20 l131 0 0 35 0 35 -124 0 c-123 0 -125 0 -145 26 -16 21 -21 41 -21 90 l0 64 145 0 145 0 0 35 0 35 -145 0 -145 0 0 64 c0 49 5 69 21 90 20 26 22 26 145 26 l124 0 0 35 0 35 -132 0 c-116 0 -137 -3 -163 -20z"
       id="path3781" />
    <path
       d="M7410 3575 l0 -285 35 0 35 0 0 285 0 285 -35 0 -35 0 0 -285z"
       id="path3783" />
    <path
       d="M7610 3575 l0 -285 35 0 35 0 0 105 c0 58 4 105 8 105 5 0 48 -47 97 -105 87 -104 88 -105 131 -105 24 0 44 3 44 6 0 3 -49 63 -108 132 -59 70 -111 132 -115 139 -5 7 38 65 108 147 63 74 115 137 115 140 0 3 -20 6 -43 6 -43 0 -45 -1 -133 -105 -49 -58 -92 -105 -96 -105 -5 0 -8 47 -8 105 l0 105 -35 0 -35 0 0 -285z"
       id="path3785" />
    <path
       d="M8114 3841 c-58 -36 -64 -63 -64 -320 l0 -231 35 0 35 0 0 125 0 125 110 0 110 0 0 -125 0 -125 35 0 35 0 0 225 c0 249 -4 272 -59 318 -30 25 -40 27 -119 27 -67 0 -94 -4 -118 -19z m205 -77 c16 -21 21 -41 21 -90 l0 -64 -110 0 -110 0 0 67 c0 94 19 113 111 113 61 0 70 -3 88 -26z"
       id="path3787" />
    <path
       d="M8530 3576 l0 -286 35 0 35 0 0 208 0 207 107 -207 107 -208 38 0 38 0 0 285 0 285 -35 0 -35 0 0 -202 c0 -156 -3 -199 -12 -190 -6 6 -55 96 -107 199 l-96 188 -37 3 -38 3 0 -285z"
       id="path3789" />
    <path
       d="M4380 2760 c0 -258 5 -285 62 -320 28 -18 46 -21 125 -18 81 3 94 6 119 28 50 46 54 71 54 315 l0 225 -34 0 -35 0 -3 -231 c-3 -229 -3 -231 -27 -250 -17 -14 -39 -19 -85 -19 -52 0 -66 4 -84 23 -21 23 -22 31 -22 250 l0 227 -35 0 -35 0 0 -230z"
       id="path3791" />
    <path
       d="M4860 2706 l0 -286 35 0 35 0 0 208 1 207 106 -207 106 -208 39 0 38 0 0 285 0 285 -35 0 -35 0 -2 -207 -3 -208 -106 205 -105 205 -37 3 -37 3 0 -285z"
       id="path3793" />
    <path
       d="M5350 2705 l0 -285 35 0 35 0 0 285 0 285 -35 0 -35 0 0 -285z"
       id="path3795" />
    <path
       d="M5540 2985 c0 -5 110 -447 131 -528 10 -36 12 -38 46 -35 l37 3 68 270 c37 149 68 276 68 283 0 7 -13 12 -35 12 -39 0 -28 27 -95 -240 -23 -91 -43 -166 -44 -168 -2 -1 -22 73 -45 165 -67 270 -57 243 -96 243 -19 0 -35 -2 -35 -5z"
       id="path3797" />
    <path
       d="M6043 2970 c-64 -39 -68 -53 -68 -265 0 -212 4 -226 68 -265 27 -17 51 -20 160 -20 l127 0 0 35 0 35 -118 0 c-155 0 -162 4 -162 106 l0 74 140 0 140 0 0 35 0 35 -140 0 -140 0 0 70 c0 104 8 110 160 110 l120 0 0 35 0 35 -127 0 c-109 0 -133 -3 -160 -20z"
       id="path3799" />
    <path
       d="M6460 2705 l0 -285 40 0 39 0 3 135 3 136 94 -136 93 -135 45 0 44 0 -77 113 c-43 61 -86 123 -97 137 l-19 25 53 8 c29 4 64 14 77 23 59 39 81 138 43 200 -32 52 -72 64 -215 64 l-126 0 0 -285z m267 193 c29 -27 30 -71 3 -98 -17 -17 -33 -20 -105 -20 l-85 0 0 70 0 70 82 0 c70 0 85 -3 105 -22z"
       id="path3801" />
    <path
       d="M6969 2967 c-43 -29 -69 -80 -69 -137 0 -57 26 -108 69 -137 27 -18 48 -23 103 -23 60 0 72 -3 93 -25 32 -31 34 -91 4 -129 -20 -26 -22 -26 -145 -26 l-124 0 0 -35 0 -35 131 0 c115 0 136 3 164 20 43 26 65 75 65 142 0 103 -60 158 -171 158 -91 0 -114 18 -114 90 0 80 18 90 166 90 l119 0 0 35 0 35 -129 0 c-116 0 -131 -2 -162 -23z"
       id="path3803" />
    <path
       d="M7380 2705 l0 -285 35 0 35 0 0 285 0 285 -35 0 -35 0 0 -285z"
       id="path3805" />
    <path
       d="M7570 2955 l0 -35 70 0 70 0 0 -250 0 -250 35 0 35 0 0 250 0 250 75 0 75 0 0 35 0 35 -180 0 -180 0 0 -35z"
       id="path3807" />
    <path
       d="M8019 2966 c5 -13 37 -78 70 -144 l61 -122 0 -140 0 -140 35 0 35 0 0 136 0 137 70 145 c39 80 70 146 70 148 0 2 -17 4 -38 4 -38 0 -38 0 -82 -91 -25 -50 -48 -93 -53 -96 -4 -2 -28 39 -53 91 l-47 96 -38 0 c-36 0 -38 -1 -30 -24z"
       id="path3809" />
  </g>
  <path
     style="fill:#d40000;stroke-width:1.21304023"
     d="m 415.46626,421.45565 v -95.83018 l 33.05535,0.0329 c 38.8314,0.0386 53.16417,1.154 60.06443,4.67425 7.91327,4.03705 16.94161,13.74499 21.25865,22.8589 3.57452,7.54632 3.89299,9.21102 3.89299,20.34907 0,10.62233 -0.40417,12.99273 -3.25102,19.06665 -4.47089,9.53893 -13.07226,18.36894 -22.33548,22.92921 -6.69628,3.29657 -9.56957,3.90592 -23.13985,4.90738 -8.52181,0.62889 -15.68786,1.3371 -15.92455,1.5738 -0.2367,0.23669 14.2562,21.63241 32.20645,47.54603 l 32.63682,47.11567 -13.43963,0.37344 -13.43962,0.37342 -2.7195,-3.40602 c -1.49572,-1.87333 -16.1447,-22.78436 -32.55328,-46.46896 -16.40858,-23.68461 -30.60558,-43.86224 -31.54889,-44.83917 -1.47914,-1.53186 -1.7151,4.85173 -1.7151,46.39878 v 48.17503 h -11.52389 -11.52388 z m 82.42478,-27.03158 c 8.21058,-4.08938 12.53707,-10.30641 13.15936,-18.90959 0.70686,-9.77226 -2.49041,-16.77616 -10.25993,-22.47527 l -5.87008,-4.30583 -28.20318,-0.0301 -28.20318,-0.0301 v 25.05466 25.05466 l 26.99014,-0.8353 c 24.46699,-0.75721 27.49465,-1.08657 32.38687,-3.52319 z"
     id="path3819"
     inkscape:connector-curvature="0"
     transform="scale(0.75)" />
  <path
     style="fill:#d40000;stroke-width:1.21304023"
     d="m 592.96818,481.50114 c -0.005,-4.67021 0.20946,-6.72939 0.47744,-4.57596 0.26797,2.15343 0.27238,5.97451 0.01,8.49128 -0.26259,2.51678 -0.48184,0.75488 -0.48722,-3.91532 z"
     id="path3821"
     inkscape:connector-curvature="0"
     transform="scale(0.75)" />
  <path
     style="fill:#d40000;stroke-width:1.21304023"
     d="m 592.27374,513.94415 c -6.48231,-4.01923 -7.13898,-7.43822 -7.88325,-41.04491 l -0.6826,-30.82191 h 4.33779 4.33779 l 0.39659,30.29425 c 0.38833,29.66374 0.45416,30.35171 3.16277,33.05534 2.382,2.37763 4.01993,2.7611 11.79369,2.7611 7.77475,0 9.41091,-0.38316 11.79031,-2.7611 2.70416,-2.70251 2.7712,-3.40392 3.15937,-33.05534 l 0.39659,-30.29425 h 4.2594 4.25939 l -0.42346,30.62927 c -0.4607,33.32263 -0.84949,35.35407 -7.81482,40.833 -2.79146,2.19576 -4.85483,2.52888 -15.4905,2.5009 -9.39759,-0.0247 -13.0494,-0.51548 -15.59906,-2.09635 z"
     id="path3823"
     inkscape:connector-curvature="0"
     transform="scale(0.75)" />
  <path
     style="fill:#d40000;stroke-width:1.21304023"
     d="m 584.07885,363.22972 v -37.60425 h 18.09251 18.09251 l 4.85901,5.52013 c 8.05482,9.15076 7.79159,18.41156 -0.75157,26.44112 -2.84902,2.67774 -5.33295,3.65019 -11.04356,4.32353 -4.05228,0.4778 -7.6588,1.15974 -8.01449,1.51543 -0.35569,0.35569 0.35757,1.95824 1.58502,3.56123 1.22745,1.60299 7.00343,9.87435 12.83551,18.38079 l 10.60379,15.46627 h -5.37909 c -4.99417,0 -5.6188,-0.36892 -8.72899,-5.15543 -7.0668,-10.87564 -21.88121,-31.20643 -22.74959,-31.22076 -0.50038,-0.008 -0.90978,8.173 -0.90978,18.18058 v 18.19561 h -4.24564 -4.24564 z m 35.8426,-12.91405 c 3.41671,-3.68669 3.70712,-6.41173 1.19999,-11.26 -2.35031,-4.54498 -3.71635,-4.93891 -17.12664,-4.93891 h -11.42467 v 9.70432 9.70432 h 12.18832 c 11.62208,0 12.32652,-0.14912 15.163,-3.20973 z"
     id="path3825"
     inkscape:connector-curvature="0"
     transform="scale(0.75)" />
  <path
     style="fill:#d40000;stroke-width:1.21304023"
     d="m 648.36998,363.22972 v -37.60425 h 4.24564 4.24564 v 37.60425 37.60425 h -4.24564 -4.24564 z"
     id="path3827"
     inkscape:connector-curvature="0"
     transform="scale(0.75)" />
  <path
     style="fill:#d40000;stroke-width:1.21304023"
     d="m 692.03942,367.47536 v -33.3586 h -9.70432 -9.70432 v -4.24565 -4.24564 h 23.65428 23.65429 v 4.24564 4.24565 h -9.70432 -9.70432 v 33.3586 33.35861 h -4.24565 -4.24564 z"
     id="path3829"
     inkscape:connector-curvature="0"
     transform="scale(0.75)" />
  <path
     style="fill:#d40000;stroke-width:1.21304023"
     d="m 739.44376,346.75259 c 0.0582,-1.41312 0.34564,-1.70056 0.73288,-0.73288 0.35041,0.87567 0.30731,1.92191 -0.0958,2.325 -0.40308,0.40308 -0.68978,-0.31337 -0.63711,-1.59212 z"
     id="path3831"
     inkscape:connector-curvature="0"
     transform="scale(0.75)" />
  <path
     style="fill:#aa0000;stroke-width:1.21304023"
     d="m 730.85671,396.79127 v -4.26521 l 17.09253,-0.39495 c 16.26708,-0.37587 17.20439,-0.53325 19.40865,-3.25867 3.46704,-4.28679 3.10578,-12.3877 -0.75716,-16.97855 -2.79136,-3.31734 -3.96532,-3.73019 -12.79786,-4.50066 -11.02441,-0.96167 -15.87166,-3.44925 -19.78809,-10.1551 -5.01845,-8.59277 -2.17694,-22.54644 5.80602,-28.51129 2.93471,-2.19281 5.45788,-2.54533 20.84171,-2.91185 l 17.50277,-0.417 v 4.35938 4.35939 h -15.49962 c -17.57845,0 -20.01978,0.8947 -21.99883,8.0622 -3.18943,11.55116 2.70749,17.29857 17.83487,17.3827 7.7624,0.0432 14.52678,3.99485 17.30203,10.10769 4.44194,9.78394 1.97289,22.61531 -5.35792,27.8444 -3.44674,2.45856 -5.48659,2.75267 -21.69676,3.12821 l -17.89234,0.41452 z"
     id="path3833"
     inkscape:connector-curvature="0"
     transform="scale(0.75)" />
  <path
     style="fill:#aa0000;stroke-width:1.21304023"
     d="m 415.46626,421.26042 v -96.02541 l 38.04546,0.81238 c 20.925,0.44681 41.25859,1.39557 45.18575,2.10837 13.23784,2.40273 23.57086,11.11886 30.94916,26.10633 3.62799,7.36949 3.7409,8.08205 3.28531,20.73337 -0.42192,11.71655 -0.84697,13.78502 -4.02067,19.56645 -4.75688,8.66547 -15.87313,18.79016 -23.94135,21.8058 -3.67616,1.37403 -12.56346,2.95747 -20.83617,3.71235 -7.93418,0.72398 -14.68345,1.57401 -14.99838,1.88895 -0.48182,0.48181 37.23104,56.09802 57.73885,85.14911 l 6.09522,8.63441 -12.78236,0.85623 c -12.40263,0.8308 -12.84167,0.77377 -14.77888,-1.92012 -1.09809,-1.52698 -15.94124,-22.68256 -32.98479,-47.01239 -17.04355,-24.32981 -31.64552,-44.45511 -32.44883,-44.72288 -1.12211,-0.37404 -1.46055,10.4992 -1.46055,46.9228 v 47.40965 h -11.52389 -11.52388 z m 59.11852,-23.41221 c 18.67052,-0.65568 23.79432,-1.97455 29.88607,-7.6927 4.67713,-4.39027 6.82559,-9.81396 6.82559,-17.23083 0,-7.87545 -3.25696,-14.29059 -10.10369,-19.90097 l -5.30918,-4.35047 H 467.1988 438.51403 v 25.43587 25.43587 l 9.40106,-0.54516 c 5.17058,-0.29984 17.17194,-0.81806 26.66969,-1.15161 z"
     id="path3835"
     inkscape:connector-curvature="0"
     transform="scale(0.75)" />
  <path
     style="fill:#aa0000;stroke-width:1.21304023"
     d="m 597.67036,514.92229 c -10.70903,-1.74044 -11.81133,-5.63213 -13.01223,-45.94015 l -0.80667,-27.07548 4.05608,0.3886 4.05607,0.38859 0.60652,30.13002 0.60652,30.13002 3.4035,2.92532 c 2.82873,2.4313 4.71223,2.92533 11.15298,2.92533 6.44075,0 8.32426,-0.49403 11.15298,-2.92533 l 3.4035,-2.92532 0.60652,-30.13002 0.60652,-30.13002 4.08084,-0.39044 4.08084,-0.39044 -0.84354,28.89688 c -0.46395,15.89329 -1.38244,31.00461 -2.0411,33.58071 -2.61849,10.24122 -12.45305,13.57376 -31.10933,10.54173 z"
     id="path3837"
     inkscape:connector-curvature="0"
     transform="scale(0.75)" />
  <path
     style="fill:#aa0000;stroke-width:1.21304023"
     d="m 584.07885,363.22972 v -37.60425 h 17.99258 17.99258 l 3.64525,4.5489 c 5.24188,6.54134 6.46511,9.26621 6.46511,14.40168 0,5.18103 -3.71193,11.39184 -8.49815,14.21913 -1.73271,1.02354 -6.0004,2.23904 -9.48374,2.70113 -3.48335,0.46208 -6.61242,1.29168 -6.9535,1.84355 -0.34108,0.55187 4.85692,8.88357 11.55111,18.51488 6.69418,9.63132 12.17124,17.84172 12.17124,18.24535 0,0.40363 -1.66241,0.73388 -3.69425,0.73388 -4.65886,0 -6.33799,-1.78245 -19.80088,-21.01914 -5.91701,-8.45464 -11.23923,-15.37207 -11.82714,-15.37207 -0.58791,0 -1.06893,8.18802 -1.06893,18.1956 v 18.19561 h -4.24564 -4.24564 z m 35.83982,-12.68178 c 3.93916,-3.93916 3.93916,-9.51456 0,-13.45372 -2.76606,-2.76606 -3.84265,-2.97746 -15.163,-2.97746 h -12.18554 v 9.70432 9.70432 h 12.18554 c 11.32035,0 12.39694,-0.21141 15.163,-2.97746 z"
     id="path3839"
     inkscape:connector-curvature="0"
     transform="scale(0.75)" />
  <path
     style="fill:#aa0000;stroke-width:1.21304023"
     d="m 648.36998,363.22972 v -37.60425 h 4.24564 4.24564 v 37.60425 37.60425 h -4.24564 -4.24564 z"
     id="path3841"
     inkscape:connector-curvature="0"
     transform="scale(0.75)" />
  <path
     style="fill:#aa0000;stroke-width:1.21304023"
     d="m 692.03942,367.47536 v -33.3586 h -9.70432 -9.70432 v -4.24565 -4.24564 h 23.65428 23.65429 v 4.24564 4.24565 h -9.70432 -9.70432 v 33.3586 33.35861 h -4.24565 -4.24564 z"
     id="path3843"
     inkscape:connector-curvature="0"
     transform="scale(0.75)" />
  <path
     style="fill:#aa0000;stroke-width:1.21304023"
     d="m 713.87415,479.68158 v -37.60425 h 4.24564 4.24564 v 37.60425 37.60424 h -4.24564 -4.24564 z"
     id="path3845"
     inkscape:connector-curvature="0"
     transform="scale(0.75)" />
  <path
     style="fill:#aa0000;stroke-width:1.21304023"
     d="m 648.36998,479.68158 v -37.60425 l 4.5489,0.026 4.5489,0.026 13.86133,27.20633 c 7.62373,14.96348 14.31061,26.92865 14.85974,26.58927 0.54913,-0.33938 0.99841,-12.59393 0.99841,-27.23234 v -26.6153 h 4.24564 4.24564 v 37.60425 37.60424 h -4.63536 -4.63536 l -14.47002,-28.20318 -14.47002,-28.20319 -0.32562,28.20319 -0.32562,28.20318 h -4.22328 -4.22328 z"
     id="path3847"
     inkscape:connector-curvature="0"
     transform="scale(0.75)" />
  <path
     style="fill:#aa0000;stroke-width:1.21304023"
     d="m 755.28276,506.67172 c -1.38963,-5.17058 -5.30338,-20.86429 -8.69722,-34.8749 -3.39384,-14.01062 -6.44746,-26.42912 -6.78583,-27.59667 -0.48909,-1.68764 0.1329,-2.12282 3.03407,-2.12282 2.0071,0 4.00761,0.57981 4.44558,1.28846 0.43797,0.70865 3.48515,11.76247 6.77152,24.56406 7.34671,28.6181 7.15036,27.99214 8.38558,26.73358 0.55701,-0.56754 3.25352,-10.03871 5.99225,-21.04705 7.53855,-30.30134 8.01968,-31.53905 12.26014,-31.53905 2.00186,0 3.56017,0.65923 3.58428,1.5163 0.0235,0.83397 -3.89867,17.48294 -8.71584,36.99773 l -8.7585,35.48142 h -4.49471 -4.49471 z"
     id="path3849"
     inkscape:connector-curvature="0"
     transform="scale(0.75)" />
  <path
     style="fill:#aa0000;stroke-width:1.21304023"
     d="m 813.94937,516.20011 c -7.79198,-0.95589 -13.49624,-5.00189 -15.22976,-10.80236 -0.85163,-2.84962 -1.19486,-13.42046 -0.94022,-28.95697 0.39596,-24.15861 0.43952,-24.51065 3.43365,-27.753 5.12701,-5.55204 9.39366,-6.61045 26.64792,-6.61045 h 15.80849 v 4.24564 4.24564 h -15.82466 c -15.18411,0 -15.94519,0.12053 -18.80213,2.97746 -2.63512,2.63512 -2.97746,4.02986 -2.97746,12.13041 v 9.15294 h 18.80212 18.80213 v 4.24564 4.24564 H 824.86732 806.0652 v 9.56993 c 0,14.70651 0.53058,15.10155 21.08959,15.70233 l 16.51466,0.48259 v 4.10514 4.10513 l -11.82715,-0.17079 c -6.50492,-0.0939 -14.55674,-0.50565 -17.89293,-0.91492 z"
     id="path3851"
     inkscape:connector-curvature="0"
     transform="scale(0.75)" />
  <path
     style="fill:#aa0000;stroke-width:1.21304023"
     d="m 861.86505,479.68158 v -37.60425 h 14.62584 c 18.67282,0 24.51245,1.41844 28.7586,6.98542 2.61929,3.43407 3.21713,5.47984 3.14097,10.74821 -0.13749,9.51173 -4.39327,15.51334 -12.76317,17.99893 -3.46646,1.02943 -7.62665,1.87169 -9.24487,1.87169 -1.85665,0 -2.72666,0.55945 -2.358,1.5163 0.32131,0.83396 5.83839,8.99263 12.26018,18.13038 6.42179,9.13774 11.67598,16.91636 11.67598,17.28582 0,0.36946 -2.15089,0.67174 -4.77974,0.67174 h -4.77974 l -12.50608,-18.16337 c -6.87835,-9.98986 -12.91549,-18.17788 -13.41587,-18.1956 -0.50038,-0.0177 -0.90978,8.15579 -0.90978,18.16337 v 18.1956 h -4.85216 -4.85216 z m 33.30139,-10.89561 c 5.99056,-2.27761 6.88107,-10.86872 1.63336,-15.7577 -2.26023,-2.10572 -4.26546,-2.45966 -13.93528,-2.45966 h -11.29515 v 9.70432 9.70433 h 10.23187 c 5.62753,0 11.64187,-0.53608 13.3652,-1.19129 z"
     id="path3853"
     inkscape:connector-curvature="0"
     transform="scale(0.75)" />
  <path
     style="fill:#aa0000;stroke-width:1.21304023"
     d="m 920.09098,513.31957 v -4.33705 l 16.484,-0.39725 c 16.34737,-0.39396 16.50825,-0.42546 19.40865,-3.80075 3.99589,-4.65016 4.04394,-12.74902 0.10281,-17.33085 -2.51589,-2.92491 -3.94284,-3.36959 -13.16252,-4.10186 -7.71181,-0.61251 -11.27386,-1.48577 -14.0112,-3.43492 -10.64396,-7.57917 -10.5755,-26.89673 0.12235,-34.52759 3.41925,-2.43897 5.49542,-2.74413 21.07865,-3.0982 l 17.28583,-0.39275 v 4.33513 4.33513 H 952.1568 c -14.62359,0 -19.2774,0.89545 -21.43315,4.12398 -0.49016,0.73409 -0.89956,4.43383 -0.90978,8.22164 -0.0249,9.24437 2.46459,11.2564 15.26676,12.33858 10.18296,0.86077 15.11988,3.04073 19.15952,8.4601 3.65014,4.89685 3.68144,19.75302 0.0518,24.61447 -5.41765,7.25636 -7.17314,7.82897 -26.38874,8.60753 l -17.81227,0.72171 z"
     id="path3855"
     inkscape:connector-curvature="0"
     transform="scale(0.75)" />
  <path
     style="fill:#aa0000;stroke-width:1.21304023"
     d="m 984.38211,479.68158 v -37.60425 h 4.24564 4.24564 v 37.60425 37.60424 h -4.24564 -4.24564 z"
     id="path3857"
     inkscape:connector-curvature="0"
     transform="scale(0.75)" />
  <path
     style="fill:#aa0000;stroke-width:1.21304023"
     d="m 1028.0516,483.92722 v -33.35861 h -9.0978 -9.0978 v -4.24564 -4.24564 h 23.6542 23.6543 v 4.24564 4.24564 h -10.3108 -10.3109 v 33.35861 33.3586 h -4.2456 -4.2456 z"
     id="path3859"
     inkscape:connector-curvature="0"
     transform="scale(0.75)" />
  <path
     style="fill:#aa0000;stroke-width:1.21304023"
     d="m 1087.4905,498.52674 v -18.75908 l -9.0978,-18.20255 c -5.0038,-10.01141 -9.0978,-18.49173 -9.0978,-18.84517 0,-0.35343 1.8866,-0.64261 4.1924,-0.64261 4.0875,0 4.3489,0.30482 10.4512,12.1847 3.4424,6.70158 6.878,11.99198 7.6348,11.75645 0.7567,-0.23553 4.1052,-5.58217 7.4411,-11.88143 5.8572,-11.06043 6.2195,-11.46601 10.5633,-11.82666 l 4.4981,-0.37345 -9.047,18.92906 -9.047,18.92906 v 18.74538 18.74538 h -4.2456 -4.2457 z"
     id="path3861"
     inkscape:connector-curvature="0"
     transform="scale(0.75)" />
  <path
     style="fill:#aa0000;stroke-width:1.21304023"
     d="m 808.97075,399.9696 c -5.32746,-0.67347 -11.43872,-7.36083 -12.70246,-13.8999 -0.55814,-2.888 -1.03857,-17.6694 -1.06762,-32.84756 l -0.0528,-27.59667 h 4.24564 4.24564 v 28.42748 c 0,37.26591 0.4021,38.28973 15.0382,38.28973 7.8889,0 9.10409,-0.32375 11.74049,-3.12797 2.92655,-3.11282 2.94264,-3.2744 3.32094,-33.3586 l 0.38014,-30.23064 h 4.32477 4.32478 l -0.57073,30.62927 c -0.65761,35.29272 -1.25011,37.9721 -9.30554,42.08168 -4.77459,2.43581 -13.0844,3.00315 -23.92142,1.63318 z"
     id="path3863"
     inkscape:connector-curvature="0"
     transform="scale(0.75)" />
  <path
     style="fill:#aa0000;stroke-width:1.21304023"
     d="m 859.43897,363.22972 c 0,-36.37382 0.0768,-37.60425 2.34711,-37.60425 6.17879,0 7.9269,1.97505 13.88411,15.68652 3.23457,7.44486 6.45601,13.34445 7.15877,13.1102 0.70276,-0.23425 3.88613,-6.39994 7.07415,-13.70153 5.85751,-13.41555 6.92539,-14.59929 13.50857,-14.97427 1.97868,-0.11271 2.12282,2.43239 2.12282,37.48333 v 37.60425 h -3.63912 -3.63913 l -0.148,-10.00759 c -0.0814,-5.50417 -0.4908,-17.64973 -0.90978,-26.99014 l -0.76178,-16.98256 -4.24564,9.99175 -4.24564,9.99174 -5.22464,0.0158 -5.22464,0.0158 -3.75051,-8.49128 c -2.06279,-4.67021 -4.21511,-8.49128 -4.78294,-8.49128 -0.56784,0 -1.03243,11.46323 -1.03243,25.47384 v 25.47385 h -4.24564 -4.24564 z"
     id="path3865"
     inkscape:connector-curvature="0"
     transform="scale(0.75)" />
  <path
     style="fill:#aa0000;stroke-width:1.21304023"
     d="m 933.52065,398.70926 c -8.7027,-4.43762 -9.14437,-6.01696 -9.52171,-34.04849 -0.29745,-22.0965 -0.0806,-25.58091 1.81956,-29.24475 4.2124,-8.122 6.91184,-9.10113 26.48707,-9.6073 l 17.52006,-0.45303 v 4.38053 4.38054 h -15.49962 c -17.64896,0 -20.01146,0.88109 -22.05072,8.22378 -0.68938,2.48223 -1.25646,7.37894 -1.26019,10.8816 l -0.007,6.36846 h 19.40864 19.40865 v 3.60832 3.60831 l -19.10539,0.33407 -19.10538,0.33406 -0.40034,4.2135 c -0.68998,7.26196 1.0211,14.71314 4.08149,17.77353 2.73731,2.73731 3.66584,2.88029 18.70495,2.88029 h 15.82467 v 4.24564 4.24565 l -16.07279,-0.002 c -12.90465,-0.001 -16.89265,-0.41994 -20.23219,-2.12282 z"
     id="path3867"
     inkscape:connector-curvature="0"
     transform="scale(0.75)" />
  <path
     style="fill:#aa0000;stroke-width:1.21304023"
     d="m 988.02123,363.22972 v -37.60425 h 4.24564 4.24564 v 37.60425 37.60425 h -4.24564 -4.24564 z"
     id="path3869"
     inkscape:connector-curvature="0"
     transform="scale(0.75)" />
  <path
     style="fill:#aa0000;stroke-width:1.21304023"
     d="m 1138.4382,363.22972 c 0,-35.03735 0.1449,-37.59843 2.1228,-37.51899 5.2758,0.21189 7.1688,2.77757 19.6173,26.58885 7.104,13.58841 13.5796,24.92728 14.3903,25.1975 1.1261,0.37538 1.4739,-5.68583 1.4739,-25.69016 v -26.18145 h 4.2456 4.2456 v 37.60425 37.60425 l -4.5489,-0.0267 -4.5489,-0.0266 -13.9481,-27.26676 c -7.6715,-14.99672 -14.3584,-27.26676 -14.8598,-27.26676 -0.5013,0 -0.9115,12.28203 -0.9115,27.2934 v 27.29341 h -3.6392 -3.6391 z"
     id="path3871"
     inkscape:connector-curvature="0"
     transform="scale(0.75)" />
  <path
     style="fill:#aa0000;stroke-width:1.21304023"
     d="m 1120.5485,365.04928 c -0.013,-2.66869 0.2239,-3.90326 0.5276,-2.74348 0.3036,1.15977 0.3146,3.34324 0.024,4.85216 -0.2901,1.50891 -0.5385,0.56001 -0.552,-2.10868 z"
     id="path3873"
     inkscape:connector-curvature="0"
     transform="scale(0.75)" />
  <path
     style="fill:#aa0000;stroke-width:1.21304023"
     d="m 1074.361,368.93506 c 0.3448,-28.01339 0.6532,-32.29628 2.5323,-35.16127 4.0834,-6.22577 7.6165,-7.5418 20.2476,-7.5418 10.0444,0 12.0817,0.35941 15.3822,2.7137 6.9726,4.97354 7.7195,9.05611 7.7195,42.19334 v 29.69494 h -3.6049 -3.6049 l -0.3375,-16.67931 -0.3375,-16.6793 -14.8597,-0.3406 -14.8597,-0.34059 v 17.0199 17.0199 h -4.335 -4.3349 z m 38.5966,-15.71292 c -0.016,-15.55704 -3.7236,-19.64817 -17.1181,-18.89132 -11.6459,0.65806 -13.2011,2.50643 -13.2011,15.68984 v 9.56994 h 15.163 15.163 l -0.01,-6.36846 z"
     id="path3875"
     inkscape:connector-curvature="0"
     transform="scale(0.75)" />
  <path
     style="fill:#aa0000;stroke-width:1.21304023"
     d="m 1014.7081,363.22972 v -37.60425 h 4.1383 4.1383 l 0.4106,13.24549 c 0.2259,7.28502 0.8701,13.69897 1.4317,14.25322 0.5616,0.55426 3.818,-2.26747 7.2365,-6.2705 13.3261,-15.60462 19.6029,-21.22821 23.6939,-21.22821 2.1083,0 3.8332,0.43099 3.8332,0.95774 0,0.52676 -4.7763,6.70229 -10.6141,13.7234 -14.4102,17.33123 -17.2858,21.22898 -17.2858,23.42972 0,1.03484 6.5119,9.66868 14.4709,19.18632 l 14.4708,17.3048 -4.1542,0.37613 c -5.4091,0.48977 -6.6569,-0.4914 -19.3763,-15.23588 -5.8993,-6.83851 -11.1041,-12.43366 -11.5662,-12.43366 -1.5538,0 -2.3031,5.38748 -2.3197,16.6793 l -0.017,11.22063 h -4.2456 -4.2457 z"
     id="path3877"
     inkscape:connector-curvature="0"
     transform="scale(0.75)" />
</svg>
