<svg xmlns="http://www.w3.org/2000/svg" width="89.599" height="20" viewBox="0 0 89.599 20"><g transform="translate(-786.081 -168.559)"><g transform="translate(820.923 168.735)" style="isolation:isolate"><path d="M853.085,174.7a4.735,4.735,0,0,1,1.845,1.855,6.117,6.117,0,0,1,0,5.564,4.732,4.732,0,0,1-1.845,1.855,5.239,5.239,0,0,1-2.61.66,3.955,3.955,0,0,1-3.231-1.338v1.185H844.4V170.292h2.983v4.991a3.971,3.971,0,0,1,3.1-1.243A5.245,5.245,0,0,1,853.085,174.7Zm-1.243,6.711a3.289,3.289,0,0,0,0-4.149,2.677,2.677,0,0,0-3.766,0,3.289,3.289,0,0,0,0,4.149,2.677,2.677,0,0,0,3.766,0Z" transform="translate(-844.396 -169.432)" fill="#ce2323"/><path d="M873.556,177.7a4.354,4.354,0,0,1,1.282,3.432V187h-2.792v-1.28a3.323,3.323,0,0,1-3.135,1.433,4.865,4.865,0,0,1-2.055-.4,3.061,3.061,0,0,1-1.329-1.109,2.88,2.88,0,0,1-.459-1.606,2.681,2.681,0,0,1,1.081-2.256,5.5,5.5,0,0,1,3.336-.822h2.371a1.9,1.9,0,0,0-.593-1.5,2.611,2.611,0,0,0-1.778-.526,5.189,5.189,0,0,0-1.616.258,4.273,4.273,0,0,0-1.348.7l-1.071-2.083a6.445,6.445,0,0,1,2.017-.918,9.048,9.048,0,0,1,2.419-.325A5.353,5.353,0,0,1,873.556,177.7Zm-2.542,7.093a1.939,1.939,0,0,0,.841-1.042V182.7h-2.046q-1.836,0-1.835,1.205a1.071,1.071,0,0,0,.449.908,2.018,2.018,0,0,0,1.233.335A2.6,2.6,0,0,0,871.014,184.795Z" transform="translate(-852.717 -171.957)" fill="#ce2323"/><path d="M885.932,170.292h2.982v14.187h-2.982Z" transform="translate(-861.115 -169.432)" fill="#ce2323"/><path d="M897.027,186.477a5.046,5.046,0,0,1-2.017-1.883,5.506,5.506,0,0,1,0-5.468,5.048,5.048,0,0,1,2.017-1.884,6.582,6.582,0,0,1,5.822,0,5.064,5.064,0,0,1,2.007,1.884,5.506,5.506,0,0,1,0,5.468,5.062,5.062,0,0,1-2.007,1.883,6.582,6.582,0,0,1-5.822,0Zm4.8-2.543a3.291,3.291,0,0,0,0-4.149,2.484,2.484,0,0,0-1.883-.774,2.515,2.515,0,0,0-1.893.774,3.259,3.259,0,0,0,0,4.149,2.515,2.515,0,0,0,1.893.774A2.484,2.484,0,0,0,901.826,183.935Z" transform="translate(-864.477 -171.957)" fill="#ce2323"/><path d="M922.333,185.076a3.075,3.075,0,0,1-1.08.488,5.5,5.5,0,0,1-1.348.162,4.005,4.005,0,0,1-2.839-.936,3.586,3.586,0,0,1-1-2.754v-4.225h-1.587v-2.294h1.587v-2.5h2.983v2.5h2.562v2.294h-2.562V182a1.4,1.4,0,0,0,.335,1,1.239,1.239,0,0,0,.946.354,1.92,1.92,0,0,0,1.2-.382Z" transform="translate(-872.604 -170.527)" fill="#ce2323"/><path d="M930.352,171.7a1.619,1.619,0,0,1,0-2.371,1.891,1.891,0,0,1,1.338-.477,1.941,1.941,0,0,1,1.339.458,1.471,1.471,0,0,1,.516,1.147,1.623,1.623,0,0,1-.516,1.233,1.872,1.872,0,0,1-1.339.488A1.892,1.892,0,0,1,930.352,171.7Zm-.153,1.912h2.983V183.9H930.2Z" transform="translate(-878.787 -168.853)" fill="#ce2323"/></g><g transform="translate(786.081 168.559)"><path d="M796.553,181.282v-7.27h-7.6a2.876,2.876,0,0,0-2.868,2.868v7.66a2.876,2.876,0,0,0,2.868,2.868h.21v3.346l4.856-3.346h8.541a2.876,2.876,0,0,0,2.868-2.868v-.391h-6A2.875,2.875,0,0,1,796.553,181.282Z" transform="translate(-786.081 -170.754)" fill="#171742"/><path d="M820.082,168.559H806.475a2.875,2.875,0,0,0-2.868,2.868v.391h6a2.876,2.876,0,0,1,2.868,2.868v7.27h2.538l4.856,3.346v-3.346h.21a2.876,2.876,0,0,0,2.868-2.868v-7.66A2.876,2.876,0,0,0,820.082,168.559Z" transform="translate(-793.136 -168.559)" fill="#ce2323"/><path d="M812.06,179.628a.592.592,0,0,0-.836-.009h0l-2.313,2.263-.878-.823a.591.591,0,0,0-.808.863h0l1.29,1.211a.589.589,0,0,0,.817-.01l2.718-2.659a.591.591,0,0,0,.011-.835l0,0Z" transform="translate(-794.516 -172.943)" fill="#ce2323"/></g></g></svg>