<svg width="58" height="62" viewBox="0 0 58 62" fill="none" xmlns="http://www.w3.org/2000/svg">
<path opacity="0.5" fill-rule="evenodd" clip-rule="evenodd" d="M20.1042 50.0462C20.3242 50.0462 20.4342 50.3322 20.4342 50.9042L21.0282 50.2442L21.5562 49.9142L22.1502 50.2442C22.9422 49.6282 23.6682 48.9242 24.3282 48.1322C24.6362 47.7802 25.0762 47.1422 25.6482 46.2182C26.2202 45.2502 26.9462 44.0182 27.8262 42.5222L31.9182 35.5922C32.3582 34.8442 33.1062 33.7222 34.1622 32.2262C35.2182 30.6862 36.4282 28.9702 37.7922 27.0782C39.1562 25.1862 40.5202 23.3162 41.8842 21.4682C42.5952 20.5127 43.267 19.619 43.8995 18.7869C44.8644 18.7922 45.8408 18.8269 46.8287 18.8911C46.7058 21.2899 46.548 24.071 46.3552 27.2346C46.1624 30.3982 45.9609 33.6574 45.7506 37.0122C45.4925 40.3626 45.2432 43.6174 45.0026 46.7766C44.7577 49.9837 44.5259 52.7822 44.3075 55.1722C43.1297 55.402 41.8628 55.5512 40.5069 55.6201C39.571 55.6947 26.1909 56.2023 16.9548 56.5291C16.9325 56.4988 16.9089 56.4698 16.8841 56.4422C16.614 56.0916 16.286 55.9302 15.9001 55.9581C14.2098 56.1098 12.4956 56.2603 10.7574 56.4095C9.01918 56.5588 7.23808 56.6096 5.41407 56.5621C5.44381 54.1604 5.49364 51.3752 5.56357 48.2065C5.6335 45.0378 5.70846 41.7733 5.78844 38.4128C5.91636 35.0549 6.03925 31.7929 6.15711 28.6267C6.27749 25.4126 6.40048 22.6072 6.52609 20.2105C7.69409 19.9352 8.9542 19.7369 10.3064 19.6155C11.5336 19.4696 29.0394 19.073 34.2375 18.9556C33.3228 20.269 32.5497 21.4586 31.9182 22.5242C30.6862 24.4602 29.7842 25.9782 29.2122 27.0782C28.6842 28.1782 28.3102 28.7282 28.0902 28.7282C28.0022 28.7282 27.9142 28.4642 27.8262 27.9362C27.2542 29.3002 26.6822 30.5322 26.1102 31.6322C25.5822 32.7322 25.0542 33.7002 24.5262 34.5362C23.4702 36.2082 22.5462 37.0442 21.7542 37.0442C20.9622 37.0442 20.1702 35.3722 19.3782 32.0282C19.0702 30.6202 18.3662 29.6522 17.2662 29.1242L17.0682 29.0582C16.8922 29.0582 16.6282 29.1682 16.2762 29.3882C16.1002 29.4762 15.9682 29.5642 15.8802 29.6522C15.7922 29.7402 15.7042 29.7842 15.6162 29.7842H15.5502L14.3622 29.3882L13.3062 30.9722C13.1742 31.1482 12.9762 31.2362 12.7122 31.2362C12.3602 31.2362 12.1182 31.1482 11.9862 30.9722C11.7222 31.8962 11.4362 32.3582 11.1282 32.3582C10.8642 32.3582 10.4902 32.2042 10.0062 31.8962C10.2262 33.6562 10.4462 35.1082 10.6662 36.2522C10.8862 37.3962 11.0842 38.2542 11.2602 38.8262C11.5242 39.5302 11.8762 40.4982 12.3162 41.7302C12.8002 42.9622 13.3062 44.2602 13.8342 45.6242C14.4062 46.9442 14.9782 48.1542 15.5502 49.2542C15.6382 49.4302 15.7482 49.6282 15.8802 49.8482C16.0122 50.0682 16.1222 50.2882 16.2102 50.5082C16.7382 50.2002 17.1782 50.0462 17.5302 50.0462L18.0582 50.1122C18.4102 50.2442 18.5862 50.4642 18.5862 50.7722L20.1042 50.0462ZM37.2663 14.8995C37.1229 14.9243 36.9791 14.9498 36.835 14.9761C36.0068 14.7373 35.1024 14.633 34.1217 14.6632C33.3043 14.6684 10.9512 15.1071 9.74535 15.1881C8.54197 15.2212 7.35753 15.3514 6.19204 15.5787C5.02655 15.806 4.02254 16.1619 3.18003 16.6465C2.33751 17.1311 1.89365 17.8048 1.84843 18.6676C1.63449 20.9155 1.44085 23.6931 1.26751 27.0006C1.09418 30.3081 0.937273 33.7606 0.796798 37.3581C0.706768 40.9103 0.644475 44.3918 0.609917 47.8027C0.575359 51.2135 0.613854 54.1476 0.725407 56.6048C0.720586 57.6139 0.894839 58.4162 1.24817 59.0115C1.6015 59.6068 2.01029 60.0609 2.47456 60.3736C2.93883 60.6863 3.40812 60.9032 3.88244 61.0242C4.35927 61.0972 4.71752 61.14 4.95719 61.1526C6.08653 61.1473 7.23916 61.1107 8.41507 61.0429C8.79922 61.0928 9.19781 61.1194 9.61084 61.1227C10.1998 61.1418 25.5718 60.6019 34.5582 60.2862L34.5668 60.2859C38.041 60.1639 40.5589 60.0755 40.8958 60.0659C42.0996 60.0796 43.2882 59.9954 44.4616 59.8135C45.635 59.6316 46.6521 59.3148 47.5128 58.8633C48.3734 58.4118 48.8431 57.7558 48.9218 56.8954C49.2227 54.6575 49.524 51.8895 49.8255 48.5912C50.127 45.293 50.4177 41.8491 50.6976 38.2597C50.9253 34.7137 51.1226 31.2372 51.2895 27.8303C51.4563 24.4233 51.5317 21.49 51.5155 19.0303C51.5595 18.0221 51.4165 17.2137 51.0865 16.6052C50.7565 15.9966 50.3656 15.527 49.9138 15.1965C49.4621 14.866 49.0015 14.6311 48.5323 14.4918C48.0586 14.4003 47.7023 14.3436 47.4633 14.3218C47.4314 14.3207 47.3995 14.3196 47.3676 14.3186C47.6486 13.9771 47.8888 13.6983 48.0882 13.4822C50.0682 11.1942 51.6522 9.41222 52.8402 8.13623C54.0282 6.81623 54.9082 5.82623 55.4802 5.16623C56.0962 4.46223 56.5362 3.93423 56.8002 3.58223C57.1522 3.09823 57.4382 2.68023 57.6582 2.32823C57.8782 1.97623 57.9882 1.66823 57.9882 1.40423C57.9882 1.22823 57.9442 1.05223 57.8562 0.876225C57.7682 0.656226 57.6362 0.546227 57.4602 0.546227C57.1522 0.546227 56.6462 0.788227 55.9422 1.27223L56.4702 0.0842285L54.2262 1.40423L54.3582 0.480227C54.3142 0.656227 54.0942 0.942228 53.6982 1.33823C53.3022 1.73423 53.0382 1.93223 52.9062 1.93223C52.7302 1.93223 52.6422 1.75623 52.6422 1.40423V1.14023L50.7942 2.06423C50.6182 2.06423 50.5302 1.97623 50.5302 1.80023C50.5302 1.71223 50.5522 1.55823 50.5962 1.33823C50.6842 1.07423 50.7502 0.788226 50.7942 0.480227C49.8262 1.53623 48.5062 2.63623 46.8342 3.78023C46.3942 4.08823 45.7122 4.74823 44.7882 5.76023C43.8642 6.77223 42.8082 7.98223 41.6202 9.39023C40.4762 10.7982 39.2882 12.2942 38.0562 13.8782C37.7898 14.2207 37.5265 14.5612 37.2663 14.8995Z" fill="black"/>
</svg>
