<svg width="41" height="56" viewBox="0 0 41 56" fill="none" xmlns="http://www.w3.org/2000/svg">
<path d="M26.4705 55.5109C22.4893 55.5109 19.5895 54.558 17.7678 52.6523C15.9478 50.7474 15.0369 48.6929 15.0369 46.4914C15.0369 45.6864 15.1953 45.0091 15.5129 44.4588C15.8228 43.9157 16.2727 43.4658 16.8158 43.1559C17.3662 42.8383 18.0434 42.6799 18.8484 42.6799C19.6534 42.6799 20.3298 42.8383 20.881 43.1559C21.4314 43.4735 21.8654 43.9084 22.183 44.4588C22.5007 45.0091 22.659 45.6864 22.659 46.4914C22.659 47.4653 22.4263 48.2589 21.9608 48.8731C21.4944 49.4874 20.944 49.889 20.3088 50.0806C20.86 50.8419 21.728 51.3818 22.9137 51.6994C24.0993 52.0389 25.2849 52.2078 26.4705 52.2078C28.1217 52.2078 29.6144 51.7633 30.9488 50.8743C32.2823 49.9844 33.2675 48.6719 33.9028 46.9359C34.538 45.1999 34.8557 43.2303 34.8557 41.0279C34.8557 38.6356 34.5057 36.5916 33.8074 34.8985C33.1293 33.1835 32.1239 31.913 30.7895 31.087C29.4963 30.2732 27.9985 29.8438 26.4705 29.8489C25.4538 29.8489 24.1842 30.2724 22.659 31.1194L19.8643 32.5168V31.1194L32.4415 14.35H15.0369V31.7538C15.0369 33.194 15.3545 34.3796 15.9898 35.3115C16.625 36.2434 17.5989 36.7089 18.9123 36.7089C19.9273 36.7089 20.902 36.3703 21.8339 35.6921C22.7718 35.0082 23.5876 34.1711 24.2472 33.2159C24.332 33.0243 24.4379 32.8869 24.5648 32.802C24.6789 32.7012 24.8255 32.645 24.9778 32.6436C25.2105 32.6436 25.4853 32.76 25.8038 32.9936C26.1004 33.3314 26.2483 33.7234 26.2483 34.1679C26.2118 34.4673 26.1587 34.7643 26.089 35.0578C25.3698 36.6669 24.374 37.8945 23.1035 38.7415C21.8666 39.5782 20.4056 40.0211 18.9123 40.012C15.1428 40.012 12.5379 39.2709 11.0985 37.7895C9.65916 36.3064 8.93903 34.2948 8.93903 31.7546V14.35H0.0455322V11.1099H8.93903V3.74239L6.90641 1.70802V0.0577698H12.8135L15.036 1.20052V11.1099L38.031 11.0469L40.3183 13.3333L26.2168 27.4348C27.0705 27.0945 27.9692 26.8805 28.8847 26.7995C30.4089 26.7995 32.1239 27.2869 34.0297 28.2608C35.9564 29.2136 37.4387 30.527 38.4755 32.1983C39.5133 33.8503 40.18 35.4384 40.4767 36.9626C40.7943 38.4878 40.9535 39.8423 40.9535 41.0279C40.9535 43.7386 40.3813 46.2578 39.2385 48.5879C38.0949 50.9163 36.3589 52.6523 34.0297 53.7959C31.7004 54.9395 29.1804 55.5109 26.4705 55.5109Z" fill="#007AEA"/>
</svg>
