<svg id="Group_13580" data-name="Group 13580" xmlns="http://www.w3.org/2000/svg" width="91.333" height="65.912" viewBox="0 0 91.333 65.912">
  <g id="Group_13582" data-name="Group 13582" transform="translate(0 40.56)" style="mix-blend-mode: normal;isolation: isolate">
    <path id="Path_20149" data-name="Path 20149" d="M858.889,177.643a7.9,7.9,0,0,1,3.077,3.093,10.2,10.2,0,0,1,0,9.28,7.893,7.893,0,0,1-3.077,3.093,8.739,8.739,0,0,1-4.353,1.1,6.6,6.6,0,0,1-5.39-2.232v1.977H844.4V170.292h4.975v8.324a6.623,6.623,0,0,1,5.165-2.074A8.749,8.749,0,0,1,858.889,177.643Zm-2.073,11.194a5.487,5.487,0,0,0,0-6.92,4.465,4.465,0,0,0-6.282,0,5.486,5.486,0,0,0,0,6.92,4.465,4.465,0,0,0,6.282,0Z" transform="translate(-844.396 -168.858)" fill="#ce2323"/>
    <path id="Path_20150" data-name="Path 20150" d="M879.226,178.462q2.136,1.9,2.138,5.724v9.79h-4.657v-2.136q-1.4,2.39-5.229,2.391a8.116,8.116,0,0,1-3.429-.67,5.106,5.106,0,0,1-2.216-1.85,4.8,4.8,0,0,1-.766-2.679,4.472,4.472,0,0,1,1.8-3.763q1.8-1.371,5.565-1.371h3.954a3.172,3.172,0,0,0-.989-2.5,4.355,4.355,0,0,0-2.966-.877,8.656,8.656,0,0,0-2.695.43,7.136,7.136,0,0,0-2.248,1.164l-1.786-3.475a10.754,10.754,0,0,1,3.364-1.532,15.09,15.09,0,0,1,4.034-.542A8.928,8.928,0,0,1,879.226,178.462Zm-4.24,11.831a3.234,3.234,0,0,0,1.4-1.738V186.8h-3.412q-3.063,0-3.061,2.01a1.786,1.786,0,0,0,.749,1.514,3.367,3.367,0,0,0,2.056.559A4.334,4.334,0,0,0,874.986,190.293Z" transform="translate(-844.467 -168.879)" fill="#ce2323"/>
    <path id="Path_20151" data-name="Path 20151" d="M885.932,170.292h4.974v23.663h-4.974Z" transform="translate(-844.538 -168.858)" fill="#ce2323"/>
    <path id="Path_20152" data-name="Path 20152" d="M898.859,193.1a8.416,8.416,0,0,1-3.364-3.141,9.185,9.185,0,0,1,0-9.12,8.419,8.419,0,0,1,3.364-3.142,10.977,10.977,0,0,1,9.711,0,8.448,8.448,0,0,1,3.348,3.142,9.184,9.184,0,0,1,0,9.12,8.445,8.445,0,0,1-3.348,3.141,10.978,10.978,0,0,1-9.711,0Zm8-4.241a5.489,5.489,0,0,0,0-6.92,4.142,4.142,0,0,0-3.141-1.292,4.2,4.2,0,0,0-3.157,1.292,5.435,5.435,0,0,0,0,6.92,4.2,4.2,0,0,0,3.157,1.292A4.142,4.142,0,0,0,906.864,188.858Z" transform="translate(-844.567 -168.879)" fill="#ce2323"/>
    <path id="Path_20153" data-name="Path 20153" d="M927.582,193.135a5.13,5.13,0,0,1-1.8.814,9.178,9.178,0,0,1-2.248.27,6.68,6.68,0,0,1-4.736-1.562,5.981,5.981,0,0,1-1.674-4.593v-7.048h-2.647V177.19h2.647v-4.178H922.1v4.178h4.273v3.827H922.1V188a2.343,2.343,0,0,0,.558,1.674,2.067,2.067,0,0,0,1.579.59,3.2,3.2,0,0,0,2.009-.637Z" transform="translate(-844.636 -168.867)" fill="#ce2323"/>
    <path id="Path_20154" data-name="Path 20154" d="M930.7,173.6a2.7,2.7,0,0,1,0-3.954,3.154,3.154,0,0,1,2.231-.8,3.237,3.237,0,0,1,2.233.764,2.454,2.454,0,0,1,.861,1.913,2.706,2.706,0,0,1-.861,2.057,3.122,3.122,0,0,1-2.233.813A3.155,3.155,0,0,1,930.7,173.6Zm-.255,3.189h4.975V193.95h-4.975Z" transform="translate(-844.688 -168.853)" fill="#ce2323"/>
  </g>
  <g id="Group_13578" data-name="Group 13578" transform="translate(20.803 0)">
    <g id="Group_13577" data-name="Group 13577">
      <path id="Path_20051" data-name="Path 20051" d="M803.548,186.137V174.012H790.865a4.8,4.8,0,0,0-4.784,4.784v12.777a4.8,4.8,0,0,0,4.784,4.784h.351v5.581l8.1-5.581h14.246a4.8,4.8,0,0,0,4.783-4.784v-.652H808.331A4.8,4.8,0,0,1,803.548,186.137Z" transform="translate(-786.081 -168.578)" fill="#171742"/>
      <path id="Path_20052" data-name="Path 20052" d="M831.085,168.559H808.391a4.8,4.8,0,0,0-4.784,4.784v.652h10.011a4.8,4.8,0,0,1,4.784,4.784V190.9h4.234l8.1,5.581V190.9h.35a4.8,4.8,0,0,0,4.784-4.784V173.343A4.8,4.8,0,0,0,831.085,168.559Z" transform="translate(-786.141 -168.559)" fill="#ce2323"/>
    </g>
    <path id="Path_20053" data-name="Path 20053" d="M815.415,179.747a.987.987,0,0,0-1.4-.015h0l-3.859,3.774-1.464-1.372a.986.986,0,0,0-1.347,1.439h0l2.152,2.02a.983.983,0,0,0,1.362-.017l4.533-4.435a.986.986,0,0,0,.018-1.392l0,0Z" transform="translate(-786.153 -168.596)" fill="#ce2323"/>
  </g>
</svg>
