<svg xmlns="http://www.w3.org/2000/svg" width="20.675" height="21.122" viewBox="0 0 20.675 21.122">
  <g id="Group_13666" data-name="Group 13666" transform="translate(-3011.673 3677.461)">
    <path id="Path_20163" data-name="Path 20163" d="M3132.155-3677.444c.38.027.759.064,1.135.125a10.048,10.048,0,0,1,2.261.642,10.079,10.079,0,0,1,2.972,1.915c.062.057.062.058,0,.116l-2.894,2.894c-.068.068-.062.052-.121,0a5.614,5.614,0,0,0-2-1.2,5.838,5.838,0,0,0-1.448-.3,6.317,6.317,0,0,0-1.163.008,5.974,5.974,0,0,0-2.577.884,6.411,6.411,0,0,0-2.7,3.369c-.009.026-.021.05-.032.075-.136-.1-.272-.208-.407-.313l-1.461-1.135q-.442-.344-.885-.688c-.246-.191-.495-.38-.742-.57a.306.306,0,0,1,.041-.094,10.482,10.482,0,0,1,3.527-3.959,10.28,10.28,0,0,1,5.37-1.763c.027,0,.056,0,.079-.016h.557C3131.838-3677.469,3132-3677.433,3132.155-3677.444Z" transform="translate(-109.293 0)" fill="#ea4335"/>
    <path id="Path_20164" data-name="Path 20164" d="M3132.12-2449.839c-.24,0-.481.006-.721,0a10.423,10.423,0,0,1-6.412-2.418,10.436,10.436,0,0,1-2.667-3.317.251.251,0,0,1-.04-.094c.02-.013.041-.026.06-.04l1.6-1.245,1.831-1.421c.086.216.162.437.262.648a6.326,6.326,0,0,0,3.888,3.442,5.81,5.81,0,0,0,1.868.266,6.675,6.675,0,0,0,2.53-.5,5.748,5.748,0,0,0,.883-.465.27.27,0,0,1,.089-.05.3.3,0,0,0,.029.029l.8.624q1.056.82,2.112,1.641a5.37,5.37,0,0,1,.433.347,8.041,8.041,0,0,1-1.053.841,9.717,9.717,0,0,1-3.487,1.469,10.969,10.969,0,0,1-1.8.23C3132.264-2449.854,3132.192-2449.845,3132.12-2449.839Z" transform="translate(-109.465 -1206.501)" fill="#34a853"/>
    <path id="Path_20165" data-name="Path 20165" d="M4042.106-2814.67a5.464,5.464,0,0,0-.432-.347q-1.054-.822-2.112-1.641l-.8-.624a.292.292,0,0,1-.029-.029c.159-.126.326-.24.479-.373a4.874,4.874,0,0,0,1.6-2.677.556.556,0,0,0,.008-.061.032.032,0,0,0-.034-.04h-5.507c-.156,0-.137.019-.137-.136q0-1.851,0-3.7c0-.142-.013-.126.127-.126h9.694c.119,0,.121,0,.139.117.05.336.09.674.114,1.013.027.371.041.741.033,1.112a11.49,11.49,0,0,1-.844,4.206,9.392,9.392,0,0,1-1.756,2.772A6.028,6.028,0,0,1,4042.106-2814.67Z" transform="translate(-1012.901 -844.229)" fill="#4285f4"/>
    <path id="Path_20166" data-name="Path 20166" d="M3016.308-3105.51l-1.831,1.421-1.6,1.245c-.019.015-.04.027-.059.04a4.717,4.717,0,0,1-.268-.555,10.4,10.4,0,0,1-.736-2.48,10.256,10.256,0,0,1-.123-2.238,10.367,10.367,0,0,1,1.065-4.075.392.392,0,0,1,.06-.107c.247.19.5.379.742.57.3.229.59.459.884.688l1.462,1.135.407.313c-.051.192-.113.381-.159.574a6.242,6.242,0,0,0-.171,1.6,6.178,6.178,0,0,0,.309,1.788C3016.3-3105.563,3016.3-3105.536,3016.308-3105.51Z" transform="translate(0 -559.368)" fill="#fbbc05"/>
  </g>
</svg>
