<svg xmlns="http://www.w3.org/2000/svg" xmlns:xlink="http://www.w3.org/1999/xlink" width="171.821" height="176.883" viewBox="0 0 171.821 176.883">
  <defs>
    <linearGradient id="linear-gradient" x1="0.5" x2="0.5" y2="1" gradientUnits="objectBoundingBox">
      <stop offset="0" stop-color="#fcb9b9"/>
      <stop offset="1" stop-color="#ec6952"/>
    </linearGradient>
  </defs>
  <g id="Group_13544" data-name="Group 13544" transform="translate(-171.372 -111.032)">
    <g id="Group_13542" data-name="Group 13542" transform="translate(163.372 111.032)">
      <g id="Group_13531" data-name="Group 13531" transform="translate(22.736 19.799)">
        <circle id="Ellipse_1161" data-name="Ellipse 1161" cx="78.542" cy="78.542" r="78.542" fill="#f9f9f9"/>
      </g>
      <g id="Group_13541" data-name="Group 13541" transform="translate(8)">
        <g id="Group_13532" data-name="Group 13532">
          <path id="Path_19919" data-name="Path 19919" d="M163.011,110.469l20.719,48.613,15.143-10.359,8.776,12.751,1.584-21.511L227.559,128.8Z" transform="translate(-163.011 -110.469)" fill="#ffe5bb"/>
          <path id="Path_19920" data-name="Path 19920" d="M200.217,144.991l-18.5,12.66,15.143-10.359,8.776,12.751,1.584-21.511-29.2-17.392Z" transform="translate(-160.998 -109.038)" fill="#f6b67d"/>
        </g>
        <g id="Group_13533" data-name="Group 13533" transform="translate(16.585 53.879)">
          <path id="Path_19922" data-name="Path 19922" d="M202.771,161.167c-.163-.947-.371-1.892-.616-2.809l1.421-.38c.256.959.473,1.948.644,2.938Z" transform="translate(-174.347 -157.978)" fill="#ee7562"/>
          <path id="Path_19923" data-name="Path 19923" d="M188.9,193.129A12.154,12.154,0,0,1,183,191.158l.813-1.225A10.691,10.691,0,0,0,189,191.662Zm6.109-1.2-.649-1.319a14.8,14.8,0,0,0,4.4-3.465l1.094.982A16.211,16.211,0,0,1,195.011,191.929ZM178.9,186.462a12.127,12.127,0,0,1-1.268-5.344c0-.149,0-.3.009-.447l.018-.319,1.466.108-.015.268c0,.133-.008.262-.008.39a10.637,10.637,0,0,0,1.116,4.693Zm56.9-.336-.007-1.471c1.915-.009,3.887-.087,5.859-.232l.108,1.466C239.76,186.038,237.755,186.117,235.806,186.126Zm-5.965-.193-.939-.073c-1.808-.151-3.446-.354-5.008-.625l.249-1.449c1.52.263,3.116.462,4.88.609l.92.069Zm17.851-.669-.2-1.457c1.892-.257,3.841-.58,5.8-.956l.278,1.444C251.587,184.677,249.61,185,247.691,185.264Zm-29.642-1.487a28.486,28.486,0,0,1-4.818-2.134c-.23-.129-.46-.264-.687-.4l.76-1.26c.214.129.43.256.649.379a27.023,27.023,0,0,0,4.57,2.025Zm-14.677-.585-1.276-.733a33.029,33.029,0,0,0,2.426-5.245l1.384.5A34.631,34.631,0,0,1,203.372,183.192Zm56.007-.163-.346-1.429c1.84-.447,3.754-.954,5.689-1.507l.4,1.414C263.171,182.066,261.239,182.578,259.379,183.029Zm11.428-3.257-.454-1.4q2.8-.908,5.58-1.9l.492,1.387Q273.632,178.854,270.807,179.772Zm-63.173-1.938a40.7,40.7,0,0,0-4.379-2.881l-.492-.261.674-1.308c.176.09.35.184.524.278a42.6,42.6,0,0,1,4.54,2.983Zm-26.445-2.211-1.029-1.051a12.564,12.564,0,0,1,5.413-2.9l.494,1.387A11.454,11.454,0,0,0,181.189,175.622Zm16.2-2.872a23.366,23.366,0,0,0-5.1-.564l-.6.007-.036-1.47a24.879,24.879,0,0,1,6.051.592Zm10.068-.866-1.448-.257a34.144,34.144,0,0,0,.522-5.759l1.471.007A35.571,35.571,0,0,1,207.459,171.884Z" transform="translate(-177.635 -156.92)" fill="#ee7562"/>
          <path id="Path_19924" data-name="Path 19924" d="M269.771,174.9l-.523-1.375q1.373-.524,2.742-1.06l.534,1.371Q271.152,174.375,269.771,174.9Z" transform="translate(-165.351 -156.035)" fill="#ee7562"/>
        </g>
        <g id="Group_13537" data-name="Group 13537" transform="translate(46.906 41.283)">
          <g id="Group_13536" data-name="Group 13536">
            <path id="Path_19926" data-name="Path 19926" d="M306.846,210.187,255.608,240.4l-51.237-30.215a.293.293,0,0,1,.008-.083c.042-.192,2.87-2.553,7.183-6.057.041-.033.075-.066.117-.1,14.148-11.487,43.929-35.012,43.929-35.012s29.782,23.524,43.93,35.012c4.38,3.554,7.258,5.956,7.3,6.157A.292.292,0,0,1,306.846,210.187Z" transform="translate(-204.371 -143.912)" fill="#8d4b4b"/>
            <g id="Group_13534" data-name="Group 13534" transform="translate(8.441)">
              <path id="Path_19927" data-name="Path 19927" d="M275.682,146.871H220.4a8.587,8.587,0,0,0-8.586,8.586v83.586a8.586,8.586,0,0,0,8.586,8.585h69.27a8.586,8.586,0,0,0,8.586-8.585v-69.6Z" transform="translate(-211.814 -146.871)" fill="#fff"/>
              <path id="Path_19928" data-name="Path 19928" d="M268.131,160.86a8.585,8.585,0,0,0,8.586,8.585H290.7l-22.574-22.574Z" transform="translate(-204.263 -146.871)" fill="#e6e8e8"/>
              <path id="Path_19929" data-name="Path 19929" d="M271.6,187.713H225.835a2.279,2.279,0,0,0-2.464,2.03h0a2.279,2.279,0,0,0,2.464,2.03H271.6a2.279,2.279,0,0,0,2.464-2.03h0A2.279,2.279,0,0,0,271.6,187.713Z" transform="translate(-210.264 -141.395)" fill="#e8e8e8"/>
              <path id="Path_19930" data-name="Path 19930" d="M271.6,198.537H225.835a2.3,2.3,0,0,0-2.464,2.087h0a2.3,2.3,0,0,0,2.464,2.087H271.6a2.3,2.3,0,0,0,2.464-2.087h0A2.3,2.3,0,0,0,271.6,198.537Z" transform="translate(-210.264 -139.943)" fill="#e8e8e8"/>
              <path id="Path_19931" data-name="Path 19931" d="M250.816,209.037H225.835a2.3,2.3,0,0,0-2.464,2.084h0a2.3,2.3,0,0,0,2.464,2.084h24.981a2.3,2.3,0,0,0,2.464-2.084h0A2.3,2.3,0,0,0,250.816,209.037Z" transform="translate(-210.264 -138.535)" fill="#e8e8e8"/>
              <text id="_" data-name="*****" transform="translate(40.043 41.902)" fill="#e3e3e3" font-size="20" font-family="Poppins-Medium, Poppins" font-weight="500" letter-spacing="0.056em"><tspan x="-26" y="0">*****</tspan></text>
            </g>
            <g id="Group_13535" data-name="Group 13535" transform="translate(0.006 66.274)">
              <path id="Path_19932" data-name="Path 19932" d="M306.851,205.309v49.156a6.26,6.26,0,0,1-6.244,6.243h-90a6.245,6.245,0,0,1-6.227-6.243V205.309l51.237,30.21Z" transform="translate(-204.376 -205.309)" fill="url(#linear-gradient)"/>
              <path id="Path_19933" data-name="Path 19933" d="M304.915,256.332l-32.978-32.978L255.409,233.1l-16.534-9.749-32.98,32.98a6.188,6.188,0,0,0,4.5,1.957h90A6.212,6.212,0,0,0,304.915,256.332Z" transform="translate(-204.172 -202.89)" fill="url(#linear-gradient)"/>
            </g>
          </g>
        </g>
      </g>
    </g>
  </g>
</svg>
