<svg xmlns="http://www.w3.org/2000/svg" width="165.231" height="36.882" viewBox="0 0 165.231 36.882">
  <g id="Group_13580" data-name="Group 13580" transform="translate(-786.081 -168.559)">
    <g id="Group_13582" data-name="Group 13582" transform="translate(850.334 168.883)" style="mix-blend-mode: normal;isolation: isolate">
      <path id="Path_20149" data-name="Path 20149" d="M860.42,178.419a8.732,8.732,0,0,1,3.4,3.42,11.281,11.281,0,0,1,0,10.26,8.725,8.725,0,0,1-3.4,3.42,9.661,9.661,0,0,1-4.813,1.216,7.293,7.293,0,0,1-5.959-2.468v2.186H844.4V170.292h5.5v9.2a7.322,7.322,0,0,1,5.711-2.293A9.673,9.673,0,0,1,860.42,178.419Zm-2.292,12.376a6.065,6.065,0,0,0,0-7.651,4.936,4.936,0,0,0-6.945,0,6.065,6.065,0,0,0,0,7.651,4.936,4.936,0,0,0,6.945,0Z" transform="translate(-844.396 -168.706)" fill="#ce2323"/>
      <path id="Path_20150" data-name="Path 20150" d="M880.722,178.662q2.362,2.1,2.363,6.329v10.824h-5.149v-2.361q-1.55,2.643-5.781,2.643a8.971,8.971,0,0,1-3.79-.74,5.645,5.645,0,0,1-2.45-2.045,5.31,5.31,0,0,1-.847-2.962,4.944,4.944,0,0,1,1.993-4.16q1.99-1.516,6.153-1.516h4.372a3.507,3.507,0,0,0-1.093-2.768,4.814,4.814,0,0,0-3.279-.97,9.569,9.569,0,0,0-2.979.476,7.881,7.881,0,0,0-2.486,1.287l-1.974-3.842a11.887,11.887,0,0,1,3.72-1.694,16.685,16.685,0,0,1,4.46-.6Q878.359,176.564,880.722,178.662Zm-4.688,13.081a3.575,3.575,0,0,0,1.551-1.922v-1.939h-3.773q-3.386,0-3.385,2.222a1.975,1.975,0,0,0,.829,1.674,3.722,3.722,0,0,0,2.273.618A4.792,4.792,0,0,0,876.033,191.743Z" transform="translate(-842.291 -168.068)" fill="#ce2323"/>
      <path id="Path_20151" data-name="Path 20151" d="M885.932,170.292h5.5v26.162h-5.5Z" transform="translate(-840.167 -168.706)" fill="#ce2323"/>
      <path id="Path_20152" data-name="Path 20152" d="M899.343,194.845a9.3,9.3,0,0,1-3.72-3.473,10.155,10.155,0,0,1,0-10.083,9.307,9.307,0,0,1,3.72-3.474,12.137,12.137,0,0,1,10.736,0,9.339,9.339,0,0,1,3.7,3.474,10.154,10.154,0,0,1,0,10.083,9.336,9.336,0,0,1-3.7,3.473,12.137,12.137,0,0,1-10.736,0Zm8.85-4.689a6.069,6.069,0,0,0,0-7.651,4.581,4.581,0,0,0-3.473-1.428,4.638,4.638,0,0,0-3.491,1.428,6.009,6.009,0,0,0,0,7.651,4.638,4.638,0,0,0,3.491,1.428A4.581,4.581,0,0,0,908.192,190.156Z" transform="translate(-839.316 -168.068)" fill="#ce2323"/>
      <path id="Path_20153" data-name="Path 20153" d="M928.966,195.26a5.67,5.67,0,0,1-1.992.9,10.146,10.146,0,0,1-2.486.3,7.386,7.386,0,0,1-5.236-1.727,6.613,6.613,0,0,1-1.851-5.078v-7.792h-2.926v-4.231H917.4v-4.619h5.5v4.619h4.725v4.231H922.9v7.722a2.591,2.591,0,0,0,.617,1.851,2.285,2.285,0,0,0,1.745.652,3.54,3.54,0,0,0,2.221-.7Z" transform="translate(-837.26 -168.43)" fill="#ce2323"/>
      <path id="Path_20154" data-name="Path 20154" d="M930.787,174.105a2.986,2.986,0,0,1,0-4.372,3.488,3.488,0,0,1,2.467-.88,3.579,3.579,0,0,1,2.469.845,2.713,2.713,0,0,1,.952,2.115,2.992,2.992,0,0,1-.952,2.274,3.451,3.451,0,0,1-2.469.9A3.488,3.488,0,0,1,930.787,174.105Zm-.282,3.526h5.5V196.6h-5.5Z" transform="translate(-835.696 -168.853)" fill="#ce2323"/>
    </g>
    <g id="Group_13578" data-name="Group 13578" transform="translate(786.081 168.559)">
      <g id="Group_13577" data-name="Group 13577">
        <path id="Path_20051" data-name="Path 20051" d="M805.393,187.418V174.012H791.37a5.3,5.3,0,0,0-5.289,5.289v14.126a5.3,5.3,0,0,0,5.289,5.289h.388v6.17l8.955-6.17h15.751a5.3,5.3,0,0,0,5.289-5.289v-.721H810.68A5.3,5.3,0,0,1,805.393,187.418Z" transform="translate(-786.081 -168.004)" fill="#171742"/>
        <path id="Path_20052" data-name="Path 20052" d="M833.988,168.559H808.9a5.3,5.3,0,0,0-5.289,5.289v.721h11.069a5.3,5.3,0,0,1,5.289,5.289v13.406h4.681l8.955,6.17v-6.17h.387a5.3,5.3,0,0,0,5.289-5.289V173.848A5.3,5.3,0,0,0,833.988,168.559Z" transform="translate(-784.296 -168.559)" fill="#ce2323"/>
      </g>
      <path id="Path_20053" data-name="Path 20053" d="M816.3,179.778a1.091,1.091,0,0,0-1.542-.017h0l-4.266,4.173-1.619-1.517a1.09,1.09,0,1,0-1.49,1.591h0l2.379,2.233a1.087,1.087,0,0,0,1.506-.019l5.012-4.9a1.09,1.09,0,0,0,.02-1.539l0,0Z" transform="translate(-783.947 -167.45)" fill="#ce2323"/>
    </g>
  </g>
</svg>
