<?xml version="1.0" encoding="utf-8"?>
<!-- Generator: Adobe Illustrator 24.1.3, SVG Export Plug-In . SVG Version: 6.00 Build 0)  -->
<svg version="1.1" id="Ebene_1" xmlns="http://www.w3.org/2000/svg" xmlns:xlink="http://www.w3.org/1999/xlink" x="0px" y="0px"
	 viewBox="0 0 60 60" style="enable-background:new 0 0 60 60;" xml:space="preserve">
<style type="text/css">
	.st0{fill:#FFFFFF;}
	.st1{fill:none;}
	.st2{fill:url(#SVGID_1_);}
	.st3{fill:url(#SVGID_2_);}
</style>
<g>
	<rect x="5.1" y="27.7" class="st0" width="49.6" height="31.3"/>
	<path class="st1" d="M38.6,50.9c-0.5,0.1-1,0.1-1.4,0.1c-0.7,0.1-1.5-0.2-1.9-0.8c-0.3-0.7-0.5-1.4-0.5-2.2v-5.3H40v-3.6h-5.3v-4.4
		h-4.3v13.4c0,0.9,0.1,1.8,0.3,2.7c0.2,0.8,0.5,1.5,1,2.1c0.5,0.6,1.1,1.1,1.8,1.3c0.9,0.3,1.9,0.5,2.9,0.5c0.8,0,1.6-0.1,2.3-0.2
		c0.6-0.1,1.2-0.3,1.7-0.5L40,50.5C39.6,50.7,39.1,50.8,38.6,50.9z"/>
	<path class="st1" d="M53.7,48.4c-0.2-0.5-0.4-0.9-0.8-1.3c-0.4-0.4-0.9-0.8-1.5-1.1c-0.8-0.4-1.6-0.7-2.4-1
		c-0.5-0.2-0.8-0.3-1.2-0.5c-0.2-0.1-0.5-0.2-0.7-0.4c-0.2-0.1-0.3-0.2-0.4-0.4c-0.1-0.1-0.1-0.3-0.1-0.5c0-0.8,0.6-1.2,2-1.2
		c0.7,0,1.3,0,2,0.2c0.6,0.1,1.1,0.3,1.6,0.4l0.7-3.4c-0.7-0.2-1.3-0.4-2-0.5c-0.9-0.1-1.8-0.2-2.7-0.2c-1.6-0.1-3.1,0.4-4.4,1.4
		c-1,0.8-1.6,2.1-1.5,3.4c0,0.6,0.1,1.3,0.4,1.9c0.2,0.5,0.5,1,0.9,1.3c0.4,0.4,0.9,0.7,1.4,0.9c0.6,0.3,1.2,0.5,1.8,0.7
		c0.7,0.2,1.4,0.5,2,0.8c0.4,0.2,0.6,0.5,0.7,0.9c0,0.4-0.1,0.7-0.5,0.9c-0.5,0.2-1.1,0.3-1.7,0.3c-0.8,0-1.5,0-2.3-0.2
		c-0.8-0.1-1.6-0.3-2.3-0.6L42.4,54c0.6,0.2,1.2,0.4,1.9,0.5c1.1,0.2,2.2,0.3,3.4,0.3c1.7,0.1,3.3-0.4,4.8-1.3
		c1.1-0.8,1.8-2.1,1.6-3.5C54,49.4,53.9,48.9,53.7,48.4z"/>
	<rect x="23" y="40.5" class="st1" width="4.3" height="13.8"/>
	<rect x="23.1" y="34.7" class="st1" width="4.3" height="4.3"/>
	
		<linearGradient id="SVGID_1_" gradientUnits="userSpaceOnUse" x1="10.2012" y1="17.2682" x2="15.7912" y2="10.5982" gradientTransform="matrix(1 0 0 -1 0 60.5488)">
		<stop  offset="0" style="stop-color:#E7362F"/>
		<stop  offset="0.77" style="stop-color:#9C1006"/>
	</linearGradient>
	<path class="st2" d="M16.5,46.8c0.1-1.1-0.3-2.3-0.9-3.2c-0.6-0.8-1.6-1.3-2.7-1.2c-0.4,0-0.7,0-1.1,0s-0.6,0.1-0.8,0.1v7.8
		c0.3,0.2,0.7,0.4,1.1,0.4c0.4,0.1,0.9,0.2,1.3,0.2C15.4,51,16.5,49.6,16.5,46.8z"/>
	
		<linearGradient id="SVGID_2_" gradientUnits="userSpaceOnUse" x1="4.6521" y1="60.7663" x2="55.3479" y2="0.3313" gradientTransform="matrix(1 0 0 -1 0 60.5488)">
		<stop  offset="0" style="stop-color:#E7362F"/>
		<stop  offset="0.77" style="stop-color:#9C1006"/>
	</linearGradient>
	<path class="st3" d="M55.5,1H4.4C2.5,1,1,2.5,1,4.4v51.1C1,57.5,2.5,59,4.4,59h2.3V39.6c0.4-0.1,0.8-0.2,1.3-0.3s1-0.2,1.6-0.3
		s1.1-0.1,1.7-0.2s1.1-0.1,1.6-0.1c1.1,0,2.3,0.2,3.4,0.6c1.9,0.7,3.4,2.2,4,4.1c0.4,1.1,0.5,2.2,0.5,3.3c0,1.1-0.1,2.2-0.4,3.2
		c-0.3,0.9-0.7,1.7-1.3,2.5c-0.6,0.7-1.3,1.2-2.1,1.6c-0.9,0.4-1.9,0.6-2.9,0.6c-0.6,0-1.1-0.1-1.7-0.2c-0.5-0.1-1-0.2-1.5-0.4v5
		h44.5c1.9,0,3.4-1.5,3.5-3.5V4.4C59,2.5,57.5,1,55.5,1z M23.1,34.7h4.3V39h-4.3V34.7z M27.3,54.3H23V40.5h4.3L27.3,54.3z
		 M38.8,54.4c-0.8,0.2-1.6,0.2-2.3,0.2c-1,0-2-0.1-2.9-0.5c-0.7-0.3-1.4-0.7-1.9-1.3c-0.5-0.6-0.8-1.3-1-2.1
		c-0.2-0.9-0.3-1.8-0.3-2.7V34.7h4.2v4.4H40v3.6h-5.2V48c0,0.8,0.1,1.5,0.5,2.2c0.5,0.6,1.2,0.9,1.9,0.8c1,0,1.9-0.1,2.8-0.5
		l0.6,3.3C40,54.1,39.4,54.3,38.8,54.4z M52.4,53.4c-1.4,0.9-3.1,1.3-4.8,1.3c-1.1,0.1-2.3,0-3.4-0.3c-0.6-0.1-1.3-0.3-1.9-0.5
		l0.6-3.6c0.7,0.3,1.5,0.5,2.3,0.6c0.8,0.1,1.5,0.2,2.3,0.2c0.6,0,1.1-0.1,1.7-0.2c0.3-0.2,0.5-0.5,0.5-0.9c0-0.4-0.3-0.7-0.7-0.9
		c-0.6-0.3-1.3-0.6-2-0.8c-0.6-0.2-1.2-0.5-1.8-0.7c-0.5-0.2-1-0.5-1.4-0.9c-0.4-0.4-0.7-0.8-0.9-1.3c-0.2-0.6-0.4-1.2-0.4-1.9
		C42.4,42.2,43,40.9,44,40c1.3-0.9,2.8-1.4,4.3-1.3c0.9,0,1.8,0,2.7,0.2c0.7,0.1,1.3,0.3,2,0.5l-0.7,3.4c-0.5-0.2-1.1-0.3-1.6-0.4
		c-0.7-0.1-1.3-0.2-2-0.2c-1.3,0-2,0.4-2,1.2c0,0.2,0,0.3,0.1,0.5c0.1,0.2,0.2,0.3,0.4,0.4c0.2,0.1,0.5,0.3,0.7,0.4
		c0.3,0.1,0.7,0.3,1.2,0.5c0.8,0.3,1.6,0.6,2.4,1c0.6,0.3,1.1,0.6,1.6,1c0.4,0.4,0.6,0.8,0.8,1.3c0.2,0.5,0.2,1.1,0.2,1.6
		C54.1,51.4,53.5,52.7,52.4,53.4L52.4,53.4z"/>
</g>
</svg>
