<svg data-name="Ebene 1" xmlns="http://www.w3.org/2000/svg" xmlns:xlink="http://www.w3.org/1999/xlink" viewBox="0 0 60 60"><defs><linearGradient id="a" x1="10.19" y1="43.29" x2="15.78" y2="49.96" gradientUnits="userSpaceOnUse"><stop offset="0" stop-color="#e7362f"/><stop offset=".77" stop-color="#9c1006"/></linearGradient><linearGradient id="b" x1="4.65" y1="-.22" x2="55.35" y2="60.22" xlink:href="#a"/></defs><path d="M38.63 50.9a7.92 7.92 0 01-1.43.1 2.06 2.06 0 01-1.93-.81 4.34 4.34 0 01-.47-2.17V42.7H40v-3.59h-5.27v-4.44h-4.25v13.44a12.44 12.44 0 00.27 2.69 5 5 0 001 2.06 4.48 4.48 0 001.85 1.33 7.68 7.68 0 002.92.48 10.42 10.42 0 002.35-.23 12.14 12.14 0 001.73-.55l-.6-3.35a7.9 7.9 0 01-1.37.36zm15.1-2.54a3.56 3.56 0 00-.78-1.3A5.76 5.76 0 0051.46 46a17.82 17.82 0 00-2.37-1c-.46-.16-.85-.31-1.15-.45a5.59 5.59 0 01-.72-.39 1 1 0 01-.36-.38 1.11 1.11 0 01-.09-.46c0-.75.64-1.15 2-1.18a8.28 8.28 0 012 .16 15.63 15.63 0 011.64.42l.67-3.37a12 12 0 00-2-.49 14.44 14.44 0 00-2.66-.18A7 7 0 0044 40.05a4.06 4.06 0 00-1.5 3.42 4.9 4.9 0 00.36 1.87 4.08 4.08 0 00.93 1.33 5.52 5.52 0 001.43.93 17.42 17.42 0 001.85.73 12.14 12.14 0 012 .84 1.11 1.11 0 01.66.89.9.9 0 01-.47.91 4.39 4.39 0 01-1.67.27 10.52 10.52 0 01-2.29-.19 13.6 13.6 0 01-2.3-.62L42.37 54a14.86 14.86 0 001.88.53 13.39 13.39 0 003.37.26 8.4 8.4 0 004.76-1.27A3.86 3.86 0 0054 50a5.85 5.85 0 00-.27-1.64zm-30.69-7.85h4.31v13.82h-4.31zm.02-5.84h4.29v4.3h-4.29z" fill="none"/><path d="M16.47 46.84a5.21 5.21 0 00-.9-3.2 3.11 3.11 0 00-2.66-1.2h-1.07c-.33 0-.6.07-.81.11v7.77a3.64 3.64 0 001.06.44 5.29 5.29 0 001.31.24q3.07 0 3.07-4.16z" fill="url(#a)"/><path d="M55.55 1H4.45A3.46 3.46 0 001 4.45v51.1A3.46 3.46 0 004.45 59h2.27V39.64c.39-.12.83-.23 1.33-.34s1-.19 1.58-.27 1.11-.14 1.68-.19 1.11-.07 1.63-.07a9.45 9.45 0 013.35.56 6.64 6.64 0 014 4.09 9.85 9.85 0 01.53 3.3 11.08 11.08 0 01-.43 3.21 7.32 7.32 0 01-1.27 2.49A5.87 5.87 0 0117.07 54a6.76 6.76 0 01-2.86.57 7.54 7.54 0 01-1.68-.17A7.74 7.74 0 0111 54v5h44.55A3.46 3.46 0 0059 55.55V4.45A3.46 3.46 0 0055.55 1zM23.06 34.67h4.29V39h-4.29zm4.29 19.66H23V40.51h4.31zm11.5.11a10.42 10.42 0 01-2.35.23 7.68 7.68 0 01-2.92-.48 4.48 4.48 0 01-1.85-1.33 5 5 0 01-1-2.06 12.44 12.44 0 01-.27-2.69V34.67h4.25v4.44H40v3.59h-5.2v5.35a4.34 4.34 0 00.47 2.17 2.06 2.06 0 001.93.78 8.23 8.23 0 002.8-.46l.61 3.35a12.14 12.14 0 01-1.76.55zm13.53-1a8.4 8.4 0 01-4.76 1.27 13.39 13.39 0 01-3.37-.26 14.86 14.86 0 01-1.88-.45l.63-3.57a13.6 13.6 0 002.27.62 10.52 10.52 0 002.29.19 4.39 4.39 0 001.68-.24.9.9 0 00.47-.91 1.11 1.11 0 00-.66-.89 12.14 12.14 0 00-2-.84 17.42 17.42 0 01-1.85-.73 5.52 5.52 0 01-1.43-.93 4.08 4.08 0 01-.93-1.33 4.9 4.9 0 01-.36-1.87A4.06 4.06 0 0144 40.05a7 7 0 014.34-1.35 14.44 14.44 0 012.66.18 12 12 0 012 .49l-.67 3.37a15.63 15.63 0 00-1.64-.42 8.28 8.28 0 00-2-.16c-1.35 0-2 .43-2 1.18a1.11 1.11 0 00.09.46 1 1 0 00.36.38 5.59 5.59 0 00.72.39c.3.14.69.29 1.15.45a17.82 17.82 0 012.37 1A5.76 5.76 0 0153 47.06a3.56 3.56 0 01.78 1.3A5.85 5.85 0 0154 50a3.86 3.86 0 01-1.62 3.47z" fill="url(#b)"/></svg>