<svg xmlns="http://www.w3.org/2000/svg" xmlns:xlink="http://www.w3.org/1999/xlink" width="186.962" height="164.529" viewBox="0 0 186.962 164.529"><defs><filter id="a" x="0" y="0" width="186.962" height="164.529" filterUnits="userSpaceOnUse"><feOffset dy="3" input="SourceAlpha"/><feGaussianBlur stdDeviation="13" result="b"/><feFlood flood-color="#b5b5b5" flood-opacity="0.161"/><feComposite operator="in" in2="b"/><feComposite in="SourceGraphic"/></filter></defs><g transform="translate(-1339.804 -565.336)"><g transform="translate(1355.458 566.399)"><circle cx="78.542" cy="78.542" r="78.542" fill="#f9f9f9"/></g><g transform="matrix(1, 0, 0, 1, 1339.8, 565.34)" filter="url(#a)"><rect width="108.962" height="86.529" rx="4" transform="translate(39 36)" fill="#fff"/></g><path d="M4,0H104.962a4,4,0,0,1,4,4V6.41a0,0,0,0,1,0,0H0a0,0,0,0,1,0,0V4A4,4,0,0,1,4,0Z" transform="translate(1378.804 601.336)" fill="#707070"/><g transform="translate(1409.092 621.549)"><g transform="translate(0 0)"><g transform="translate(0 0)"><path d="M267.141,187.713H225.608a2.068,2.068,0,0,0-2.237,1.842h0a2.069,2.069,0,0,0,2.237,1.842h41.533a2.069,2.069,0,0,0,2.237-1.842h0A2.069,2.069,0,0,0,267.141,187.713Z" transform="translate(-223.371 -157.358)" fill="#e8e8e8"/><path d="M249.2,187.713H224.691c-.729,0-1.32.825-1.32,1.842h0c0,1.017.591,1.842,1.32,1.842H249.2c.729,0,1.32-.825,1.32-1.842h0C250.515,188.538,249.925,187.713,249.2,187.713Z" transform="translate(-213.94 -187.713)" fill="#e8e8e8"/><path d="M248.279,209.037H225.608a2.086,2.086,0,0,0-2.237,1.892h0a2.086,2.086,0,0,0,2.237,1.892h22.671a2.086,2.086,0,0,0,2.237-1.892h0A2.086,2.086,0,0,0,248.279,209.037Z" transform="translate(-213.94 -166.717)" fill="#e8e8e8"/><g transform="translate(0.664 15.169)"><path d="M2.444,0l.342,2.494L.786.957,0,2.359,2.325,3.2,0,4.069.821,5.521,2.77,3.948,2.444,6.427H4.018L3.659,3.948,5.606,5.487l.786-1.4L4.051,3.214l2.342-.873L5.624.974,3.659,2.494,4.035,0Z" transform="translate(0 0)" fill="#4e8e2b"/><path d="M11.4,0l.342,2.494-2-1.537-.786,1.4,2.325.838L8.96,4.069l.82,1.452,1.949-1.572L11.4,6.427h1.572l-.358-2.478,1.947,1.538.786-1.4-2.342-.871,2.342-.873L14.584.974l-1.965,1.52L12.994,0Z" transform="translate(0.612 0)" fill="#4e8e2b"/><path d="M20.364,0l.342,2.494-2-1.537-.786,1.4,2.326.838-2.326.873.821,1.452L20.69,3.948l-.326,2.478h1.574l-.359-2.478,1.947,1.538.786-1.4-2.342-.871,2.342-.873L23.544.974l-1.966,1.52L21.955,0Z" transform="translate(1.223 0)" fill="#4e8e2b"/><path d="M29.324,0l.342,2.494-2-1.537-.786,1.4L29.2,3.2l-2.325.873.82,1.452,1.948-1.572-.325,2.478H30.9l-.358-2.478,1.947,1.538.786-1.4-2.342-.871,2.342-.873L32.5.974l-1.965,1.52L30.914,0Z" transform="translate(1.835 0)" fill="#4e8e2b"/><path d="M38.284,0l.342,2.494-2-1.537-.786,1.4,2.326.838-2.326.873.821,1.452L38.61,3.948l-.326,2.478h1.574L39.5,3.948l1.947,1.538.786-1.4L39.89,3.214l2.342-.873L41.464.974,39.5,2.494,39.874,0Z" transform="translate(2.447 0)" fill="#4e8e2b"/></g></g></g></g><g transform="translate(1382.009 603.473)"><circle cx="1.234" cy="1.234" r="1.234" transform="translate(0 0)" fill="#ff6d6d"/><circle cx="1.234" cy="1.234" r="1.234" transform="translate(3.701 0)" fill="#ffd36d"/><circle cx="1.234" cy="1.234" r="1.234" transform="translate(7.402 0)" fill="#66c944"/></g><g transform="translate(1450.243 645.174)"><circle cx="22.5" cy="22.5" r="22.5" transform="translate(-0.243 -0.174)" fill="#dcf5df"/><circle cx="16.5" cy="16.5" r="16.5" transform="translate(5.757 5.826)" fill="#6ac476"/><path d="M9.477,95.361a.8.8,0,0,1-.55-.218L4.4,90.9a.8.8,0,1,1,1.1-1.172l3.964,3.719,8.986-8.79A.8.8,0,0,1,19.572,85.8l-9.536,9.328A.784.784,0,0,1,9.477,95.361Z" transform="translate(10.31 -67.591)" fill="#fff" stroke="#fff" stroke-width="1"/></g></g></svg>