<?xml version="1.0" encoding="UTF-8"?>
<svg width="300" height="178.84" version="1.1" viewBox="0 0 300 178.84" xml:space="preserve" xmlns="http://www.w3.org/2000/svg"><style type="text/css">.st0{fill:none}.st2{fill:#fff}.st3{fill:#1d327b}.st4{fill:#575756}</style><path class="st3" d="m66.809 59.045h-0.17c-1.28 2.9-5.29 7.252-11.264 7.252-10.75 0-17.662-8.959-17.662-19.027 0-8.362 6.74-19.027 17.065-19.027 6.144 0 10.24 4.692 11.86 8.703h0.17v-31.144h-6.825v-1.365h6.826c2.73 0 5.46-0.17 7.167-2.133v61.604h5.887v1.365h-13.053zm0-16.127c0-6.228-4.864-13.31-12.03-13.31-7.51 0-8.79 5.887-8.79 17.662 0 12.798 1.025 17.662 9.386 17.662 5.802 0 11.52-4.864 11.434-12.03z" fill="#1d327b" stroke-width=".853"/><path class="st3" d="m24.573 32.594h-8.105c-9.983 0-11.86 4.693-11.86 11.775h-1.366v-13.14h31.144l-24.403 33.703h8.362c9.13 0 12.372-2.474 12.372-11.434h1.365v12.8h-32.082z" fill="#1d327b" stroke-width=".853"/><g transform="scale(.85324)"><path class="st0" d="m106.2 65.5c0 5.6 0.9 9.8 7.3 9.8 5.6 0 8.8-3 10.1-5.5v-15.3h-1c-7.3 0-16.4 0.2-16.4 11z" fill="none"/><path class="st3" d="m113.5 75.3c-6.4 0-7.3-4.2-7.3-9.8 0-10.8 9.1-10.9 16.5-10.9h1v-1.6h-1.2c-10.3 0-25.3 2.8-25.3 14.1 0 6.8 4.7 10.7 12.6 10.7 6.2 0 10.6-1.5 14-5.5v-2.4c-1.5 2.4-4.7 5.4-10.3 5.4z" fill="#1d327b"/><path class="st3" d="m116.1 33.1c-10 0-15.5 5.6-15.5 10.8 0 3.4 1.6 5.6 4.4 5.6 2.6 0 4.6-1.8 4.6-4.2 0-4.5-3.3-3.4-3.3-5.8 0-3.6 6.8-4.7 9.7-4.7s6.1 0.6 7.5 3v-3.4c-2.3-0.8-4.9-1.3-7.4-1.3z" fill="#1d327b"/><g fill="#575756"><path class="st4" d="m162.3 84.2h-6.3c-7.9 0-8.1 3.1-8.1 6.9h-0.6v-7.6h19.9l-16.7 26.8h4.6c5.2 0 11.6-0.2 11.6-5.6v-1.6h0.6v7.8h-21.8z"/><path class="st4" d="m175.4 105c0 2.8 0.4 5.9 4 5.9 3.3 0 5.7-2.2 6.2-5.4h0.6c-0.6 3.6-3.3 6-6.9 6-4.6 0-7.7-3.5-7.7-8.6 0-3.8 3-8.6 7.3-8.6 4.6 0 7 5.1 7 6.8 0 0.2-0.1 0.3-0.3 0.3h-10.2zm6.8-5.4c0-2.5-0.7-4.8-3.2-4.8-2.7 0-3.5 2.3-3.5 4.8v1.1h6.5c0.2 0 0.3-0.1 0.3-0.3v-0.8z"/><path class="st4" d="m191.1 95.7h-3.1v-0.7h3.1c1.9 0 2.6 0 3.3-0.9v4h0.1c1-1.9 3-4 5.8-4 4.2 0 5.3 2.1 5.3 4.4v11.8h3.1v0.6h-9.4v-0.6h3.1v-12.7c0-2.1-1-2.8-2.3-2.8-3.3 0-4.9 3.3-5.6 4.6v11h3v0.6h-9.5v-0.6h3.1z"/><path class="st4" d="m212.9 95.7h-3.4v-0.7c4 0.1 5.5-1.6 6.2-5.4h0.5v5.4h5.4v0.6h-5.4v13.1c0 1.6 0.7 2.1 1.9 2.1 1.9 0 2.8-1.8 3-2.5l0.6 0.1c-0.3 0.9-1.4 3-4.3 3-2.7 0-4.5-0.9-4.5-3.5z"/><path class="st4" d="m225.9 95.7h-3.3v-0.7h3.3c1.3 0 2.5-0.1 3.3-0.9v4.6h0.1c0.5-1.7 1.8-4.6 5-4.6 1.4 0 2.6 0.9 2.6 2.3 0 1-0.6 1.8-1.8 1.8-1.3 0-1.7-0.7-1.7-1.7 0-0.9 0.4-1.4 0.9-1.7-0.2-0.1-0.3-0.1-0.5-0.1-1.6 0-4.5 2.5-4.5 7.6v8h3.5v0.6h-10.1v-0.6h3.3v-14.6z"/><path class="st4" d="m241 95.7h-3.1v-0.7h3.1c1.2 0 2.5-0.1 3.3-0.9v13.9c0 1.7 0.9 2.7 2.4 2.7 2.7 0 5.1-3.1 5.1-6v-9.2h-3.1v-0.5h3.1c1.2 0 2.5-0.1 3.3-0.9v16.2h3.1v0.6h-6.4v-3.5h-0.1c-0.3 0.9-2 4-5.5 4-3.9 0-5.3-2.1-5.3-4.3v-11.4z"/><path class="st4" d="m259.4 110.4h3.1v-14.7h-3.1v-0.7h3.1c1.9 0 2.6 0 3.3-0.9v3.9h0.1c1-1.9 2.7-3.8 5.6-3.8 2.5 0 5 0.7 5.3 4.2h0.1c0.8-2.2 2.7-4.2 5.6-4.2 4 0 5.3 2.3 5.3 4.8v11.4h3.1v0.6h-9.4v-0.6h3.1v-12.2c0-2.8-1.2-3.4-2.7-3.4-2.3 0-4.2 2.5-5 5.2v10.4h3v0.6h-9.3v-0.6h3.1v-12.9c0-1.9-1-2.7-2.5-2.7-2.3 0-4.1 1.8-5.2 4.6v11h3v0.6h-9.3v-0.6z"/><path class="st4" d="m306.5 95.7h-3.5v-0.7h3.5v-2.7c0-4.9 2.2-10 6.1-10 2.4 0 3.5 1.8 3.5 3.5 0 0.9-0.7 1.8-1.9 1.8s-1.6-0.8-1.6-1.6c0-1.8 2.1-1.3 2.1-2.1 0-0.6-0.9-1.1-2-1.1-1.9 0-3 1.1-3 5.4v6.8h4.4v0.6h-4.4v14.7h3.5v0.6h-10.2v-0.6h3.5z"/><path class="st4" d="m318.9 95.7h-3.1v-0.7h3.1c1.2 0 2.5-0.1 3.3-0.9v13.9c0 1.7 0.9 2.7 2.4 2.7 2.7 0 5.1-3.1 5.1-6v-9.2h-3.1v-0.5h3.1c1.2 0 2.5-0.1 3.3-0.9v16.2h3.1v0.6h-6.4v-3.5h-0.1c-0.3 0.9-2 4-5.4 4-3.9 0-5.3-2.1-5.3-4.3zm5.1-8.7c0 0.9-0.8 1.7-1.8 1.7s-1.8-0.8-1.8-1.7 0.8-1.8 1.8-1.8 1.8 0.8 1.8 1.8zm7.4 0c0 0.9-0.8 1.7-1.8 1.7s-1.8-0.8-1.8-1.7 0.8-1.8 1.8-1.8 1.8 0.8 1.8 1.8z"/><path class="st4" d="m340.6 95.7h-3.3v-0.7h3.3c1.3 0 2.5-0.1 3.3-0.9v4.6h0.1c0.5-1.7 1.8-4.6 5-4.6 1.4 0 2.6 0.9 2.6 2.3 0 1-0.6 1.8-1.8 1.8-1.3 0-1.7-0.7-1.7-1.7 0-0.9 0.4-1.4 0.9-1.7-0.2-0.1-0.4-0.1-0.5-0.1-1.6 0-4.5 2.5-4.5 7.6v8h3.5v0.6h-10.1v-0.6h3.3v-14.6z"/><path class="st4" d="m148.3 127.4h-3.7v-0.6h12.2c10.4 0 13.3 8.5 13.3 13.7 0 8.5-5.3 13.7-13.2 13.7h-12.2v-0.6h3.7v-26.2zm4 26.2h3.3c3.5 0 10-1.3 10-13.1 0-6.7-1.9-13.1-11.5-13.1h-1.9v26.2z"/><path class="st4" d="m177.5 148.2c0 2.8 0.4 5.9 4 5.9 3.3 0 5.7-2.2 6.2-5.4h0.6c-0.6 3.6-3.3 6-6.9 6-4.6 0-7.8-3.5-7.8-8.6 0-3.8 3-8.6 7.3-8.6 4.6 0 7 5.1 7 6.8 0 0.2-0.1 0.4-0.3 0.4h-10.2v3.5zm6.8-5.4c0-2.5-0.7-4.8-3.2-4.8-2.7 0-3.5 2.3-3.5 4.8v1.1h6.5c0.2 0 0.3-0.1 0.3-0.3v-0.8z"/><path class="st4" d="m190.1 153.6h3.1v-14.7h-3.1v-0.6h3.1c1.9 0 2.6 0 3.3-0.9v3.8h0.1c1-1.9 2.7-3.8 5.6-3.8 2.5 0 5 0.7 5.3 4.2h0.1c0.8-2.2 2.7-4.2 5.6-4.2 4 0 5.3 2.3 5.3 4.7v11.4h3.1v0.6h-9.4v-0.6h3.1v-12.1c0-2.8-1.2-3.4-2.7-3.4-2.3 0-4.2 2.5-5 5.2v10.4h3v0.6h-9.3v-0.6h3.1v-12.9c0-1.9-1-2.7-2.5-2.7-2.3 0-4.1 1.8-5.2 4.6v11h3v0.6h-9.3v-0.6z"/><path class="st4" d="m231.8 137.4c5 0 8.3 4.2 8.3 8.6 0 4.5-3.2 8.6-8.3 8.6-5 0-8.3-4.2-8.3-8.6 0.1-4.4 3.3-8.6 8.3-8.6zm4.5 7.1c0-3.4-0.2-6.5-4.5-6.5-4.4 0-4.5 3.1-4.5 6.5v3c0 3.4 0.2 6.5 4.5 6.5 4.4 0 4.5-3.1 4.5-6.5z"/><path class="st4" d="m245.1 127.2h-3.1v-0.6h3.1c1.2 0 2.5-0.1 3.3-1v21.7l6.2-6c0.9-0.8 1.4-1.5 1.4-1.8 0-0.4-0.5-0.6-1.8-0.6h-1.3v-0.6h8.2v0.6h-1.4c-1.3 0-1.9 0.3-3.3 1.6l-4.3 4.1 6.1 7.6c0.9 1.1 1.2 1.5 1.9 1.5h2v0.6h-9.8v-0.6h2.8l-5.4-6.7-1.4 1.3v5.4h2.7v0.6h-9.1v-0.6h3.1v-26.5z"/><path class="st4" d="m267 138.9h-3.3v-0.6h3.3c1.2 0 2.5-0.1 3.3-0.9v4.6h0.1c0.5-1.8 1.8-4.6 5-4.6 1.4 0 2.6 0.9 2.6 2.3 0 1-0.6 1.8-1.8 1.8-1.3 0-1.7-0.7-1.7-1.7 0-0.9 0.4-1.4 0.9-1.7-0.2-0.1-0.4-0.1-0.5-0.1-1.6 0-4.5 2.5-4.5 7.6v8h3.5v0.6h-10.1v-0.6h3.3v-14.7z"/><path class="st4" d="m293.8 152.1c0 0.7 0.1 1.7 1.2 1.7 0.9 0 1.4-0.7 2-1.6l0.4 0.3c-0.7 1.3-1.8 2.1-3.4 2.1-1.8 0-3.2-1.1-3.4-2.4h-0.1c-1.3 1.8-3.1 2.4-5.6 2.4-3 0-4.9-1.5-4.9-4.2 0-4.4 5.8-5.5 9.8-5.5h0.7v-4.8c0-1.8-1.7-2.3-3.2-2.3-1.1 0-3.8 0.4-3.8 1.8 0 0.9 1.3 0.5 1.3 2.3 0 0.9-0.8 1.6-1.8 1.6-1.1 0-1.7-0.9-1.7-2.2 0-2 2.1-4.2 6-4.2 3 0 6.5 1.5 6.5 4.5zm-3.9-6.4c-2.8 0-6.4 0.1-6.4 4.2 0 2.2 0.3 3.8 2.8 3.8 2.9 0 4.2-2.2 4.2-3v-5.1h-0.6z"/><path class="st4" d="m301.6 138.9h-3.4v-0.6c4.1 0.1 5.5-1.6 6.2-5.4h0.5v5.4h5.4v0.6h-5.4v13.1c0 1.6 0.7 2.1 1.9 2.1 1.9 0 2.8-1.8 3-2.5l0.6 0.1c-0.3 0.9-1.4 3-4.3 3-2.7 0-4.5-0.9-4.5-3.5z"/><path class="st4" d="m314.5 138.9h-3.1v-0.6h3.1c1.2 0 2.5-0.1 3.3-0.9v16.2h3.1v0.6h-9.5v-0.6h3.1zm1.7-10.5c1.1 0 2 0.9 2 2s-0.9 2-2 2-2-0.9-2-2 0.9-2 2-2z"/><path class="st4" d="m326.8 148.2c0 2.8 0.4 5.9 4 5.9 3.3 0 5.7-2.2 6.2-5.4h0.6c-0.6 3.6-3.3 6-6.9 6-4.6 0-7.7-3.5-7.7-8.6 0-3.8 3-8.6 7.3-8.6 4.6 0 7 5.1 7 6.8 0 0.2-0.1 0.4-0.4 0.4h-10.2v3.5zm6.8-5.4c0-2.5-0.7-4.8-3.2-4.8-2.7 0-3.5 2.3-3.5 4.8v1.1h6.5c0.2 0 0.3-0.1 0.3-0.3v-0.8z"/><path class="st4" d="m159.4 188.6h-8.3l-1.6 4.9c-0.3 0.8-0.6 1.7-0.6 2.4 0 0.5 0.5 1 1.7 1h2v0.6h-8v-0.6h1.3c1.2 0 1.7-0.1 2.4-2.3l8.4-25.1h0.4l9.5 27.4h3.2v0.6h-11.4v-0.6h3.8zm-4.2-12.4-3.9 11.8h7.9z"/><path class="st4" d="m185.6 195.4c0 0.7 0.1 1.7 1.2 1.7 0.9 0 1.4-0.7 2-1.6l0.4 0.3c-0.7 1.3-1.7 2.1-3.4 2.1-1.8 0-3.2-1.1-3.4-2.4h-0.1c-1.3 1.8-3.1 2.4-5.6 2.4-3 0-4.9-1.5-4.9-4.2 0-4.4 5.8-5.5 9.8-5.5h0.7v-4.8c0-1.8-1.7-2.3-3.2-2.3-1.1 0-3.8 0.4-3.8 1.8 0 0.9 1.3 0.5 1.3 2.3 0 0.9-0.8 1.6-1.8 1.6-1.1 0-1.7-0.9-1.7-2.2 0-2 2.1-4.2 6-4.2 3 0 6.5 1.5 6.5 4.5zm-3.9-6.5c-2.8 0-6.4 0.1-6.4 4.2 0 2.2 0.4 3.8 2.8 3.8 2.9 0 4.2-2.2 4.2-3v-5.1h-0.6z"/><path class="st4" d="m193.4 182.1h-3.3v-0.6h3.3c1.2 0 2.5-0.1 3.3-0.9v4.6h0.1c0.5-1.8 1.8-4.6 5-4.6 1.4 0 2.6 0.9 2.6 2.3 0 1-0.6 1.8-1.8 1.8-1.3 0-1.7-0.7-1.7-1.7 0-0.9 0.4-1.4 0.9-1.7-0.2-0.1-0.4-0.1-0.5-0.1-1.6 0-4.5 2.5-4.5 7.6v8h3.5v0.6h-10.1v-0.6h3.3v-14.7z"/><path class="st4" d="m220.3 195.4c0 0.7 0.1 1.7 1.2 1.7 0.9 0 1.4-0.7 2-1.6l0.4 0.3c-0.7 1.3-1.8 2.1-3.4 2.1-1.8 0-3.2-1.1-3.4-2.4h-0.1c-1.3 1.8-3.1 2.4-5.6 2.4-3 0-4.9-1.5-4.9-4.2 0-4.4 5.8-5.5 9.8-5.5h0.7v-4.8c0-1.8-1.7-2.3-3.2-2.3-1.1 0-3.8 0.4-3.8 1.8 0 0.9 1.3 0.5 1.3 2.3 0 0.9-0.8 1.6-1.8 1.6-1.1 0-1.7-0.9-1.7-2.2 0-2 2.1-4.2 6-4.2 3 0 6.5 1.5 6.5 4.5zm-4-6.5c-2.8 0-6.4 0.1-6.4 4.2 0 2.2 0.4 3.8 2.8 3.8 2.9 0 4.2-2.2 4.2-3v-5.1h-0.6z"/><path class="st4" d="m228 182.1h-3.1v-0.6h3.1c1.2 0 2.5-0.1 3.3-0.9v13.9c0 1.7 0.9 2.7 2.4 2.7 2.7 0 5.1-3.1 5.1-6v-9.2h-3.1v-0.6h3.1c1.2 0 2.5-0.1 3.3-0.9v16.2h3.1v0.6h-6.4v-3.5h-0.1c-0.4 0.9-2 4-5.5 4-3.9 0-5.3-2.1-5.3-4.3v-11.4z"/></g></g><path class="st4" d="m114.33 178.84h-0.85324v-178.84h0.85324z" fill="#575756" stroke-width=".85324"/></svg>
